<?xml version="1.0" encoding="UTF-8"?>
<svg version="1.1" viewBox="0 0 1316 856" width="329" height="214" xmlns="http://www.w3.org/2000/svg">
<path transform="translate(33,25)" d="m0 0h13l9 3 5 5 2 4v31h223v-25l2-10 5-6 6-2h11l8 2 7 6 2 4v680l-4 7-4 4-3 1h-8l-14-3-5-5-2-5v-40l1-18-225-1v61l-6 8-5 3h-9l-11-2-7-4-3-5v-65l2-82 1-138v-44l-1-4v-137l-2-54-1-58v-98l3-7 6-5zm261 6-1 5 3-4zm-2 5-1 5 2 1v-6zm-2 6-1 16v11h2l-1-9h2v-15zm-186 59 5 5 41 24 26 15 24 14 22 13 27 16 26 15 11 6 2-1v-106zm-42 18v206l4-1 18-10 21-11 23-11 54-27 19-10 26-13 20-9 9-1-3-2-25-14-25-15-23-13-24-14-15-9-53-31-20-12-4-3zm224 136-23 11-52 26-23 11-50 25-23 11-22 11-3 1 2 4 25 15 24 14 26 15 44 26 24 14 26 15 25 15 3 1-1-188-1-27zm-224 123v217l5-1 23-12 32-16 15-8 46-23 23-11 42-21 13-5 5-1-2-2-16-8-24-14-29-17-41-24-26-15-25-15-24-14-14-9zm226 147-18 8-32 16-23 11-64 32-19 9-19 10-22 11v2l197-1 1-98zm-264 70v38h1v-38zm265 63v31l1 26 1 7 2 1-2-42-1-23z" fill="#E46712"/>
<path transform="translate(560,281)" d="m0 0 23 1 13 4 8 6 8 14 3 12v110l-3 15-5 10-8 9-10 5-6 1h-20l-14-3-10-5-7-8-5-10-3-13-1-55v-48l1-14-2-1h-16v155h-32l-1-1-1-154-2 154h-4v-154h-11l-3-2v-25l1-1 73 1 1 2v16l3-3 7-9 8-6 6-2zm-7 3m-2 1m-2 1m-2 1-3 4 4-2 1-2zm-5 4-10 13-2 5-1 6-1 21v79l2 21 5 12 5 7v-3l-5-10-3-15-1-13v-73l1-20 3-14 6-11 3-3v-2zm27 18-4 5-2 9v102l2 12 4 3h3l3-8 1-12v-99l-3-11zm7 1 3 8 1 7v83l-1 21-1 10h2l2-6 1-24v-87l-2-8-3-4zm1 129m-36 16 1 2z" fill="#233776"/>
<path transform="translate(793,535)" d="m0 0h31l16 1 2 8 10 53 6 32 1 3 2-10 5-28 11-57 1-2h5l-1 8-4 19-3 17-5 25-2 14-2 7-1 14-3-1 1 6 1 5 7-40 12-65 2-9h22l17 1v182h-29l-1-1v-40l-1 37-1 3h-4l-1-5 1-51-10 48-2 8h-26l-4-16-4-21 1 11 5 26-5-1-2-6-6-32-3-17-1 7-1 50h-29l-3-1h-5zm37 85m1 5v12l1 9 3 13h1l-1-19-3-15zm63 8m0 3-1 4v20h1l1-9v-15zm-58 15m53 2 1 3zm-52 1-1 7 2 12h1v-13l-1-6zm3 16m-1 5 1 2z" fill="#233776"/>
<path transform="translate(478,533)" d="m0 0h12l17 1 10 3 9 6 7 10 4 11 1 5 1 35v25l-1 52-3 14-5 10-9 10 1 4 11 12 1 4-8 8-6 5-4-1-1-3-4-2h-1l1 5-5-3-9-9-7-8-7-7-18-6-9-7-7-14-2-12-1-15v-87l2-17 4-11 5-7h2l2-4 8-5zm-5 4m-2 1m-5 3m-1 1m-5 6m-2 5 1 2zm-4 9m38 0-4 5-2 8v103l2 11 6 3 3-1 1-8 1-47v-26l-1-42-1-6zm9 2m-48 1 1 2zm48 1m4 15v73h1v-73zm-2 73-1 32 3-1v-26l-1-5zm0 33 1 3zm-12 34m1 1 2 4 6 5-2-4zm8 9 3 3-1-3zm4 4m1 1m1 1 1 3v-3z" fill="#233776"/>
<path transform="translate(456,32)" d="m0 0h14l26 1 1 1 1 70 15 1-1-72h36l1 1v181h-33l-2-2-3 1-1-4 3-77-16-2v84h-31l-1-1-7-1-1-1z" fill="#233776"/>
<path transform="translate(547,535)" d="m0 0h6 2 20l11 1 1 138 1 14 2 2 7 2 1-20 1-137h5l1 1v22l-2 129 1 2 1-30 1-120 1-4h18l13 1 1 2v125l-1 22-2 10-6 12-8 8-9 4-5 1h-25l-13-3-9-5-5-5-4-5-4-11-1-8zm6 8m0 2v27h1v-27z" fill="#233776"/>
<path transform="translate(1022,535)" d="m0 0h12l13 1 4 9 11 31 11 28-1-17v-52h6v48h2v-2l-2-1 1-5v-3-37h32v26l-1 1-1 155-1 1h-22l-4-9-9-24-11-30-10-29 2 12 15 40 13 35v5l-4-1-7-18-16-44-2-5v-3h-2l1 70-1 1h-29l-1-1v-181zm55 50m2 0m0 2-1 4v8h-1v16l3 10h1l-1-38zm-5 19 1 2zm-24 15 1 2z" fill="#233776"/>
<path transform="translate(631,283)" d="m0 0h25l28 1 12 2 7 4 6 9 4 13 1 10v19l-3 17-8 12 6 8 3 8 2 20 1 50 5-32 20-140 1-1h5l-1 12-4 26-7 49-2 16-6 36-5 32v4h-2l-1 6-1 2h-33l-2-3-1-61-1-17h-3l2 3 1 22v56l-4-2-1-11-1-57-2-10-2-3-6-1-1 84h-31l-1-1zm33 25-1 18v30l4 1 4-1 3-10 1-8v-14l-2-13-2-3zm13 2 1 7v27l-1 12h2l2-8 1-9v-15l-2-12-1-2z" fill="#233776"/>
<path transform="translate(1111,32)" d="m0 0 26 1 7 18 15 41 8 16 3 10-1-11v-74l5-1 24 1v182h-21l-3-3-13-35-7-18-10-30-2-5 2 10 8 24 18 47 3 9-5-1-4-8-11-30-9-26-2-3v67l-2 2h-27l-2-2-1-16v-164zm29 87 1 2zm1 23 1 2z" fill="#233776"/>
<path transform="translate(846,282)" d="m0 0h30l11 3 7 4 7 8 4 9 2 10 1 14v19l-1 1h-28l-2-1-1-23-1-11-1-3 1 36-5 1-1-27-1-13-7 3-3 8-1 44h20l30 1 1 1v99l-1 1h-15l-8-2-1-2-12 6h-13l-16-3-7-3-8-7-6-12-3-11-1-7-1-61v-38l3-17 4-9 6-9 8-6zm-1 3m-2 1m-2 1m-2 1-3 2v2l4-2 1-2zm-4 4-8 10-4 10-1 6v105l2 14 5 12 7 11 4 3-2-5-5-7-5-12-2-11-1-16v-85l2-16 4-9 5-8zm22 93v44l3 10 5 1 4-6 2-8 1-10v-27l-9-3zm20 3-1 29-3 17-2 5 4-2 3-8 1-8v-33zm-7 51 1 2zm19 17-2 3 3 1z" fill="#233776"/>
<path transform="translate(1218,32)" d="m0 0h33l17 1 12 3 9 6 6 9 4 12 1 8v100l-2 15-4 11-6 8-6 5-7 3-5 1-21 1h-30l-2-2-1-180zm32 24-1 1v132l3 1 4-2 4-8 1-7v-99l-2-9-3-7zm11 3 3 9 1 11v96l-2 10-2 3 4-2 2-3 1-5 1-43v-37l-1-25-3-12z" fill="#233776"/>
<path transform="translate(1026,32)" d="m0 0h18l29 1 2 2 13 88 10 65 4 23-1 4h-27l-3-1-5-30h-1l4 27v3l-5-1-2-7-2-15v-8h-18l-1 12-2 19-6 1-26-1-1-4 8-48 9-61 8-56 2-11h-2l-3 21-8 55-8 53-5 31-3 18-5 1 1-13 11-72 14-93zm27 57v18l1 1 2 18 4 28 1 4h2l-1-14-6-44-1-11zm-1 20-6 36-1 12h11l-3-34v-14z" fill="#233776"/>
<path transform="translate(920,30)" d="m0 0h11l13 2 10 4 5 5 5 8 4 14 1 9v22l-4 1-25-1-1-1-2-28-3-6 1 4 2 15 1 15h-5l-1-1-1-7-1-19-1-8-5 2-2 5v15l5 10 11 12 9 10 8 9 9 14 5 12 2 7v27l-3 12-5 10-6 7-10 5-4 1h-24l-13-3-3-2-4-1-8-7-5-11-2-9-2-26v-13h27l10 1 2 2 1 28 2 11 5 2h2l1-11v-12l-2-10-7-12-14-15-7-7-10-13-7-14-2-8v-25l3-12 4-7 7-7 5-3zm-16 5m-1 1m-2 1m-2 2-2 3h3v-3zm2 0m-5 3 1 2zm-1 2m-1 4m-2 1 2 3v-3zm0 3 1 2zm-2 3-1 4-1 26 2 8 1-4v-24l1-10zm1 38 1 2zm1 2 1 2zm2 6m1 1m2 4m16 23m12 8 1 2zm1 2m1 1 2 3v-3zm2 3 2 2v-2zm-41 2v8h1v-8zm44 0-1 2 3 4 1-2zm2 6 1 2 1-2zm1 2 2 15v9l-2 11h2l2-3 1-5v-16l-3-11zm-47 1m1 2v10h1v-10zm1 20v9h1v-9zm44 12m-41 5m1 2 1 2z" fill="#233776"/>
<path transform="translate(391,282)" d="m0 0h32l10 3 9 7 4 5 4 8 1 14v26l-1 1h-26l-3-1-2-26-2-9h-8l-4 3-1 4v13l3 8 3 4v2h2l7 8 12 13 8 9 8 14 4 9 2 9v25l-2 12-4 10-9 10-9 4-6 1h-20l-14-3-10-5-7-8-5-13-2-10-1-11v-23h5l1 28 3 16 4 10 5 7-6-12-3-11-2-18-1-20h17l14 1 2 1 1 27 2 13 5 2 2-5v-22l-4-11-6-9-12-13-9-10-8-10-7-13-3-12v-20l3-11 5-10 8-7zm-2 3m-2 1m-2 1-8 7-6 11-2 6v27l5 13 7 11 9 10v-3l-8-11-8-16-2-9v-16l3-12 4-8 5-7 3-3zm6 85m1 1 2 2v-2zm2 2m1 1m1 1 3 4-1-4zm5 4 1 4 7 8 8 16 1 5v19l-4 8 5-2 3-8v-16l-4-13-8-12-8-9z" fill="#233776"/>
<path transform="translate(398,30)" d="m0 0h18l14 3 10 6 6 9 4 12 1 8v26l-19 1-11-1-2-27-2-7-1-1h-8l-3 3-1 3v15l5 10 15 16 7 7 11 14 8 16 3 11 1 15-1 14-3 11-5 10-7 7-8 4-14 2-15-1-16-4-9-6-6-10-4-13-1-5-1-15v-19h29l9 1 1 1 1 28 2 12 6 2 1-6v-21l-4-11-5-8-11-12-7-8-9-10-8-13-4-11-1-5v-21l4-13 6-9 6-5 6-3zm-11 5m-2 1-8 7-7 13-1 4v27l7 16 8 11 3 2-1-4-2-1-6-11-4-9-2-10v-14l4-16 6-9 5-6zm2 80m1 1 2 2v-2zm2 2m1 1m1 1m1 1m1 1m4 4 1 2zm2 3m1 1 2 2v-2zm3 2m-3 2m3 0m2 0-1 2 3-1zm1 3m1 1m2 1-1 2 2 2 1-3zm2 3-1 2 5 10 2 8v19l-3 7 4-2 3-7v-17l-5-14-4-6zm-43 2-1 4 1 21 2 14 4 12 5 8 1-3-5-11-3-15-2-28zm45 44m-33 15m1 1 1 3v-3z" fill="#233776"/>
<path transform="translate(749,283)" d="m0 0 40 1 2 10 15 102 10 62v8h-29l-2-6-4-26 1 13 2 18h-5l-2-9-2-16v-6h-18l-1 13-2 18-1 1h-30l-1-1 1-12 10-65 13-93 2-11zm20 54-2 24-4 23-3 24 2 1h9l-2-24v-16l1-6 5 39 1 7h2l-1-17-5-34-2-21z" fill="#233776"/>
<path transform="translate(710,32)" d="m0 0 31 1 2 5 10 69 3 13 1-24 5-40 3-22 1-2h5l1 2-2 8-5 36-3 24v10l-1 11h-1l-1 7v19l5-49 7-55 2-12 5-1 25 1-1 14-11 78-12 84-2 6h-35l-3-2-8-48-13-80-8-48z" fill="#233776"/>
<path transform="translate(708,535)" d="m0 0h33l19 1 10 2 9 6 6 9 5 15 1 6v34l-3 15-6 12-5 6-10 5-4 1h-23v71h-32l-2-4v-129l1-49zm33 25-1 1v60h7l2-2h-2l3-6 1-7v-30l-2-14-6-2zm10 2 3 13v34l-2 10-2 1 5-1 2-6 1-6v-28l-3-14z" fill="#233776"/>
<path transform="translate(562,32)" d="m0 0h38l32 1 1 7-1 20h-32v47l31 1v26l-5 1h-26v52h22l12 1v27h-66l-2-2-1-15-1 15h-3l-1-1v-179z" fill="#233776"/>
<path transform="translate(917,283)" d="m0 0h5l1 7 2-7h25l39 1 1 2v23l-1 2h-31l-1 48h30l1 1v25l-1 1h-15l-15-1v53h19l14 1 1 1v25l-1 1h-65l-4-1h-3v-86l-1-46z" fill="#233776"/>
<path transform="translate(368,535)" d="m0 0h6v72l1-72h47l19 1 1 2v11l-1 14h-33l1 47 30 1 1 1v25l-2 1-30-1v53h23l11 1 1 7v19l-1 1h-66l-2-3-1 2h-4l-1-3zm5 103v5h1v-5zm0 57v16l2 1-1-17z" fill="#233776"/>
<path transform="translate(814,32)" d="m0 0h40l25 1v26l-1 1-32-1v48h14l17 1v26h-31v53h32l2 1 1 26-15 1h-50l-4-2v-180z" fill="#233776"/>
<path transform="translate(943,535)" d="m0 0h48l16 1v27h-33l1 5v42l29 1 2 5-1 21-1 1h-13l-17-1 1 5v48h22l11 1 1 7-1 20h-65l-1-1v-179z" fill="#233776"/>
<path transform="translate(641,32)" d="m0 0h14l24 1 1 1v154h33l1 1v25l-1 1h-64l-4-2-3 1-1-1-1-18v-162zm4 2m1 1m0 2-1 1v90l1 10h1v-101z" fill="#233776"/>
<path transform="translate(1114,535)" d="m0 0h60l14 1 1 1v25l-1 1h-19v154l-1 1h-31l-1-1-1-85-1-15v99l-5 1-1-1v-152l-15-2zm20 28-1 5v6l3 1v-11zm-1 12m2 2v6h1v-6zm0 19m-2 13m0 2 1 2z" fill="#233776"/>
<path transform="translate(652,535)" d="m0 0h23l13 1 1 1v181h-32l-2-2-1 1h-5l-1-1 1-27 3-50z" fill="#233776"/>
<path transform="translate(484,286)" d="m0 0h23l18 1v16l-1 6-17 1-2 1v72l-1 82h-17l-10-1-1-154-20-1v-22z" fill="#233776"/>
<path transform="translate(793,535)" d="m0 0h31l16 1 2 8 10 53 6 32 1 3 2-10 5-28 11-57 1-2h5l-1 8-4 19-3 17-5 25-2 14-2 7-1 14-3-1 1 6 1 5 7-40 12-65 2-9h22l17 1v182h-29l-1-1v-40l-1 37-1 3h-4l-1-5 1-51-10 48-2 8-2-1 12-59 9-54 3-9h1v28l-1 23-1 72 24-1 1-178-28 1-6-1-6 38-9 48-8 40h-3l-9-48-14-74-1-4h-34v178l24 1v-122h2l14 73 8 45v3h5v1h-7l-4-16-4-21 1 11 5 26-5-1-2-6-6-32-3-17-1 7-1 50h-29l-3-1h-5zm37 85m1 5v12l1 9 3 13h1l-1-19-3-15zm63 8m0 3-1 4v20h1l1-9v-15zm-58 15m53 2 1 3zm-52 1-1 7 2 12h1v-13l-1-6zm3 16m-1 5 1 2z" fill="#F3F2F3"/>
<path transform="translate(560,281)" d="m0 0 23 1 13 4 8 6 8 14 3 12v110l-3 15-5 10-8 9-10 5-6 1h-20l-14-3-10-5-7-8-5-10-3-13-1-55v-48l1-14-2-1h-16v155h-32l-1-1-1-154-2 154h-4v-154h-11l-3-2v-25l1-1 73 1 1 2v16l3-3 7-9 8-6 6-2zm-7 3m14 0-13 4-9 7-6 9-3 8-1 5v113l3 13 6 11 9 8 9 4 5 1h15l10-3 9-6 6-8 4-10 2-10v-113l-4-14-6-9-7-6-11-4zm-16 1m-2 1m-65 0-28 1v22l20 1 1 154 10 1h17l1-82v-72l5-1 14-1 1-6v-16l-19-1zm63 1-3 4 4-2 1-2zm-5 4-10 13-2 5-1 6-1 21v79l2 21 5 12 5 7v-3l-5-10-3-15-1-13v-73l1-20 3-14 6-11 3-3v-2zm-1 164 1 2z" fill="#E4E2E3"/>
<path transform="translate(456,32)" d="m0 0h14l26 1 1 1 1 70 15 1-1-72h36l1 1v181h-33l-2-2-3 1-1-4 3-77-16-2v84h-31l-1-1-7-1-1-1zm12 3-1 3 1 175 27 1 1-83 23-1v82l1 1h27v-178h-27l-1 2v69h-15l-8-1-1-70z" fill="#F0EFEF"/>
<path transform="translate(33,25)" d="m0 0h13v1l-9 2-5 5-2 3-1 9-1 466 1 165 1 41 1 8 7 2-4 1-9-4-4-6v-65l2-82 1-138v-44l-1-4v-137l-2-54-1-58v-98l3-7 6-5zm-9 570v38h1v-38z" fill="#C3BDBF"/>
<path transform="translate(547,535)" d="m0 0h6 2 20l11 1 1 151h-1l-1-5-1-144h-27l1 144 3 14 5 9 5 6 10 5 9 2h16l10-3 9-6 6-8 4-11 1-6v-145l-27-1v147l-3 7-4 3-6 1-7-3-2-5 7 3 3 1 1-20 1-137h5l1 1v22l-2 129 1 2 1-30 1-120 1-4h18l13 1 1 2v125l-1 22-2 10-6 12-8 8-9 4-5 1h-25l-13-3-9-5-5-5-4-5-4-11-1-8zm6 8m0 2v27h1v-27z" fill="#EDEBEC"/>
<path transform="translate(846,282)" d="m0 0h30l11 3 7 4 7 8 4 9 2 10 1 14v19l-1 1h-28l-2-1-1-23-1-11-1-3 1 36-5 1-1-27-1-13-7 3-3 8-1 44h20l30 1 1 1v99l-1 1h-15l-8-2-1-2-12 6h-13l-16-3-7-3-8-7-6-12-3-11-1-7-1-61v-38l3-17 4-9 6-9 8-6zm16 2-9 2-10 5-7 7-6 12-3 17v95l3 17 4 10 7 9 8 6 11 3 12-1 9-5 5-5 4-5 4 14h11l1-1v-97h-38v19l1 1 8 1 4-1v38l-2 9-4 6-6 3-6-1-4-4-3-12v-106l3-7 5-5h9l5 5 2 6 2 30h10l14-1v-25l-2-14-5-12-6-7-10-5-6-1zm-17 1m-2 1m-2 1m-2 1-3 2v2l4-2 1-2zm-4 4-8 10-4 10-1 6v105l2 14 5 12 7 11 4 3-2-5-5-7-5-12-2-11-1-16v-85l2-16 4-9 5-8zm22 93v44l3 10 5 1 4-6 2-8 1-10v-27l-9-3zm20 3-1 29-3 17-2 5 4-2 3-8 1-8v-33zm-7 51 1 2zm19 17-2 3 3 1z" fill="#F5F4F4"/>
<path transform="translate(1022,535)" d="m0 0h12l13 1 4 9 11 31 11 28-1-17v-52h6v48h2v-2l-2-1 1-5v-3-37h32v26l-1 1-1 155-1 1h-22l-4-9-9-24-11-30-10-29 2 12 15 40 13 35v5l-4-1-7-18-16-44-2-5v-3h-2l1 70-1 1h-29l-1-1v-181zm4 3-1 6v171l1 1 8 1h15l1-1v-71l-1-27-1-8 2 1 14 40 19 53 5 13h19l1-178-2-1h-24v32l1 50 1 20-9-23-7-20-10-27-9-26-3-6zm51 47m2 0m0 2-1 4v8h-1v16l3 10h1l-1-38zm-5 19 1 2zm-24 15 1 2z" fill="#CAC5C6"/>
<path transform="translate(631,283)" d="m0 0h25l28 1 12 2 7 4 6 9 4 13 1 10v19l-3 17-8 12 6 8 3 8 2 20 1 50 5-32 20-140 1-1h5l-1 12-4 26-7 49-2 16-6 36-5 32v4h-2l-1 6-1 2h-33l-2-3-1-61-1-17h-3l2 3 1 22v56l-4-2-1-11-1-57-2-10-2-3-6-1-1 84h-31l-1-1zm4 3v178l2 1h24l1-46v-39l16 2 4 1 3 11 1 70 26 1 1-5v-25l-1-34-2-15-4-10-5-5v-3l5-4 4-9 2-10v-25l-2-13-4-10-7-8-10-3z" fill="#ECEAEA"/>
<path transform="translate(1111,32)" d="m0 0 26 1 7 18 15 41 8 16 3 10-1-11v-74l5-1 24 1v182h-21l-3-3-13-35-7-18-10-30-2-5 2 10 8 24 18 47 3 9-5-1-4-8-11-30-9-26-2-3v67l-2 2h-27l-2-2-1-16v-164zm5 3-1 1v177h25v-67l-1-25v-14l6 16 10 29 13 36 8 21 2 4h19v-177l-1-1h-23v69l1 33-8-20-13-36-15-43-2-3zm24 84 1 2zm1 23 1 2z" fill="#FAFAFA"/>
<path transform="translate(562,32)" d="m0 0h38l32 1 1 7-1 20h-32v47l31 1v26l-5 1h-26v52h22l12 1v27h-66l-2-2-1-15-1 15h-3l-1-1v-179zm9 3v178h61v-23l-2-1h-32v-56h31v-23l-7-1h-23l-1-51h33v-23z" fill="#F2F1F2"/>
<path transform="translate(478,533)" d="m0 0h12l17 1 10 3 9 6 7 10 4 11 1 5 1 35v25l-1 52-3 14-5 10-9 10 1 4 11 12 1 4-8 8-6 5-4-1-1-3-4-2h-1l1 5-5-3-9-9-7-8-7-7-18-6-9-7-7-14-2-12-1-15v-87l2-17 4-11 5-7h2l2-4 8-5zm13 3-10 2-9 5-7 6-6 12-2 10v106l2 15 4 9 7 8 7 6 10 5v-2l6 2 8 8 6 5 7 8 5 5 11-9 2-3-8-10-6-7 2-4 8-8 5-9 3-10 1-8v-99l-2-16-4-9-6-9-6-5-11-4zm-18 1m-2 1m-5 3m-1 1m-5 6m-2 5 1 2zm-4 9m-1 3 1 2zm38 156m1 1 2 4 6 5-2-4zm8 9 3 3-1-3zm4 4m1 1m1 1 1 3v-3z" fill="#F1EFF0"/>
<path transform="translate(391,282)" d="m0 0h32l10 3 9 7 4 5 4 8 1 14v26l-1 1h-26l-3-1-2-26-2-9h-8l-5 3 2-4 5-3h5l6 7 1 2 1 11v18l25-1v-18l-2-17-4-10-8-9-10-4h-20l-10 3-10 6-6 10-3 13v19l4 13 7 12 12 14 13 13 9 14 4 11v20l-4 8-5 3-7-1-5-5-2-8v-31l-26 1v24l3 17 6 12 5 6 6 4 12 3h12l12-3 9-6 6-10 3-9 1-6h1v7l-3 10-6 9-7 6-7 3-6 1h-20l-14-3-10-5-7-8-5-13-2-10-1-11v-23h5l1 28 3 16 4 10 5 7-6-12-3-11-2-18-1-20h17l14 1 2 1 1 27 2 13 5 2 2-5v-22l-4-11-6-9-12-13-9-10-8-10-7-13-3-12v-20l3-11 5-10 8-7zm-2 3m-2 1m-2 1-8 7-6 11-2 6v27l5 13 7 11 9 10v-3l-8-11-8-16-2-9v-16l3-12 4-8 5-7 3-3zm6 85m1 1 2 2v-2zm2 2m1 1m1 1 3 4-1-4zm5 4 1 4 7 8 8 16 1 5v19l-4 8 5-2 3-8v-16l-4-13-8-12-8-9z" fill="#EFEEEE"/>
<path transform="translate(368,535)" d="m0 0h6v72l1-72h47l19 1 1 2v11l-1 14h-33l1 47 30 1 1 1v25l-2 1-30-1v53h23l11 1 1 7v19l-1 1h-66l-2-3-1 2h-4l-1-3zm11 3v176l1 2 26 1h35v-24l-33-1-1-19v-37h31v-23h-31v-50l32-1 1-1v-22l-5-1zm-6 100v5h1v-5zm0 57v16l2 1-1-17z" fill="#F5F4F5"/>
<path transform="translate(1026,32)" d="m0 0h18l29 1 2 2 13 88 10 65 4 23-1 4h-27l-3-1-5-30h-1l4 27v3l-5-1-2-7-2-15v-8h-18l-1 12-2 19-6 1-26-1-1-4 8-48 9-61 8-56 2-11h-2l-3 21-8 55-8 53-5 31-3 18-5 1 1-13 11-72 14-93zm10 3-3 20-7 52-15 99v7h26l2-13 2-19h29l3 26 1 6h26l-10-67-15-102-2-9z" fill="#C8C3C5"/>
<path transform="translate(878,535)" d="m0 0h5l-1 8-4 19-3 17-5 25-2 14-2 7-1 14-3-1 1 6 1 5 7-40 12-65 2-9h22l17 1v182h-29l-1-1v-40l-1 37-1 3h-4l-1-5 1-51-10 48-2 8-2-1 12-59 9-54 3-9h1v28l-1 23-1 72 24-1 1-178-28 1-6-1-6 38-9 48-8 40h-3l-3-17 1-3 1-22 5-28 11-57zm16 98m0 3-1 4v20h1l1-9v-15zm-5 17 1 3z" fill="#D9D6D7"/>
<path transform="translate(1114,535)" d="m0 0h60l14 1 1 1v25l-1 1h-19v154l-1 1h-31l-1-1-1-85-1-15v99l-5 1-1-1v-152l-15-2zm5 3v23l21 1 1 154 2 1h23l1-1v-154h18l2-1v-23zm15 25-1 5v6l3 1v-11zm-1 12m2 2v6h1v-6zm0 19m-2 13m0 2 1 2z" fill="#C7C1C3"/>
<path transform="translate(917,283)" d="m0 0h5l1 7 2-7h25l39 1 1 2v23l-1 2h-30v-1h29v-24l-60 2v60l1 116h60v-23h-33l-1-1v-55l1-1h13v1h-12v53h19l14 1 1 1v25l-1 1h-65l-4-1h-3v-86l-1-46z" fill="#F6F5F5"/>
<path transform="translate(710,32)" d="m0 0 31 1 2 5 10 69 3 13 1-24 5-40 3-22 1-2h5l1 2-2 8-5 36-3 24v10l-1 11h-1l-1 7v19l5-49 7-55 2-12 5-1 25 1-1 14-11 78-12 84-2 6h-35l-3-2-8-48-13-80-8-48zm4 3 3 22 15 90 10 65 1 1h33l4-21 14-98 7-53v-6h-25l-3 23-10 81-3 26-1 4-3-23-6-48-9-63z" fill="#F0EFEF"/>
<path transform="translate(641,32)" d="m0 0h14l24 1 1 1v154h33l1 1v25l-1 1h-64l-4-2-3 1-1-1-1-18v-162zm4 2m1 1m4 0v178h62v-23h-34v-154l-1-1zm-4 2-1 1v90l1 10h1v-101z" fill="#E5E3E3"/>
<path transform="translate(920,30)" d="m0 0h11l13 2 10 4 5 5 5 8 4 14 1 9v22l-4 1-25-1-1-1-2-28-3-6 1 4 2 15 1 15h-5l-1-1-1-7-1-19-1-8-4-1 2-2 5-1 5 3 4 8 1 11v17h25l-1-24-4-17-4-8-5-5-7-4-10-2h-11l-12 3-8 5-6 7-4 8-1 4-1 18 2 14 8 16 8 10 10 10 6 5 8 10 6 12 2 8v17l-3 8-4 4-6 1-5-3-2-4 6 2h2l1-11v-12l-2-10-7-12-14-15-7-7-10-13-7-14-2-8v-25l3-12 4-7 7-7 5-3zm-16 5m-1 1m-2 1m-2 2-2 3h3v-3zm2 0m-5 3 1 2zm-1 2m-1 4m-2 1 2 3v-3zm0 3 1 2zm-2 3-1 4-1 26 2 8 1-4v-24l1-10zm1 38 1 2zm1 2 1 2zm2 6m1 1m2 4m16 23m12 8 1 2zm1 2m1 1 2 3v-3zm2 3 2 2v-2zm3 2-1 2 3 4 1-2zm2 6 1 2 1-2zm1 2 2 15v9l-2 11h2l2-3 1-5v-16l-3-11z" fill="#F2F1F2"/>
<path transform="translate(652,535)" d="m0 0h23l13 1 1 1v181h-32l-2-2-1 1h-5l-1-1 1-27 3-50zm8 3-1 3 1 174 1 2h26v-179z" fill="#EBE9EA"/>
<path transform="translate(398,30)" d="m0 0h18l14 3 10 6 6 9 4 12 1 8v26l-19 1-11-1-2-27-2-7-1-1h-8l-3 1 1-3 4-2h6l5 4 2 5 1 13v16h26l-1-22-3-16-6-12-7-6-8-3-5-1h-13l-13 4-9 6-6 10-3 11v21l4 13 7 11 8 10 12 12 11 14 5 10 2 7 1 13-2 10-6 7h-8l-5-4 1-2 6 2 1-6v-21l-4-11-5-8-11-12-7-8-9-10-8-13-4-11-1-5v-21l4-13 6-9 6-5 6-3zm-11 5m-2 1-8 7-7 13-1 4v27l7 16 8 11 3 2-1-4-2-1-6-11-4-9-2-10v-14l4-16 6-9 5-6zm2 80m1 1 2 2v-2zm2 2m1 1m1 1m1 1m1 1m4 4 1 2zm2 3m1 1 2 2v-2zm3 2m-3 2m3 0m2 0-1 2 3-1zm1 3m1 1m2 1-1 2 2 2 1-3zm2 3-1 2 5 10 2 8v19l-3 7 4-2 3-7v-17l-5-14-4-6z" fill="#CCC7C8"/>
<path transform="translate(512,33)" d="m0 0h36l1 1v181h-33l-2-2-3 1-1-4 3-77-17-2v-1h23l1 18v64l27 1v-178h-27v71l-1 1h-15l-8-1-1-1v-70h1v67h2v2l15 1z" fill="#EBE9EA"/>
<path transform="translate(33,25)" d="m0 0h13v1l-9 2-5 5-2 3-1 9-2 146-1 49-1 149-2-2v-139l-2-54-1-58v-98l3-7 6-5z" fill="#FCFCFC"/>
<path transform="translate(495,559)" d="m0 0 7 1 6 7 1 4v109l-2 9-4 5-2 1h-8l-5-4v-2l8 2 1-8 1-47v-26l-1-48-6 2-3 5-1 6v111h-1l-1-6-1-33v-69l2-10 4-6zm6 5m0 2m4 15v73h1v-73zm-2 73-1 32 3-1v-26l-1-5zm0 33 1 3z" fill="#EDECEC"/>
<path transform="translate(573,306)" d="m0 0h5l5 5 3 5 1 8v88l-1 20-4 8-5 4h-6l-5-3-3-5-2-17v-94l2-10 3-3-2 11v102l2 12 6 3 2-8 1-12v-99l-3-11-5 1 1-3zm3 4 3 8 1 7v83l-1 21-1 10h2l2-6 1-24v-87l-2-8-3-4z" fill="#E6E4E4"/>
<path transform="translate(814,32)" d="m0 0h40l25 1v26l-1 1-32-1v48h14l17 1v26h-31v53h32l2 1 1 26-15 1h-50l-4-2v-180zm3 2-1 2v174l1 3h62v-23h-34v-56l30-1 1-2v-21l-1-1h-31l1-50 32-1 1-9v-14l-16-1z" fill="#EBE9EA"/>
<path transform="translate(749,283)" d="m0 0 40 1 2 10 15 102 10 62v8h-29l-2-6-4-26 1 13 2 18h-5l-2-9-2-16v-6h-18l-1 13-2 18-1 1h-30l-1-1 1-12 10-65 13-93 2-11zm30 3-29 1-7 54-16 114v9l10 1h15l4-31 28-1 1 1 3 27 1 3 2 1h24l-5-34-15-99-6-41-1-5z" fill="#ECEAEA"/>
<path transform="translate(1249,55)" d="m0 0h12l6 4 3 5 1 5v110l-3 9-7 4h-12l-1-1-1-30v-103zm1 1-1 1v132l3 1 4-2 4-8 1-7v-99l-2-9-3-7zm11 3 3 9 1 11v96l-2 10-2 3 4-2 2-3 1-5 1-43v-37l-1-25-3-12z" fill="#E5E2E3"/>
<path transform="translate(478,533)" d="m0 0h12l17 1 10 3 9 6 7 10 4 11 1 5 1 35v25l-1 52-2 10h-1l1-13v-99l-2-16-4-9-6-9-5-4-11-4h-17l-10 2-9 5-5 3v-3l5-6-6 4h-2l-2 4-7 12-2 9-1 9v96l3 21 6 14 6 7-5-2-6-5-7-14-2-12-1-15v-87l2-17 4-11 5-7h2l2-4 8-5z" fill="#CBC6C7"/>
<path transform="translate(708,535)" d="m0 0h33l19 1 10 2 9 6 6 9 5 15 1 6v34l-1 6h-1v-36l-3-16-7-14-7-6-4-2-17-1h-36l-3 1-1 177h27v-69l1-2 23-1 11-4 7-5-2 4-8 5-7 2h-23v71h-32l-2-4v-129l1-49z" fill="#CBC6C8"/>
<path transform="translate(391,282)" d="m0 0h32l10 3 9 7 4 5 4 8 1 14v26l-1 1h-26l-3-1-2-26-2-9h-8l-5 3 2-4 5-3h5l6 7 1 2 1 11v18l25-1v-18l-2-17-4-10-8-9-10-4h-20l-10 3-8 5-3-1v-3l-6 5-6 11-2 6v27l5 13 7 11 11 12 15 16 8 14 3 10v19l-3 6-3 1v-28l-4-11-6-9-12-13-9-10-8-10-7-13-3-12v-20l3-11 5-10 8-7z" fill="#CCC7C8"/>
<path transform="translate(943,535)" d="m0 0h48l16 1v27h-33l1 5v42l29 1 2 5-1 21-1 1h-13v-1l12-1v-22l-30-1-1-28v-22l1-1h32v-25l-37 1h-23v178l62 1v-24h-33l-1-1-1-31v-22l1-3h16v1h-15l1 5v48h22l11 1 1 7-1 20h-65l-1-1v-179z" fill="#FAFAFA"/>
<path transform="translate(1218,32)" d="m0 0h33l17 1 12 3 9 6 6 9 4 12 1 8v100l-2 15-4 11-6 8-6 5-7 3-5 1-21 1h-30l-2-2-1-180zm19 2-16 1v178h46l9-2 10-6 6-8 4-9 2-10 1-14v-75l-1-21-3-13-6-10-7-6-7-3-5-1-15-1z" fill="#D1CDCE"/>
<path transform="translate(1170,32)" d="m0 0 28 1v182h-21l-3-3-13-35-7-18-10-30-5-13v-7h2l10 29 17 47 9 24 1 4h19l-1-177-23-1 1 69 1 34-3-3-11-29-10-28-11-32 1-3 18 49 8 16 3 10-1-11v-74z" fill="#F5F4F5"/>
<path transform="translate(291,252)" d="m0 0h2l1 221-4-1-2-2-1-215z" fill="#C3BDBF"/>
<path transform="translate(1034,32)" d="m0 0 39 1 2 2 13 88 10 65 4 23-1 4h-27l-3-1-5-30h-1l4 27v3l-5-1-2-7-2-15v-8h-18l-1 12-2 19-6 1-26-1-1-4 8-48 2-14h2l1-9 4-21h1v9l-12 79-1 7h26l2-23 2-9h29l2 11 2 15v6l25-1-8-52-17-116-2-9-37-1z" fill="#EFEEEE"/>
<path transform="translate(846,282)" d="m0 0h5l-4 2h3l6 1-3 2-10 5-8 9-3 4-1-5 4-7-8 11-3 8-1 6v105l2 14 5 12 7 11 3 4-5-2-8-7-6-12-3-11-1-7-1-61v-38l3-17 4-9 6-9 8-6zm-3 4m-2 1m-2 1-3 2v2l4-2 1-2z" fill="#CDC8CA"/>
<path transform="translate(404,60)" d="m0 0 1 2-1 3v15l5 10 15 16 7 7 11 14 8 16 3 11 1 15-1 14-3 11-5 10-7 7-8 4-14 2-15-1-16-4-9-6-6-10-4-13-1-5-1-15v-19h29l9 1 1 1 1 28 1 12-2-2-1-5v-32l-26 1v24l3 17 7 14 8 7 10 4 11 1 13-2 10-5 7-8 5-13 1-6v-25l-2-9-8-16-10-14-12-12-7-8-6-8-4-7-1-4v-11zm-35 85-1 4 1 21 2 14 4 12 5 8 1-3-5-11-3-15-2-28zm12 59m1 1 1 3v-3z" fill="#F1EFF0"/>
<path transform="translate(453,283)" d="m0 0 69 1 3 1v2h-69v22h20l-4 2-2 154h-4v-154h-11l-3-2v-25z" fill="#C6C1C3"/>
<path transform="translate(1079,535)" d="m0 0h32v26l-1 1-1 155-1 1h-22l-4-9-9-24-11-30-10-29h-2v-5l-2-3v-8l3 1 14 40 19 53 4 11v2h19v-178l-25-1v51l-3-1v15l-2-4v-15l3-1v-2l-2-1 1-5v-3z" fill="#E3E0E1"/>
<path transform="translate(1014,535)" d="m0 0h4l1 5v153l-1 24h-4l-1-20v-146z" fill="#D3CED0"/>
<path transform="translate(625,761)" d="m0 0 26 1 5 3 4 6v12l-3 8-4 4-3 2 5 18h-5l-5-15-5-1 5 13v2l-4-1-3-9-1-4h-4l-1 13-1 2h-5l2-19h-6l-2 17-3 1v-9l4-28 3-15zm4 3-3 5-3 17v6l1 1h5l1-1 3-26-1-2zm8 4-3 17v7h7l3-3 2-6v-15zm11 0 1 11-3 10-1 3h6l3-4 2-8-1-8-4-4z" fill="#405084"/>
<path transform="translate(522,284)" d="m0 0h4l1 2v16h2l-1 5-2 5-4-1h-16v155h-32l-1-1v-155h4v154l27 1v-154l4-2h16l1-24z" fill="#EEEDED"/>
<path transform="translate(935,774)" d="m0 0 15 1 2 7-3 1-3 22-1 3 5-3 2-6 1-17 5-8 2 1-1 14-4 28-5 10-5 3-14-1-10-3-1-6h3l2 3 13-1 2-5-1-3-10-2-6-7-1-3v-14l4-10 4-3zm-2 3-5 5-3 9v10l4 6 3 3h2l-2-10v-7l4-13v-3zm9 4-6 7-1 4v10l2 4 4 1 3-10 1-16zm8 29-7 6-2 4v4h5l4-6 1-8z" fill="#3F4F84"/>
<path transform="translate(882,144)" d="m0 0h27l10 1 2 2 1 28 1 11-2-3-2-10v-26l-25 1v21l2 18 4 11 7 9 11 6 5 1h19l10-4 7-6 5-9 4-10 2-13h1v9l-3 12-5 10-6 7-10 5-4 1h-24l-13-3-3-2-4-1-8-7-5-11-2-9-2-26zm6 1v8h1v-8zm0 9m1 2v10h1v-10zm1 20v9h1v-9zm3 17m1 2 1 2z" fill="#EFEEEE"/>
<path transform="translate(210,205)" d="m0 0 6 2 27 16 14 7v3l-24 12-39 19-22 11-23 11-16 8-25 12-30 15-15 7-1-3 11-6 23-12 25-13 23-11 38-19 19-10 26-13 20-9 6-1-25-14-18-11z" fill="#FDFDFD"/>
<path transform="translate(284,774)" d="m0 0 16 1 8 7h1v-6h4l-5 37-4 11-5 5-2 1h-9l-13-3-4-3v-5l5 5 4-1 3-2 2 4 5-3 3-8-10-1-6-4-4-8v-12l4-10 4-4zm1 2-5 4-4 11v9l4 8 3 1v2h3l-2-8v-14l4-9v-4zm8 5-4 5-2 6v10l3 5h4l2-9 2-17zm7 2-2 21-2 5 7-2 2-4 1-6v-9l-4-5zm3 27-8 6-2 10 4-1 5-6 3-9z" fill="#3C4C82"/>
<path transform="translate(456,32)" d="m0 0h6l1 2v109l-1 70-5-1z" fill="#D1CDCE"/>
<path transform="translate(935,535)" d="m0 0h5l1 1-1 181-5-1z" fill="#D9D5D7"/>
<path transform="translate(1210,32)" d="m0 0h5l1 4-1 170-1 7h-4l-1-9v-166zm4 4m0 2 1 2z" fill="#CFCACC"/>
<path transform="translate(624,283)" d="m0 0h5v182h-5z" fill="#CDC8CA"/>
<path transform="translate(554,758)" d="m0 0 3 1-2 19 1 4-2 2-3 22-2 5h4l3-10 1-15 1-5 2-6 3-15 4-1-1 13-6 40-1 2-9 1h-17l-5-5-3-6-1-8 2-11 5-9 4-2 15 1 3-16zm-17 18-5 5-4 9v12l4 8 5 4 1-2-3-10v-10l3-8 2-4v-4zm8 5-5 6-2 7 1 12 2 3 5-1 2-6 1-7v-14z" fill="#4C5A8A"/>
<path transform="translate(741,283)" d="m0 0h5l-1 12-4 26-7 49-2 16-6 36-5 32v4h-2l-1 6h-1v-9l3-31 20-140z" fill="#CBC6C7"/>
<path transform="translate(701,535)" d="m0 0h4v154l-1 28-4-1v-180z" fill="#D8D4D5"/>
<path transform="translate(830,302)" d="m0 0 2 1-1 7-3 17v95l3 17 4 10 7 9 7 5 11 3 12-1 9-5 10-10 2 8 1 6h11v-97l-21-1v-1h23l1 1v99l-1 1h-15l-8-2-1-2-12 6h-13l-16-3-10-13-2-5-4-13-1-6-1-16v-85l2-16zm59 154-2 3 3 1z" fill="#F7F6F6"/>
<path transform="translate(793,535)" d="m0 0 5 1 1 80v36l-1 65h-5z" fill="#CDC8CA"/>
<path transform="translate(548,283)" d="m0 0 4 1-3 3-8 6-8 11-2 5-1 6-1 21v79l2 21 5 12 10 14-2 1-8-6-6-9-4-10-2-9-1-55v-48l1-14h2l3-11 4-6 4-5 8-6z" fill="#C9C4C6"/>
<path transform="translate(252,489)" d="m0 0 6 2 10 5v2l-16 8-19 9-16 8-51 25-52 26-46 22-1 1h-5v-2l56-28 19-10 46-23 23-11 42-21 13-5h4l-13-7z" fill="#CEC9CB"/>
<path transform="translate(702,32)" d="m0 0 6 1 8 50 8 47 6 38 6 36 1 10h-4l-3-10-19-118-8-49z" fill="#C8C3C5"/>
<path transform="translate(806,32)" d="m0 0 5 1 1 2v20l-1 11v146l-3 2-2-1z" fill="#CDC8CA"/>
<path transform="translate(24,433)" d="m0 0h1v178h1l2 78 1 25 2 11 7 2-4 1-9-4-4-6v-65l2-82z" fill="#FBFBFB"/>
<path transform="translate(1019,761)" d="m0 0h14l19 1v5l-1 1h-19l-3 17h9l9 1-1 5-18 1-2 16 5 1 15 1v5l-1 1h-16l-18-2 1-14 6-38zm3 4-2 4-2 15 3 2 4-1 2-13v-6zm-4 23-2 7-1 16 6-1 1-2 2-18-4-2z" fill="#445385"/>
<path transform="translate(368,535)" d="m0 0h6v180l-1 2h-4l-1-3z" fill="#C6C1C3"/>
<path transform="translate(425,774)" d="m0 0 19 1 4 6 3-6h3l-1 17-3 20-1 2-8 1h-12l-5-6-1-3v-16l5-13-5 2-4 7-1 3v14l4 8 4 4-5-1-5-5-3-8v-11l4-10 4-5zm8 7-5 7-1 3v13l3 5h5l3-9 1-7v-8l-1-4zm13 1-3 1-3 21-2 6 3 1 4-4 2-6 1-7v-10z" fill="#475688"/>
<path transform="translate(229,774)" d="m0 0 18 1 6 7 1-7h4l-1 11-3 21-3 6-6 2h-13l-4-5-2-5-1-10 2-8 5-10-5 1-4 6-3 10 1 9 4 8 4 4-5-1-5-5-3-7v-10l4-11 3-5zm8 7-5 6-2 5v11l3 6 5-1 3-8 1-7v-12zm8 1-1 17-3 12 5-1 4-8 1-5v-10z" fill="#465587"/>
<path transform="translate(43,761)" d="m0 0 16 1 8 2 1 7-8-2h-8l-2 2-1 6 2 6 11 6 5 6v10l-3 6-5 4-2 1h-11l-9-2-7-6-1-5 4 2 6 5 2-6 3 1 4 4h2l2-6v-11l-9-3-6-4-3-9 2-9 5-5zm3 2-5 3-3 8 2 9 5 3v-12l2-11zm9 28v16l-2 4 5-1 4-5v-8l-5-5z" fill="#435286"/>
<path transform="translate(631,283)" d="m0 0h25v1l-21 1v179h28v2h-31l-1-1z" fill="#EFEEEE"/>
<path transform="translate(902,32)" d="m0 0h7l-5 4-7 6-7 12-2 6v23l6 18 9 14 9 10 16 16 7 12 2 6 1 9v9l-2 10-5 1 1-11v-12l-2-10-7-12-14-15-7-7-10-13-7-14-2-8v-25l3-12 4-7 7-7z" fill="#CBC6C8"/>
<path transform="translate(1022,535)" d="m0 0h12l13 1 4 9 11 31 11 28-1-17v-52h6v80l2 7v-34h1l1-18h1l1 50 1 21-3-3-8-21-7-20-10-27-9-26-2-7h-21zm52 71 1 2z" fill="#EFEEEF"/>
<path transform="translate(1104,32)" d="m0 0h4l1 181-3 1-1-2-1-15-1-115v-49z" fill="#CBC6C8"/>
<path transform="translate(599,535)" d="m0 0h5l1 1v22l-2 127-2 6h-4l1-19z" fill="#D0CBCC"/>
<path transform="translate(788,759)" d="m0 0h4l-2 20-3 17 5-5 3-11 3-21h4l-1 13-1 7 6-5h2l-2 4-7 10-2 5 5-2 9-12 5-5 3-1-2 6-8 11-1 5 6 15 1 5-3 1-3-3-4-12-3-4-1 5 3 7v5l-4-1-1-8-4 9-4 1 2-11 1-6-5 1-1-1-2 15h-4l3-30z" fill="#4B598A"/>
<path transform="translate(547,535)" d="m0 0 4 1 1 141 3 17 7 14 4 6-5-2-5-5-4-5-4-11-1-8z" fill="#C4BEC0"/>
<path transform="translate(898,594)" d="m0 0h1v28l-1 23-1 72h-1l-1-66-1-11-1 20-2 57h-3l-1-5 1-51-10 48-2 8-2-1 12-59 9-54zm-4 39m-5 20 1 3z" fill="#EEEDED"/>
<path transform="translate(562,32)" d="m0 0 3 1-1 180h-3l-1-1v-179z" fill="#D1CDCE"/>
<path transform="translate(1136,562)" d="m0 0h4l1 22v132l2 1h-7z" fill="#C3BDBF"/>
<path transform="translate(768,324)" d="m0 0 3 1 7 49 4 32v5h-16l-8-1 2-19 6-46zm1 13-2 24-4 23-3 24 2 1h9l-2-24v-16l1-6 5 39 1 7h2l-1-17-5-34-2-21z" fill="#F1EFF0"/>
<path transform="translate(641,32)" d="m0 0h4l-1 181h-3l-1-18v-162z" fill="#C6C1C3"/>
<path transform="translate(1178,775)" d="m0 0h18l5 3 4 6 1 11-1 2h-22l3 10 4 2 7-1 5-2-1 5-4 4h-17l-6-4-5-8-1-3v-8l3-9 5-7zm3 2-5 4-4 9v3h5l4-6 3-7v-3zm12 3-8 4-1 8 6 1 2-1 1-8 3 9 5-1-1-8-4-4zm-21 14-1 5 5 9 6 5 1-2-5-15z" fill="#515F8F"/>
<path transform="translate(339,774)" d="m0 0 15 1 6 3 4 7 1 10-2 2h-22l2 8 5 4h7l6-3-1 4-5 5-8 1-9-1-6-4-5-8-1-9 3-11 7-8zm1 2-5 4-4 8v5l6-1 4-10 2-3v-3zm10 4 3 5 1 8 4 1 2-1-1-9-4-4zm-3 1-4 4-1 7h9v-8l-1-3zm-17 13 1 9 4 6 4 4 3-1-4-9-2-7-2-2z" fill="#566391"/>
<path transform="translate(290,523)" d="m0 0h3v102l-194-1v-1h189v-96z" fill="#C7C1C3"/>
<path transform="translate(1053,72)" d="m0 0 2 1 3 17 9 64v5l-5 1-18-1v-12l7-56 1-14zm0 17v18l1 1 2 18 4 28 1 4h2l-1-14-6-44-1-11zm-1 20-6 36-1 12h11l-3-34v-14z" fill="#EDECEC"/>
<path transform="translate(379,536)" d="m0 0h62l1 2v11l-1 14h-33l1 47 30 1 1 1v25l-2 1-30-1v53h23l11 1 1 7v19l-5 1 3-1v-24h-33l-1-1-1-19v-35l1-2h31v-23h-31l-1-4v-46l1-1 32-1 1-22h-51l-10-1z" fill="#E7E5E6"/>
<path transform="translate(512,33)" d="m0 0h35v2h-27v71l-1 1h-15l-8-1-1-1v-70h1v67h2v2l15 1z" fill="#E8E6E6"/>
<path transform="translate(800,41)" d="m0 0 2 4-7 51-14 100-3 18-1 1h-35l-3-2-8-48-6-38v-7l2 3 1 6h2l9 57 4 26 33 1 17-119z" fill="#E8E6E6"/>
<path transform="translate(739,559)" d="m0 0h13l5 3 3 5 2 18v13l-2 17-3 6-4 3h-14l-1-14v-49zm2 1-1 1v60h7l2-2h-2l3-6 1-7v-30l-2-14-6-2zm10 2 3 13v34l-2 10-2 1 5-1 2-6 1-6v-28l-3-14z" fill="#EEEDED"/>
<path transform="translate(1257,58)" d="m0 0 5 2 3 8 1 11v96l-2 10-5 3h-3l2-6 2-9v-107z" fill="#CCC7C9"/>
<path transform="translate(833,616)" d="m0 0h1l12 63 6 34v3h5v1h-7l-4-16-4-21 1 11 5 26-5-1-2-6-6-32-2-11v-19h1v-3l-1-11-1-5v-8zm3 35m1 3-1 7 2 12h1v-13l-1-6zm3 16m-1 5 1 2z" fill="#CEC9CB"/>
<path transform="translate(574,310)" d="m0 0 3 1 3 7 1 7v83l-1 21-2 10-5 1 1-8 1-12v-99z" fill="#C5C0C2"/>
<path transform="translate(917,283)" d="m0 0h5v110l-1 70-2 3-1-1v-86l-1-46z" fill="#BFBBBF"/>
<path transform="translate(691,775)" d="m0 0h12l7 6 2-6h3l-1 8-2 19-3 11-8 2h-11l-4-6-2-7v-10l4-11zm4 6-5 5-2 5v13l5 5 3-1 3-16v-11zm6 1v15l-2 10-2 4 6-2 3-4 2-7v-8l-2-5-3-3z" fill="#4B598A"/>
<path transform="translate(287,101)" d="m0 0h5l1 1 1 111h-4v-2l-3-1z" fill="#C3BDBF"/>
<path transform="translate(384,39)" d="m0 0 1 4-6 10-3 11v21l4 13 7 11 8 10 12 12 11 14 5 10 2 7 1 13-2 10-6 7h-8l-5-4 1-2 6 2 1-2v2l5-1 3-7v-17l-5-14-4-5-2-3-2-1-2-3-4-4 1-2-4-1-5-6-4-5v-2l-3-1-1-3-3-2-6-11-4-9-2-10v-14l4-16 6-9z" fill="#F3F2F2"/>
<path transform="translate(383,290)" d="m0 0 2 4-6 10-3 13v19l4 13 7 12 12 14 13 13 9 14 4 11v20l-4 8-5 3-7-1-5-5-2-8v-6h2l2 13 5 2 2-2 1 3 5-1 2-8v-16l-4-13-8-12-7-8h-3l-1-4-4-3v-2l-3-1-10-14-8-16-2-9v-16l3-12 4-8z" fill="#F1F0F0"/>
<path transform="translate(1129,775)" d="m0 0h15l5 3 3 4 1 3v18l-6 10-5 3h-7l-7-2-3 15-4 1 1-14v-11l2-5 3-24zm10 4-5 2-3 5-2 9v11l5 3 3 2h5l5-6 2-7v-10l-3-6-5-3z" fill="#475587"/>
<path transform="translate(498,564)" d="m0 0h2l2 3 1 5v107l1 2h-2l-1 10h-5l1-8 1-47z" fill="#CBC6C8"/>
<path transform="translate(1170,34)" d="m0 0h26v1h-23l1 69 1 34-3-3-11-29-10-28-11-32 1-3 18 49 8 16 3 10-1-11v-44z" fill="#C7C1C3"/>
<path transform="translate(33,25)" d="m0 0h13v1l-9 2-7 2-4 6-1 5-1 107-1 32-1 6h-1l-1-50v-98l3-7 6-5z" fill="#CEC9CB"/>
<path transform="translate(943,535)" d="m0 0h48l16 1v27h-33l1 5v42l29 1 2 5-1 21-1 1h-13v-1l12-1v-22l-30-1-1-28v-22l1-1h32v-25l-37 1h-23v178h12v1h-13z" fill="#CBC6C8"/>
<path transform="translate(663,306)" d="m0 0h14l5 3 3 7 1 7v18l-2 11-4 6-2 1h-16v-52zm1 2-1 18v30l4 1 4-1 3-10 1-8v-14l-2-13-2-3zm13 2 1 7v27l-1 12h2l2-8 1-9v-15l-2-12-1-2z" fill="#F2F1F2"/>
<path transform="translate(598,58)" d="m0 0h32v1l-30 1v47l31 1v26l-5 1h-26v52h22l12 1v27l-60-1v-1h58v-23l-34-1v-56h31v-23h-30l-1-1-1-49z" fill="#ECEBEB"/>
<path transform="translate(878,535)" d="m0 0h5l-1 8-4 19-3 17-5 25-2 14-2 7-1 14-3-1 1 6-1 14h-1l-2-14h1l1-22 5-28 11-57z" fill="#CBC6C8"/>
<path transform="translate(652,536)" d="m0 0h3v126l-1 4v51h-5l-1-1 1-27 3-50z" fill="#C5BFC1"/>
<path transform="translate(775,32)" d="m0 0 28 1-1 12h-1v-10h-25l-1 14-8 65-6 51-2 5h-1v-17l2-16 6-52 5-40 2-12z" fill="#F1F0F0"/>
<path transform="translate(708,535)" d="m0 0h33l19 1 10 2 9 6 6 9 5 15 1 6v34l-1 6h-1v-36l-3-16-7-14-7-6-4-2-17-1h-36l-3 1-1 26-3 1v92h-1l-1-22v-52l1-49z" fill="#E0DDDE"/>
<path transform="translate(749,283)" d="m0 0 26 1 13 1v1l-9 1h-29l-1 16-8 61-7 47-2 1-1 5h-1v-9l9-63 8-57z" fill="#D1CCCE"/>
<path transform="translate(1138,105)" d="m0 0 2 4v7l4 18 8 24 18 47 3 9-5-1-4-8-11-30-9-26-2-3v41l-1 6h-1l-1-47-1-25zm3 37 1 2z" fill="#CCC6C8"/>
<path transform="translate(1114,535)" d="m0 0h60l14 1 1 1v25l-1 1h-19v154l-1 1h-31v-1l29-1 1-154 15-1h5v-24h-31l-42-1z" fill="#FCFCFC"/>
<path transform="translate(914,536)" d="m0 0h10v182h-29l-1-1v-40l-1 37-2 3v-22l1-35h2v-8l2-1v66l25-1 2-179h-9z" fill="#FBFAFA"/>
<path transform="translate(1034,32)" d="m0 0 39 1 2 2 13 88 10 65 4 23-1 4h-27l-3-1-5-30v-3h4l2 11 2 15v6l25-1-8-52-17-116-2-9-37-1z" fill="#EAE8E9"/>
<path transform="translate(742,774)" d="m0 0 16 1 5 3 1 7-7-4-8 1-2 4-2 7v8l2 5 5 3h6l6-4-1 5-5 5-7 1-6-2-4-8-1-10 2-11 4-9-5 2-4 6-2 8v7l3 8 6 8-6-1-6-8-1-3v-15l5-10 3-3z" fill="#4A598A"/>
<path transform="translate(1218,32)" d="m0 0h33l17 1 12 3 9 6 6 9 4 12 1 8v100l-2 15-4 11-6 8-6 5-7 3-5 1-21 1h-30l-1-2 49-1 9-2 10-6 6-9 4-11 2-20v-75l-1-21-3-13-6-10-6-5-7-3-5-1-15-1-36-1z" fill="#F1F0F0"/>
<path transform="translate(141,775)" d="m0 0h11l5 3 4 5 2 7v9l-3 8-6 7-7 2-7-1-5-7-2-8v-7l4-11zm7 5-6 3-3 5-1 3v12l3 5 5 3 6-1 4-5 2-6v-11l-3-5-3-3z" fill="#505E8D"/>
<path transform="translate(1079,535)" d="m0 0h32v26l-1 1-1 155h-1l-1-178-25-1v51l-3-1v15l-2-4v-15l3-1v-2l-2-1 1-5v-3z" fill="#FAFAFA"/>
<path transform="translate(93,765)" d="m0 0h2l-1 11 6-1 2-9 4 1-1 8 7 2 1 3h-9l-4 31 8-1-1 4-1 1h-14l-5-4-1-2 1-15 2-14 1-2-4-1 4-2 2-9zm0 13-3 20v11l3 3 3-1 3-21v-9l-4-3z" fill="#52608E"/>
<path transform="translate(878,33)" d="m0 0h1v26l-1 1-32-1v48h14l17 1v26h-31v53l5 1h19l9 1v1h-34l-1-2v-54l1-1h30v-23h-29l-2-1v-50l1-1h32l1-23h-16v-1z" fill="#E3E1E2"/>
<path transform="translate(1269,765)" d="m0 0h2l-1 11 6-1 2-9h3v10l7 1 1 3h-10l-1 16-1 11-1 3h9l-1 4-1 1-17-1-3-3v-13l2-22 1-1 2-9zm0 14-2 12-1 16 1 3 4 1 2-3 2-19v-9l-1-1z" fill="#4B5A8A"/>
<path transform="translate(766,32)" d="m0 0h5l1 2-2 8-5 36-3 24v10l-1 11h-1l-1 7-2-1-1-14 2-29 7-52z" fill="#CCC7C9"/>
<path transform="translate(878,386)" d="m0 0 4 1v38l-2 9-4 6-4 3-6 1-6-3 1-2 5-1 3-7 2-15h2v-25zm-1 2-1 29-3 17-2 5 4-2 3-8 1-8v-33zm-7 51 1 2z" fill="#B8B6BE"/>
<path transform="translate(534,320)" d="m0 0h1v108l-1 3h-2l-1-4-1-13v-73l2-9h1z" fill="#C8C3C5"/>
<path transform="translate(881,775)" d="m0 0h16l6 3 1 2v19l-3 16-3 1-1-1 1-14 1-6v-12l-2-1h-9l-2 2-4 20-2 11-4 1 1-13 3-26z" fill="#515F8D"/>
<path transform="translate(485,775)" d="m0 0h16l5 3 3 6-1 15-3 16h-4l1-14 2-11v-8h-13l-3 9-4 24-4 1 1-16 3-24z" fill="#4B5A8A"/>
<path transform="translate(958,774)" d="m0 0 2 1-1 14-4 28-5 10-5 3-14-1-10-3-1-6h3l2 3 13-1 2-5 1-3 4 1-3 5-1 4 6-2 3-7v-4l-2-1 4-2-1-5 1-4 1-17z" fill="#556290"/>
<path transform="translate(183,534)" d="m0 0 3 1-21 11-5 5-46 23-46 22-1 1h-5v-2l56-28 19-10 16-8z" fill="#CFCACC"/>
<path transform="translate(210,205)" d="m0 0 6 2 27 16 14 7v3l-24 12-39 19-22 11-23 11-16 8-11 5-2-1 5-3 17-9 28-14 7-3 16-8 23-11 28-14 3-4 6-1-25-14-18-11z" fill="#C8C2C4"/>
<path transform="translate(1078,775)" d="m0 0h9l-1 4v10l7-9 3-5h4l-2 5-8 13v6l5 13 1 3-5-1-5-12h-2l-2 6 5 6h-4l-3-4-7 6-1-4 10-17 1-4h-2l-3-12z" fill="#596692"/>
<path transform="translate(1226,775)" d="m0 0 23 1-1 4-6 4-3 5-4 23-1 3h-4l2-17 1-15v-6l-3 1-4 25-2 10h-4l3-21 2-16z" fill="#CBCBD2"/>
<path transform="translate(1049,620)" d="m0 0h1l5 21 17 45 10 27v5l-4-1-7-18-16-44-4-20-1 10h-1z" fill="#C8C2C4"/>
<path transform="translate(674,383)" d="m0 0 5 5 1 22v56l-4-2-1-11-1-57-1-12z" fill="#CCC8C9"/>
<path transform="translate(931,54)" d="m0 0 5 2 4 6 1 3 1 11v17h25v-21h2v22l-4 1-25-1-1-1-2-28-3-6 1 4 2 15 1 15h-5l-1-1-1-7-1-19-1-8-4-1 2-2z" fill="#E7E4E5"/>
<path transform="translate(851,282)" d="m0 0h25l11 3 7 4 7 8 4 9 2 10 1 14v19l-1 1h-28l-2-1v-30h3 1l1 14v16l10-1h14l-1-25-2-14-5-12-5-6-10-5-6-1h-27l-4 1 1-3z" fill="#E7E5E6"/>
<path transform="translate(534,691)" d="m0 0 1 4-5 10-9 10 1 4 11 12 1 4-8 8-6 5-4-1-1-3-4-2h-1l1 5-5-3-9-9-7-8-4-6 1-3h5l9 9 7 6 7 8 4 4 11-9 1-2-8-10-6-7 2-4 8-8 5-9zm-43 30m1 1 2 4 6 5-2-4zm8 9 3 3-1-3zm4 4m1 1m1 1 1 3v-3z" fill="#F0EFEF"/>
<path transform="translate(288,657)" d="m0 0 5 1 1 47 1 17 1 4-4-1-4-4-2-5v-40l1-18zm1 1v31l1 26 1 7 2 1-2-42-1-23z" fill="#C4BFC2"/>
<path transform="translate(607,535)" d="m0 0h18v1l-16 1-1 75v72l-1 7-5 4-6 1-7-3-2-5 7 3 7-1 2-3 1 2 1-30 1-120z" fill="#FDFDFD"/>
<path transform="translate(557,536)" d="m0 0h29l1 151h-1l-1-5-1-144h-27v140h-1v-141z" fill="#CBC6C8"/>
<path transform="translate(1072,535)" d="m0 0h6l-1 75h-2l-2-9-1-14z" fill="#C7C2C4"/>
<path transform="translate(956,384)" d="m0 0h13v1h-12v53h19l14 1 1 1v25l-1 1h-54v-1l10-1h43v-23h-33l-1-1v-55z" fill="#ECEAEA"/>
<path transform="translate(828,595)" d="m0 0h2l3 15v11l-1 4v12l1 9v13l-2 9-1 50h-7v-1h5z" fill="#EAE9E9"/>
<path transform="translate(398,30)" d="m0 0h18l14 3 10 6 6 9 4 12 1 8v26l-19 1-11-1-2-27-2-7-1-1h-8l-3 1 1-3 4-2h6l5 4 2 5 1 13v16h26l-1-22-3-16-6-12-7-6-8-3-5-1h-27l2-2z" fill="#EFEDEE"/>
<path transform="translate(478,533)" d="m0 0h12l17 1 10 3 9 6 7 10 4 11 1 5 1 35v25l-1 52-2 10h-1l1-13v-99l-2-16-4-9-6-9-5-4-11-4h-29l-5 1-1-2z" fill="#F4F3F4"/>
<path transform="translate(522,284)" d="m0 0h4l1 2v16h2l-1 5-2 5-4-1h-16v153l-2 1v-154l4-2h16l1-24z" fill="#E7E5E6"/>
<path transform="translate(634,284)" d="m0 0h50l12 2 7 4 6 9 4 13 1 10v19l-3 17-8 12 5 6v2h-2l-6-7 1-4 5-5 4-10 1-7v-25l-2-13-4-10-6-7-10-3h-53z" fill="#F5F5F5"/>
<path transform="translate(364,395)" d="m0 0h5l1 28 3 16 4 10 7 10v2l3 1-3 1-8-6-5-7-5-15-2-17z" fill="#CCC7C8"/>
<path transform="translate(732,406)" d="m0 0h1v13l-6 45 25 1 1-16 2-15 1-1h19v1h-18l-1 13-2 18-1 1h-30l-1-1 1-12 6-39 2-2z" fill="#F1F0F0"/>
<path transform="translate(428,284)" d="m0 0 6 2 8 6 4 5 4 8 1 14v26l-1 1h-26l-3-1-2-26-2-9h-8l-5 3 2-4 5-3h5l6 7 1 2 1 11v18l25-1v-18l-2-17-4-10-8-9-7-4z" fill="#E8E6E7"/>
<path transform="translate(364,144)" d="m0 0h5l1 26 2 14 4 12 7 11 5 5-5-1-7-5-6-10-4-13-1-5-1-15z" fill="#CBC6C7"/>
<path transform="translate(1162,32)" d="m0 0 5 1 1 2v11h-1v60l-2-1-3-10-1-13v-30zm4 3 1 2z" fill="#CDC8CA"/>
<path transform="translate(404,60)" d="m0 0 1 2-1 3v15l5 10 15 16 7 7 11 14 8 16 3 11 1 15-1 14-3 11-5 10-7 7-8 4-14 2-15-1-2-2 16 1 13-2 10-5 7-8 5-13 1-6v-25l-2-9-8-16-10-14-12-12-7-8-6-8-4-7-1-4v-11z" fill="#E7E5E6"/>
<path transform="translate(882,144)" d="m0 0 5 1 1 22 3 22 6 14 6 8-4-1-8-7-5-11-2-9-2-26z" fill="#C9C4C6"/>
<path transform="translate(833,616)" d="m0 0h1l12 63 6 34v3h5v1h-7l-4-16-4-21-2-15-2-5v-9l-3 1-2-18-1-5v-8z" fill="#CCC7C9"/>
<path transform="translate(648,32)" d="m0 0 29 1v1h-28v46l-1 57h-1l-1-91v75l-1 7h-1v-94z" fill="#FDFDFD"/>
<path transform="translate(1111,43)" d="m0 0h1l1 8 2 45v116h-1l-1-87h-2z" fill="#C3BDBF"/>
<path transform="translate(1053,72)" d="m0 0 2 1 3 17 9 64v5l-5 1-1-16-6-44v-11h-2z" fill="#F1F0F1"/>
<path transform="translate(725,120)" d="m0 0 2 3 1 6h2l9 57 2 14-1 11-2-3-10-62-3-19z" fill="#C9C4C6"/>
<path transform="translate(614,424)" d="m0 0 1 4-3 15-5 10-8 9-10 5-6 1h-20l-14-3-6-5-2-5-7-13-2-11h2l1-3 4 15 6 11 8 7 9 4 5 1h15l10-3 9-6 6-9 4-12 2-11z" fill="#ECEBEB"/>
<path transform="translate(863,364)" d="m0 0h14l7 1 21 1v1h-37l1 19 7 1-2 4-1 25h-1l-1-27-12-3v-21z" fill="#E9E6E7"/>
<path transform="translate(298,25)" d="m0 0h11v1l-8 2-5 4h-2l-2 7 1 3v27h-2l-1-9h2l-1-15-2 24-4-1v-25l2-10 5-6z" fill="#D1CCCE"/>
<path transform="translate(1270,69)" d="m0 0h1v110l-3 9-7 4h-12l4-3 8-2 4-2 2-7 1-42 1-1z" fill="#E1DEDF"/>
<path transform="translate(677,33)" d="m0 0 3 1v83l-1 72h33v1h-34z" fill="#E6E3E4"/>
<path transform="translate(920,30)" d="m0 0h11l13 2 10 4 5 5 5 8 4 14v9l-2-3-4-17-4-8-5-5-7-4-10-2h-11l-12 3-8 5-6 7-3 6-2-2v-3l-2-1 5-6 3-1v-3l4-2 3-3h2v-2z" fill="#F1F0F0"/>
<path transform="translate(768,341)" d="m0 0h1v12l-3 20-5 32-1 3 11 1-2-14-1-10v-16l1-10 2 4v31l2 14 1 2h-16l2-19 6-46z" fill="#F4F3F4"/>
<path transform="translate(1e3 536)" d="m0 0h2v27h-33l1 5v42l29 1 2 5-1 21-1 1h-13v-1l12-1v-22l-30-1-1-28v-22l1-1h32z" fill="#F3F2F2"/>
<path transform="translate(749,564)" d="m0 0h3l3 11v34l-2 8-1 2h-2l1 3 2 2h-14l1-2 6-1 3-8 1-7v-30z" fill="#C8C3C5"/>
<path transform="translate(804,536)" d="m0 0h36l2 8 10 53 6 32 1 3 2-2v16l-3-3-8-43-11-58-1-4h-34z" fill="#DFDCDD"/>
<path transform="translate(1019,761)" d="m0 0h14v1h-5v5l-6-1-3 17 2 2 3 1-1 4-5-1-3 22 6-1-1 5-9-1 1-14 6-38z" fill="#CBCBD3"/>
<path transform="translate(1140,43)" d="m0 0 2 2 12 34 8 20 5 9 3 12 1-1 1-9h1l1 16 1 2v10l-3-3-11-29-10-28-11-32z" fill="#EEECED"/>
<path transform="translate(130,290)" d="m0 0m-2 1h2l-1 3-8 4-3 3-40 20-15 7-1-3 11-6 23-12 25-13z" fill="#F0EFEF"/>
<path transform="translate(741,340)" d="m0 0 2 1-1 15-8 55-2 1-1 5h-1v-9l9-63z" fill="#CAC4C6"/>
<path transform="translate(1127,776)" d="m0 0h5l1 7-3 12-1 11h-2l-1 17-2 7h-3l1-14v-11l2-5z" fill="#435285"/>
<path transform="translate(43,761)" d="m0 0 16 1v1l-10 1-2 2-1-2-4 2-3 8 2 9 3 2 2-2 1 4 5 2 3 1 1 5v12l-3 4-4-1 3-7v-11l-9-3-6-4-3-9 2-9 5-5z" fill="#A2A7BD"/>
<path transform="translate(742,43)" d="m0 0 2 2 9 62 5 22v35h-1l-6-52-9-64z" fill="#E3E1E2"/>
<path transform="translate(884,365)" d="m0 0h23l1 1v99l-1 1h-13v-1l11-1v-97l-21-1z" fill="#FCFBFB"/>
<path transform="translate(307,809)" d="m0 0 1 4-4 11-5 5-2 1h-9l-13-3-4-3v-5l5 5 4-1 3-2 2 4 5-3 3-8 4 1-3 8-1 3 5-3 4-6 2-6h2z" fill="#505E8D"/>
<path transform="translate(407,637)" d="m0 0h1v53h23l11 1 1 7v19l-5 1 3-1v-24h-33l-1-1-1-19v-35z" fill="#E4E2E2"/>
<path transform="translate(956,309)" d="m0 0h2l-1 50h30l1 1v25l-1 1h-15v-1h14v-24h-31v-51z" fill="#F1EFF0"/>
<path transform="translate(926,284)" d="m0 0h63l1 2v23l-1 2h-30v-1h29v-24l-61 2z" fill="#D7D3D4"/>
<path transform="translate(625,761)" d="m0 0 10 1-3 4v-2l-4 2-4 20v6l5 1v5l-1-2h-6l-2 17-3 1v-9l4-28 3-15z" fill="#A3A6B9"/>
<path transform="translate(573,306)" d="m0 0h5l5 5 3 5v56l-3 1-1-51-2-8-2-3-4-1 1 7-2-3-1-4-5 1 1-3z" fill="#FAFAFA"/>
<path transform="translate(877,589)" d="m0 0h1v9l-13 66h-3v-18l2 3 6-34h2z" fill="#F2F1F1"/>
<path transform="translate(663,306)" d="m0 0h14l-3 1 4 5 1 5v27l-2 9-1 2h-4l2-17v-14l-1-7v-10h-10z" fill="#C6C1C3"/>
<path transform="translate(878,386)" d="m0 0 4 1v38l-2 9-4 6-4 3-6 1-6-3 1-2h10l4-4 2-6 1-8 1-33-2-1z" fill="#F5F4F4"/>
<path transform="translate(788,759)" d="m0 0h4l-2 20-3 17 5-5 2-3v10l-5 1-1-1-2 15h-4l3-30z" fill="#E5E2E3"/>
<path transform="translate(453,283)" d="m0 0 69 1 3 1v2h-69l-3-2z" fill="#C5BFC2"/>
<path transform="translate(1178,775)" d="m0 0h18v1l-10 2-2 1v-2l-6 3-5 10-1 3 6-1-1 4-5-2 1 7 5 8 4 3h3l3 3h-8l-6-4-5-8-1-3v-8l3-9 5-7z" fill="#B5B7C4"/>
<path transform="translate(892,776)" d="m0 0h8l4 4v19l-3 16-3 1-1-1 1-14 1-6v-12l-2-1v-2h-7l-1-3z" fill="#4B598A"/>
<path transform="translate(830,302)" d="m0 0 2 1-1 7-3 17-1 85h-1l-1-66-1-1v-18l2-16z" fill="#E2DFE0"/>
<path transform="translate(1249,55)" d="m0 0h12l6 4 3 5v71h-1l-2-62-3-12-6-2 3 7v8h-1l-2-9-2-7-8-1z" fill="#F7F6F6"/>
<path transform="translate(898,594)" d="m0 0h1v28l-1 23-1 72h-1v-102l-2-1 1-11z" fill="#C3BDBF"/>
<path transform="translate(895,651)" d="m0 0h1v66h16v1h-17l-1-1v-40l-1 37-2 3v-22l1-35h2v-8z" fill="#FDFDFD"/>
<path transform="translate(1119,775)" d="m0 0h5l-4 17-5 36h-4l3-25 4-26z" fill="#A2A7BC"/>
<path transform="translate(191,775)" d="m0 0h5l2 9-3 9-4 22h-4l1-12 2-15z" fill="#5D6A95"/>
<path transform="translate(1111,32)" d="m0 0 26 1 3 7-1 3-3-7h-20l-1 60h-1l-2-45v-8h-2v-10z" fill="#F5F4F5"/>
<path transform="translate(485,775)" d="m0 0h4l1 5 1 2-3 9-4 24-4 1 1-16 3-24z" fill="#485688"/>
<path transform="translate(1246,776)" d="m0 0h3l-1 4-6 4-3 5-4 23-1 3h-4l4-34h4v2h3l1-4z" fill="#4E5C8C"/>
<path transform="translate(973,636)" d="m0 0h16v1h-15l1 5v48h22l11 1v2h-34l-1-1-1-31v-22z" fill="#E8E6E7"/>
<path transform="translate(891,647)" d="m0 0h1v48l-1 22h-3l-1-5 3-60z" fill="#BEB9BD"/>
<path transform="translate(846,775)" d="m0 0 5 1-5 39-5-1 4-36z" fill="#3D4D82"/>
<path transform="translate(885,535)" d="m0 0h22l16 2v79h-1v-78l-28 1-6-1-1 7-2-4z" fill="#CAC5C6"/>
<path transform="translate(425,774)" d="m0 0 13 1v1l-9 2-1 2v-3l-5 2-4 7-1 3v14l4 8 4 4-5-1-5-5-3-8v-11l4-10 4-5z" fill="#DBDADF"/>
<path transform="translate(742,774)" d="m0 0 16 1v1l-11 1-1 2v-3l-5 2-4 6-2 8v7l3 8 6 8-6-1-6-8-1-3v-15l5-10 3-3z" fill="#A9ABBC"/>
<path transform="translate(1134,573)" d="m0 0 2 4 1 14-1 6 1 4v40l-2-2-1-22-1-4v-39z" fill="#FDFDFD"/>
<path transform="translate(1066,181)" d="m0 0h4l2 11 2 15v6h26v-2h2l-1 4h-27l-3-1-5-30z" fill="#EFEEEE"/>
<path transform="translate(1298,164)" d="m0 0h1v17l-4 14-6 9-7 6-7 3-5 1-21 1h-30l-1-2 49-1 9-2 10-6 6-9 4-11z" fill="#E7E5E6"/>
<path transform="translate(935,774)" d="m0 0 9 1-4 2h-2l-1 3-1-3-6 3-4 11v10l4 6 4 2 2 3h-7l-6-7-1-3v-14l4-10 4-3z" fill="#BFBFCB"/>
<path transform="translate(535,774)" d="m0 0 10 1-5 5v-4l-6 2-2 4-3 8v12l4 8 5 5h-5l-5-5-3-6-1-8 2-11 5-9z" fill="#D0CFD5"/>
<path transform="translate(403,313)" d="m0 0 1 4v13l3 8 3 4v2h2l7 8 12 13 8 9 8 14 4 9-1 4-7-16-10-14-12-13-7-7-7-9-5-9-1-4v-11z" fill="#E5E2E3"/>
<path transform="translate(599,187)" d="m0 0h23l12 1v27l-60-1v-1h58v-23l-33-1z" fill="#E2DFE0"/>
<path transform="translate(930,57)" d="m0 0 4 4 2 8 2 24h-5l-1-1-1-7z" fill="#CFCACC"/>
<path transform="translate(778,432)" d="m0 0h6l-4 1 4 28v4h-5l-2-9-2-16v-7z" fill="#CAC6CA"/>
<path transform="translate(844,134)" d="m0 0h2v53l5 1h19l9 1v1h-34l-1-2z" fill="#D8D4D5"/>
<path transform="translate(291,252)" d="m0 0h2l-1 61-1 20h-1l-1-57v-23z" fill="#FBFBFB"/>
<path transform="translate(229,774)" d="m0 0 11 1-8 4v-2l-5 1-4 6-3 10 1 9 4 8 4 4-5-1-5-5-3-7v-10l4-11 3-5z" fill="#D7D5DA"/>
<path transform="translate(284,774)" d="m0 0 16 1v1l-9 1-3 2v-3l-6 3-4 8-1 4v9l4 8 2 1v2l4-1 1 2-5 1-6-4-4-8v-12l4-10 4-4z" fill="#C0C0CA"/>
<path transform="translate(513,134)" d="m0 0h1v76l-1 4h-2l-1-4z" fill="#C3BDBF"/>
<path transform="translate(290,658)" d="m0 0h3l1 47 1 17 1 4-4-1-2-1v-9h1l1 7-2-41z" fill="#DFDCDD"/>
<path transform="translate(1041,181)" d="m0 0h25l-1 3 4 27v3l-5-1-2-7-1-24h-20z" fill="#C7C1C3"/>
<path transform="translate(289,102)" d="m0 0h3v68l-1 8h-1l-1-56z" fill="#FDFDFD"/>
<path transform="translate(686,774)" d="m0 0h3v2l-5 2-2 4-3 8v11l3 7 5 5 1 2-6-1-6-7-2-7v-8l4-11 5-6z" fill="#C6C4CB"/>
<path transform="translate(1068,773)" d="m0 0 3 1 8 20-4 6-10 14-4 1 4-8 7-11v-7l-4-12z" fill="#E1DFE1"/>
<path transform="translate(869,309)" d="m0 0 4 4 1 5 1 30-5 1-1-27z" fill="#C6C1C3"/>
<path transform="translate(413,59)" d="m0 0 3 1 1 2 1 9v22l-4-1-1-2-1-30z" fill="#C8C5C9"/>
<path transform="translate(413,311)" d="m0 0 3 1 1 2 1 9v21l-4-1-1-1-1-30z" fill="#BEBCC5"/>
<path transform="translate(1050,631)" d="m0 0 2 4 3 13-1 4-1-5h-2l1 70-1 1h-29v-1l27-1z" fill="#F9F9F9"/>
<path transform="translate(411,306)" d="m0 0h5l6 7 1 2 1 11v19h-3l-2-26-2-9h-8l-5 3 2-4z" fill="#EFEDEE"/>
<path transform="translate(1269,765)" d="m0 0h2l-1 11h5l-3 1v2h-3l-2 25h-1l-1 8-2-1v-13l2-22 1-1 2-9z" fill="#B5B5C2"/>
<path transform="translate(873,774)" d="m0 0 4 1-4 18-3 20-1 2-3-1 2-18 3-19z" fill="#B5B7C5"/>
<path transform="translate(21,653)" d="m0 0h1l2 33 1 37-3-3-1-2z" fill="#C3BDBF"/>
<path transform="translate(606,659)" d="m0 0 2 4v21l-1 7-5 4-6 1-7-3-2-5 7 3 7-1 2-3 1 2 1-29z" fill="#FDFDFD"/>
<path transform="translate(770,369)" d="m0 0 2 4 4 29v8h5l1-4v5h-16v-1l7-1-2-6-1-9z" fill="#BAB6BC"/>
<path transform="translate(185,265)" d="m0 0m-1 1m-3 1h3v2l-16 8-29 14-17 8-2-1 5-3 17-9 28-14 7-3z" fill="#C3BDBF"/>
<path transform="translate(183,774)" d="m0 0 4 1-2 13-5 25-3 1v-8l5-31z" fill="#A6A9BB"/>
<path transform="translate(135,774)" d="m0 0h5l-4 3-4 4-4 10v10l5 10 5 4-6-1-6-7-3-9 2-12 5-9z" fill="#B7B8C5"/>
<path transform="translate(634,284)" d="m0 0h50l9 1v2h-57z" fill="#C6C0C2"/>
<path transform="translate(475,775)" d="m0 0h5l-1 7-4 18-2 13-3 2-1-4z" fill="#7981A2"/>
<path transform="translate(290,523)" d="m0 0h3l-1 64-1 10h-1l-1-73z" fill="#FBFBFB"/>
<path transform="translate(1054,108)" d="m0 0h1l2 18 4 28 1 5-7 1-11-1v-1h14l-2-8-2-17z" fill="#C3BDBF"/>
<path transform="translate(379,536)" d="m0 0h61v3h-51l-10-1z" fill="#C3BDBF"/>
<path transform="translate(398,30)" d="m0 0h18l14 3 10 6 6 9 4 12v11h-1l-3-16-6-12-7-6-8-3-5-1h-27l2-2z" fill="#E8E6E6"/>
<path transform="translate(93,765)" d="m0 0h2l-1 11 4 1h-2l-1 2-2-1-1 12-1 8-2-1-1 14-2-2 1-15 2-14 1-2-4-1 4-2 2-9z" fill="#C5C6D1"/>
<path transform="translate(436,779)" d="m0 0 5 1 4 2-2 1-1 15-2 9-1 4h-7l-1-2h4l3-16v-12l-4-1z" fill="#C7C3C8"/>
<path transform="translate(891,50)" d="m0 0h2v3l2-1-2 21-1 12-2-1v-19l2-10h-2l-1 25-2 3v-23z" fill="#F7F6F6"/>
<path transform="translate(838,774)" d="m0 0h2l-1 14-4 26-3 1 1-15 4-25z" fill="#D0CFD5"/>
<path transform="translate(547,779)" d="m0 0h4l1 2 3 2-2 7-2 16-2 5h-6l-1-2 3-1 2-6 2-21-4-1z" fill="#E5E2E3"/>
<path transform="translate(487,718)" d="m0 0h5l-3 1 14 16 5 5 3 4-1 3-8-7-14-15-2-5z" fill="#CEC9CA"/>
<path transform="translate(877,319)" d="m0 0h3 1l1 14v16h-5z" fill="#C7C1C3"/>
<path transform="translate(1082,570)" d="m0 0h1l1 63h-1l-1-12-2-3v-30h1z" fill="#D4D0D1"/>
<path transform="translate(239,779)" d="m0 0 5 1 2 2-1 17-2 8-2 4-7-1 4-3 3-14 1-12-4-1z" fill="#D9D5D6"/>
<path transform="translate(763,537)" d="m0 0 7 1 9 6 6 9 5 15 1 6v34l-1 6h-1v-36l-3-16-7-14-7-6-9-4z" fill="#DCD9DA"/>
<path transform="translate(939,105)" d="m0 0 4 2 7 8 10 13 8 16 3 10v9h-1l-4-16-8-16-8-12-11-12z" fill="#F0EFF0"/>
<path transform="translate(295,779)" d="m0 0 5 1 2 3h-2v14l-2 10v3l-3 1-2-1v-2l-3-1h4l1-9 2-14 1-3h-5z" fill="#D1CCCE"/>
<path transform="translate(1080,549)" d="m0 0h2v40l-3-1v15l-2-4v-15l3-1v-2l-2-1 1-5v-3z" fill="#FDFDFD"/>
<path transform="translate(890,450)" d="m0 0 2 2 2 14-10-2-1-2-12 6-5-1v-1l8-2 10-6zm-1 6-2 3 3 1z" fill="#E0E0E5"/>
<path transform="translate(851,282)" d="m0 0h25l11 3 7 4 7 8 2 6h-2l-6-10-9-6-9-2h-27l-4 1 1-3z" fill="#E4E2E3"/>
<path transform="translate(736,376)" d="m0 0 2 1-1 15-3 19-2 1-1 5h-1v-9l5-31z" fill="#D0CBCD"/>
<path transform="translate(945,778)" d="m0 0 3 3 3 2h-2l-3 22-1 3 2 1-4 3h-2l1-4-2-1 3-10 2-16-3-1z" fill="#D6D3D6"/>
<path transform="translate(864,307)" d="m0 0h9l6 6 1 3v11h-1l-1-7-1 6h-1l-1-11-1-3-2 1-2-3-2 3v-4l-7 3-3 8-1 8-2 1v-9l3-7 4-5z" fill="#EFEDEE"/>
<path transform="translate(489,719)" d="m0 0 5 1 7 7 7 6 7 8 4 4 5-2-4 5-4-1-1-3-4-2-5-5-4-2v-3l-5-5-6-5-2-1z" fill="#F3F2F3"/>
<path transform="translate(638,767)" d="m0 0h11l1 12-3 10-1 2 4 2-9 1h-6l-2-1 1-3v2l9-1 2-8 1-15h-8z" fill="#DEDDE0"/>
<path transform="translate(534,428)" d="m0 0 2 2 3 13 6 11 7 6-4 2-6-5-8-15-2-11h2z" fill="#F1F0F0"/>
<path transform="translate(1114,536)" d="m0 0h42l31 1v1l-73 1z" fill="#C3BDBF"/>
<path transform="translate(697,779)" d="m0 0 6 2-1 2v14l-2 10-3 4 2 1-5-1-3-3h4l3-16 1-11-4-1z" fill="#CCC7C9"/>
<path transform="translate(990,456)" d="m0 0h1v9l-1 1h-54v-1l10-1h43v-7z" fill="#E6E4E5"/>
<path transform="translate(535,305)" d="m0 0 2 1-1 11-1 3-1 43h-1l-1-29h-1v-13l3-14z" fill="#F9F9F9"/>
<path transform="translate(907,33)" d="m0 0h12l-3 2-10 5-7 8-3 6-2-2v-3l-2-1 5-6 3-1v-3l4-2z" fill="#E5E3E3"/>
<path transform="translate(879,572)" d="m0 0h1l1 10-2 10-2 3-4 18-2 2 1-11 6-31z" fill="#D2CECF"/>
<path transform="translate(970,172)" d="m0 0h1v9l-3 12-5 10-6 7-10 5-4 1h-19v-1l18-1 10-4 7-6 5-9 4-10z" fill="#E2DFE0"/>
<path transform="translate(45,783)" d="m0 0 2 4 5 2 3 1 1 5v12l-3 4-4-1 3-7v-11l-9-3-2-5 3 1z" fill="#EDECEC"/>
<path transform="translate(956,309)" d="m0 0h2l-1 50h3v2h-5v-51z" fill="#F6F6F6"/>
<path transform="translate(850,284)" d="m0 0 6 1-3 2-10 5-8 9-3 4-1-5 5-8 5-4 2-2z" fill="#CCC7C9"/>
<path transform="translate(788,759)" d="m0 0h4l-2 20-3 16h-1v-20z" fill="#DDDADB"/>
<path transform="translate(497,782)" d="m0 0 2 1-1 12-3 18-3 2v-9l3-20z" fill="#EDEBEC"/>
<path transform="translate(620,782)" d="m0 0h1l1 11h7v5l-1-2h-6l-2 17-3 1v-9z" fill="#A6AABC"/>
<path transform="translate(556,284)" d="m0 0 6 1-3 2-8 4-7 6-6 11-2-2 1-5 7-10 9-6z" fill="#CEC9CA"/>
<path transform="translate(333,778)" d="m0 0v3l-4 10v11l2-2 4 8 4 4 5 1 3 2h-9l-6-4-5-8-1-9 3-11z" fill="#CFCFD6"/>
<path transform="translate(892,783)" d="m0 0 3 1-3 23-2 7-3 1 3-23z" fill="#D1CED0"/>
<path transform="translate(1265,797)" d="m0 0h1l1 13h4l2-2v2h12l-1 4-1 1-17-1-1-1z" fill="#9FA3B7"/>
<path transform="translate(844,680)" d="m0 0h1v5h2l5 28v3h5v1h-7l-4-16-3-16z" fill="#E6E3E4"/>
<path transform="translate(637,678)" d="m0 0h1l-1 14-5 12-7 8-5 4-7 3-5 1h-16v-1l14-1 10-3 9-6 6-8 4-11z" fill="#E8E6E7"/>
<path transform="translate(1117,538)" d="m0 0h2l-1 24h-5l1-23z" fill="#F8F8F8"/>
<path transform="translate(478,533)" d="m0 0h12l17 1 4 2-30 1-7 1-1-2z" fill="#EEEDED"/>
<path transform="translate(1139,140)" d="m0 0h2l1 7v40l-1 6h-1z" fill="#D8D5D6"/>
<path transform="translate(1019,761)" d="m0 0h14v1h-5v5l-6-1-3 17h-2v-15z" fill="#9CA0B5"/>
<path transform="translate(740,206)" d="m0 0 2 1 1 5h33l2-1-1 4h-35l-3-2z" fill="#E7E5E5"/>
<path transform="translate(973,636)" d="m0 0h16v1h-15l1 5-1 46h-1l-1-27v-22z" fill="#E4E2E3"/>
<path transform="translate(751,284)" d="m0 0h24l13 1v1l-9 1h-29z" fill="#C3BDBF"/>
<path transform="translate(878,33)" d="m0 0h1v26l-1 1-33-1v-1h32l1-23h-16v-1z" fill="#D7D4D5"/>
<path transform="translate(149,781)" d="m0 0 2 1 1 4v13l-3 7-1 2h-2l1-7 1-12z" fill="#EBEBEE"/>
<path transform="translate(422,357)" d="m0 0 7 6 10 11 8 14 4 9-1 4-7-16-10-14-11-12z" fill="#F4F3F3"/>
<path transform="translate(183,534)" d="m0 0 3 1-23 12-15 7-6 3-2-1 19-10z" fill="#FDFDFD"/>
<path transform="translate(749,283)" d="m0 0h9v1h-7l-3 26-2 1-1-10 3-17z" fill="#EAE8E9"/>
<path transform="translate(544,458)" d="m0 0 4 3 7 1 7 3 5 1 16 1v1h-20l-14-3-6-5z" fill="#F5F4F4"/>
<path transform="translate(1139,781)" d="m0 0 3 2 1 6v9l-2 7-4 4-1-3 3-8z" fill="#E7E5E5"/>
<path transform="translate(1068,773)" d="m0 0 3 1 8 20-4 6-3 1 2-5 1-2-3-11h-2l-2-6z" fill="#818AAB"/>
<path transform="translate(1187,536)" d="m0 0 2 1v25l-1 1h-19v-1l13-1h5z" fill="#E8E6E7"/>
<path transform="translate(451,432)" d="m0 0h1v7l-3 10-6 9-7 6-7 3h-9v-1l12-3 9-6 6-10 3-9z" fill="#EAE8E9"/>
<path transform="translate(585,284)" d="m0 0 9 1 9 6 7 11 4 11v5l-2-1-4-14-6-9-6-5-11-4z" fill="#E9E7E8"/>
<path transform="translate(846,775)" d="m0 0 5 1-2 15h-4l-1 2 1-15z" fill="#838AA8"/>
<path transform="translate(522,284)" d="m0 0h4l1 2v16h2l-1 5-2 5-3-1-13-1v-1h14l1-24z" fill="#EEEDED"/>
<path transform="translate(526,790)" d="m0 0h1v12h2l4 8 5 5h-5l-5-5-3-6-1-8z" fill="#8991AE"/>
<path transform="translate(693,286)" d="m0 0 6 1 5 4 6 10 3 11v10l-2-2-2-13-4-10-6-7-6-3z" fill="#EDEBEC"/>
<path transform="translate(275,787)" d="m0 0h1l1 13 4 8 2 1v2l4-1 1 2-5 1-6-4-3-5v-13z" fill="#878EAB"/>
<path transform="translate(764,373)" d="m0 0h1l-1 11-3 21-2 5-1-4 4-30z" fill="#EFEDEE"/>
<path transform="translate(1266,775)" d="m0 0 1 2v27h-1l-1 8-2-1v-13l2-22z" fill="#E5E3E4"/>
<path transform="translate(1229,775)" d="m0 0 17 1-4 4-1 3h-3v-2h-4l-1 2v-6l-3 1-1 5h-1v-6z" fill="#D6D4D8"/>
<path transform="translate(602,687)" d="m0 0 2 3 3-1-2 4-3 2-6 1-7-3-2-5 7 3 7-1z" fill="#EEEDED"/>
<path transform="translate(404,60)" d="m0 0 1 2-1 3v15l5 10 7 8-1 2-8-9-5-9-1-4v-11z" fill="#E5E3E4"/>
<path transform="translate(473,786)" d="m0 0h1v21l-2 7h-3l3-22z" fill="#B7B8C6"/>
<path transform="translate(229,774)" d="m0 0 11 1-8 4v-2l-5 1-4 6-1 3-3 1 1-7 3-5z" fill="#AFB0BE"/>
<path transform="translate(859,365)" d="m0 0h4v19l-2 3-2-1z" fill="#C3BDBF"/>
<path transform="translate(89,791)" d="m0 0h1l1 20h6v3l3 1h-8l-4-3-1-6z" fill="#8189A8"/>
<path transform="translate(446,283)" d="m0 0 5 1-1 15h-2l-3-7v-8z" fill="#CAC7CB"/>
<path transform="translate(869,795)" d="m0 0h2v12l-2 8-3-1 2-18z" fill="#A2A6BB"/>
<path transform="translate(503,800)" d="m0 0h2v2h2l-1 10-1 3h-4l1-14z" fill="#656F96"/>
<path transform="translate(633,797)" d="m0 0 12 1v1h-5l5 13v2l-4-1-3-9-1-4h-5z" fill="#CBCBD2"/>
<path transform="translate(502,687)" d="m0 0 4 2-2 4-3 2h-8l-5-4v-2l9 2h4z" fill="#F0EFEF"/>
<path transform="translate(718,439)" d="m0 0h1l-1 16-1 11h-5l1-9 2-1z" fill="#F9F9F9"/>
<path transform="translate(29,803)" d="m0 0 4 2 6 5 2-1v3l5 2v1l-9-1-7-6z" fill="#ADB2C6"/>
<path transform="translate(1050,631)" d="m0 0 2 4 3 13-1 4-1-5h-2v17h-1z" fill="#F4F4F4"/>
<path transform="translate(452,284)" d="m0 0 4 2-1 21-3-3z" fill="#FDFDFD"/>
<path transform="translate(939,185)" d="m0 0h2l-2 4-3 3-6 1-5-3-2-4 6 2 8-1z" fill="#E5E3E4"/>
<path transform="translate(923,792)" d="m0 0h1v9h2l4 6 4 2 2 3h-7l-6-7z" fill="#848CAB"/>
<path transform="translate(398,282)" d="m0 0h25l5 2-3 1h-26z" fill="#DAD6D8"/>
<path transform="translate(921,62)" d="m0 0 1 3v15l7 14-5-5-5-9-1-11z" fill="#EDEBEC"/>
<path transform="translate(554,758)" d="m0 0 3 1-2 16-5 1 3-17z" fill="#D7D5D9"/>
<path transform="translate(415,789)" d="m0 0h1l1 18 3 1 5 5 1 2-5-1-5-5-2-4v-11z" fill="#868DAA"/>
<path transform="translate(1172,801)" d="m0 0 3 4 4 5 3 2h3l3 3h-8l-6-4-3-4z" fill="#DDD9DA"/>
<path transform="translate(625,761)" d="m0 0 10 1-3 4v-2l-4 2-2 9-1-4h-2l1-9z" fill="#C4C4CE"/>
<path transform="translate(1082,536)" d="m0 0h24l2 1-1 2-25-1z" fill="#C3BDBF"/>
<path transform="translate(734,799)" d="m0 0 2 4 4 7 4 5-6-1-6-8v-3h2z" fill="#D1CFD4"/>
<path transform="translate(398,283)" d="m0 0 2 3-12 6h-4v-3l9-5z" fill="#CBC5C7"/>
<path transform="translate(337,776)" d="m0 0 2 1-6 8-2 4-1 14-2-1v-11l4-10 2-4z" fill="#4A5889"/>
<path transform="translate(538,447)" d="m0 0h3l6 9 5 5-4 1-6-5-4-7z" fill="#D9D6D7"/>
<path transform="translate(970,172)" d="m0 0h1v9l-3 12-5 10-3 1 2-5 5-11z" fill="#EEECED"/>
<path transform="translate(763,537)" d="m0 0 7 1 9 6 6 9 1 5-3-3-5-8-6-5-9-4z" fill="#ECEBEB"/>
<path transform="translate(684,462)" d="m0 0h2v2h18l8 1v1h-28z" fill="#E9E7E8"/>
<path transform="translate(845,798)" d="m0 0 1 4 1 1-1 12-5-1 1-12 2-1z" fill="#8086A3"/>
<path transform="translate(1224,793)" d="m0 0h3l-2 18-2 3-3-1 3-9z" fill="#A5A7BA"/>
<path transform="translate(745,307)" d="m0 0 2 4-1 15h-3v-11l1-7z" fill="#D3CFD0"/>
<path transform="translate(851,282)" d="m0 0h24v1l-12 1-1 1h-12l-4 1 1-3z" fill="#F5F4F4"/>
<path transform="translate(89,780)" d="m0 0h1l1 9v9l-2-1-1 14-2-2 1-15z" fill="#E2DFE0"/>
<path transform="translate(295,779)" d="m0 0 5 1 2 3h-2v14l-2 10-2 1-1-3 3-9v-15h-5z" fill="#F6F5F5"/>
<path transform="translate(292,705)" d="m0 0h2l1 17 1 4-4-1-2-1v-9h1l1 7z" fill="#DAD7D8"/>
<path transform="translate(755,137)" d="m0 0h3v27h-1l-2-18z" fill="#CEC9CB"/>
<path transform="translate(754,122)" d="m0 0h2l2 7v8l-2 2-2-3z" fill="#F5F4F4"/>
<path transform="translate(876,590)" d="m0 0h1l-1 10-4 15h-1l1-11 3-13z" fill="#D0CCCD"/>
<path transform="translate(455,287)" d="m0 0h1l1 22 10 1-1 2-11-1-3-2v-5l2 1z" fill="#D5D1D2"/>
<path transform="translate(1281,810)" d="m0 0h4l-1 4-1 1h-8l-3-2v-2z" fill="#54618E"/>
<path transform="translate(350,781)" d="m0 0 4 4 1 6-1 2h-13l-1-3 2-2v4h9z" fill="#D1D0D6"/>
<path transform="translate(290,38)" d="m0 0 2 1 1 3v27h-2l-1-9h2l-1-15z" fill="#F5F5F5"/>
<path transform="translate(217,793)" d="m0 0h1l2 13h2l4 6 3 3-5-1-5-5-2-8z" fill="#848CAB"/>
<path transform="translate(835,798)" d="m0 0h1v12l-2 5h-2l1-15h2z" fill="#A8ACBF"/>
<path transform="translate(135,774)" d="m0 0h5l-4 3-4 4-3 5-3 1 1-5 4-6z" fill="#C2C2CC"/>
<path transform="translate(239,779)" d="m0 0 5 1 2 2-1 17-2 8-1-3 1-8v-11l-1-4-4-1z" fill="#EDEBEC"/>
<path transform="translate(38,770)" d="m0 0 1 4 2 9 2 5-5-2-3-5 1-4z" fill="#9197B2"/>
<path transform="translate(1060,577)" d="m0 0 3 1 7 19-1 3-2-3-7-18z" fill="#E9E7E8"/>
<path transform="translate(785,798)" d="m0 0h1v15h-4l1-13z" fill="#ACADBD"/>
<path transform="translate(946,792)" d="m0 0h1v8l-2 8 2 1-4 3h-2l1-4-2-1 2-5 2 1z" fill="#ECEBEB"/>
<path transform="translate(620,782)" d="m0 0h1l1 11h7v5l-1-2h-6l-1 4v-4h-2z" fill="#E1DFDF"/>
<path transform="translate(924,782)" d="m0 0 3 3-2 16-3 1v-14z" fill="#CDCACE"/>
<path transform="translate(806,774)" d="m0 0h2l-2 4-6 8-2-2v-7l2 2z" fill="#B8B8C2"/>
<path transform="translate(183,774)" d="m0 0 4 1-1 8h-1l-1-5-2 14-2 2 1-13z" fill="#E9E7E7"/>
<path transform="translate(78,587)" d="m0 0 2 1-4 4-9 5h-5v-2z" fill="#DEDADC"/>
<path transform="translate(290,187)" d="m0 0h1l2 18v7l-3-1z" fill="#FDFDFD"/>
<path transform="translate(606,451)" d="m0 0v3l-7 8-10 5h-7v-1l10-3 9-6z" fill="#EFEDEE"/>
<path transform="translate(751,101)" d="m0 0h1l3 15-1 12h-1l-2-16z" fill="#E6E3E4"/>
<path transform="translate(921,819)" d="m0 0 4 4h5l-1 4 2 1-8-1-3-3z" fill="#C6C6CF"/>
<path transform="translate(797,803)" d="m0 0h2l-3 10-2 2h-3l2-11 1 2h2z" fill="#9197B0"/>
<path transform="translate(290,447)" d="m0 0h1l1 13 1 4v8h-3z" fill="#FBFBFB"/>
<path transform="translate(733,398)" d="m0 0 2 1-1 12-2 1-1 5h-1v-9l2-9z" fill="#D5D0D2"/>
<path transform="translate(398,30)" d="m0 0h16l-4 2-3 1h-14l2-2z" fill="#F7F7F7"/>
<path transform="translate(1019,761)" d="m0 0h14v1h-5v5l-7-1-1-2-2 3v-5z" fill="#E7E5E6"/>
<path transform="translate(1049,620)" d="m0 0h1l4 18-1 3-2-6-1 10h-1z" fill="#C3BDBF"/>
<path transform="translate(53,796)" d="m0 0h2v13l-2 2-4-1 3-7z" fill="#C9C7CC"/>
<path transform="translate(877,589)" d="m0 0h1v9l-3 15h-2l1-9z" fill="#E9E7E8"/>
<path transform="translate(76,317)" d="m0 0m-1 1m-2 1 5 1-3 2-12 6-1-3z" fill="#EBE9E9"/>
<path transform="translate(1021,123)" d="m0 0h1l-1 12-3 13h-1l1-12 2-12z" fill="#CBC6C7"/>
<path transform="translate(700,799)" d="m0 0h1l-1 8-3 4 2 1-5-1-3-3h4l2-8 2 3z" fill="#F3F2F2"/>
<path transform="translate(436,779)" d="m0 0 5 1 4 2-2 1v7l-5-5v-4l-4-1z" fill="#ECEAEA"/>
<path transform="translate(868,387)" d="m0 0h8l-2 4-1 25h-1l-1-27z" fill="#F8F8F8"/>
<path transform="translate(799,799)" d="m0 0 3 4 2 6v5l-4-1z" fill="#DBD8D9"/>
<path transform="translate(839,661)" d="m0 0 2 4 1 9-1 9-2-3 1-5h-2z" fill="#FDFDFD"/>
<path transform="translate(310,775)" d="m0 0 3 1-2 16h-1v-6h-2l1-10z" fill="#9A9CAF"/>
<path transform="translate(742,774)" d="m0 0 16 1v1l-11 1-1 2v-3l-5 2-1 2-3-1 2-4z" fill="#B9BAC6"/>
<path transform="translate(749,283)" d="m0 0h9v1h-7l-1 9-1 2h-2v-7z" fill="#F4F3F3"/>
<path transform="translate(1216,33)" d="m0 0 21 1v1h-16v5l-3 1v-7z" fill="#CDC8CA"/>
<path transform="translate(425,774)" d="m0 0 13 1v1l-9 2-1 2v-3l-5 2-4 2 3-5z" fill="#BBBDCB"/>
<path transform="translate(884,540)" d="m0 0 2 1v11l-2 7h-1v-15z" fill="#E7E5E6"/>
<path transform="translate(511,535)" d="m0 0 10 4 6 5v2l-4-2-8-5-7-2z" fill="#E7E5E6"/>
<path transform="translate(963,52)" d="m0 0h2l3 11v9l-2-3-3-14z" fill="#EFEDEE"/>
<path transform="translate(271,819)" d="m0 0 5 5h4l3 4h-6l-6-4z" fill="#C1C1CA"/>
<path transform="translate(940,814)" d="m0 0h5l-4 10 4 1-12-1v-1l5-1 2-5z" fill="#E7E4E5"/>
<path transform="translate(1139,781)" d="m0 0 3 2v14l-2 1z" fill="#DCD8D9"/>
<path transform="translate(91,774)" d="m0 0h1v16l-2-1v-11l-4-1 4-2z" fill="#9CA0B7"/>
<path transform="translate(475,775)" d="m0 0h5l-1 7-2 3v-7l-1 7h-2z" fill="#E3E1E2"/>
<path transform="translate(547,779)" d="m0 0h4l1 2 3 2-2 7h-1v-6h-2v7h-1v-10l-4-1z" fill="#E7E4E5"/>
<path transform="translate(538,774)" d="m0 0 7 1-5 5v-4l-6 2-3 6h-2l2-5 5-4z" fill="#9AA0B9"/>
<path transform="translate(860,630)" d="m0 0h1v16l-3-3v-11z" fill="#F6F6F6"/>
<path transform="translate(405,186)" d="m0 0 7 2 1-2v2l2 1 3 3h-8l-5-4z" fill="#EDEBEC"/>
<path transform="translate(1070,802)" d="m0 0 1 3-6 9-4 1 4-8z" fill="#9FA3B9"/>
<path transform="translate(881,775)" d="m0 0h16v1l-10 3-5-1z" fill="#C3BDBF"/>
<path transform="translate(849,760)" d="m0 0 4 1v6l-5 1v-7z" fill="#7F88A8"/>
<path transform="translate(440,379)" d="m0 0 3 1 8 17-1 4-7-16-3-4z" fill="#E9E7E8"/>
<path transform="translate(1097,194)" d="m0 0h2l2 12v5l-2 1-2-12z" fill="#E9E7E8"/>
<path transform="translate(953,36)" d="m0 0 5 3 6 10v3h-2l-4-8-5-5z" fill="#F4F4F4"/>
<path transform="translate(440,798)" d="m0 0h1l-1 9-1 4h-7l-1-2h4v-2h3z" fill="#F6F5F5"/>
<path transform="translate(202,775)" d="m0 0h4l-1 5-4 3h-2l2-7z" fill="#5B6690"/>
<path transform="translate(679,805)" d="m0 0 8 8 1 2-6-1-4-4z" fill="#C2C1CA"/>
<path transform="translate(676,791)" d="m0 0h1l1 9 1 1v7l-3-1-1-11z" fill="#556392"/>
<path transform="translate(844,680)" d="m0 0h1v5h2v11l-2-1-2-13z" fill="#F2F1F2"/>
<path transform="translate(573,306)" d="m0 0h5l1 2-4 1v8l-2-3-1-4-5 1 1-3z" fill="#E5E2E3"/>
<path transform="translate(293,814)" d="m0 0 4 1-4 9-4-1z" fill="#F0EFEF"/>
<path transform="translate(697,779)" d="m0 0 6 2-1 2v14h-1l-1-11-1-5-4-1z" fill="#F2F1F1"/>
<path transform="translate(686,774)" d="m0 0h3v2l-5 2-2 4-3-1 2-4z" fill="#B9B9C6"/>
<path transform="translate(254,775)" d="m0 0h4l-1 7-2 3h-2z" fill="#8389A7"/>
<path transform="translate(1129,775)" d="m0 0h15v1l-7 1-3 5-2-1v-5z" fill="#C6C0C2"/>
<path transform="translate(1084,775)" d="m0 0h3l-2 14-2-3-1-8-1-2z" fill="#EDEBEC"/>
<path transform="translate(229,774)" d="m0 0 11 1-8 4v-2h-6l-4 2 1-3z" fill="#E4E1E2"/>
<path transform="translate(788,759)" d="m0 0h4l-1 12-3-3z" fill="#DFDCDD"/>
<path transform="translate(882,459)" d="m0 0 2 1-2 3-11 5-5-1v-1l8-2z" fill="#EBE9EA"/>
<path transform="translate(307,809)" d="m0 0 1 4-2 4-4 4-1-2 3-8h2z" fill="#8388A3"/>
<path transform="translate(889,800)" d="m0 0h1l1 13-4 2z" fill="#ECEBEB"/>
<path transform="translate(550,784)" d="m0 0h2l-1 13-3 3 1-9z" fill="#C0BCC2"/>
<path transform="translate(676,353)" d="m0 0 2 3v2h-12l1-2h4l1-2 4 1z" fill="#FDFDFD"/>
<path transform="translate(788,777)" d="m0 0h1v9l-2 9h-1v-12z" fill="#989AAD"/>
<path transform="translate(497,782)" d="m0 0 2 1-1 12h-2v-12z" fill="#CFCDD2"/>
<path transform="translate(1246,776)" d="m0 0h3l-1 4-7 4 1-5z" fill="#37487F"/>
<path transform="translate(391,34)" d="m0 0m-2 1h6l-3 3-7 4 1-5z" fill="#D9D5D7"/>
<path transform="translate(295,798)" d="m0 0 2 3-1 8 2 1-3 1-2-1v-2l-3-1h4z" fill="#D6D2D3"/>
<path transform="translate(793,788)" d="m0 0h1v10l-5 1-2-3 5-5z" fill="#EBE9EA"/>
<path transform="translate(633,790)" d="m0 0 1 2 9-1 7 1-4 2h-11l-2-1z" fill="#D2CECF"/>
<path transform="translate(183,777)" d="m0 0 2 1v10l-1 4h-2z" fill="#556391"/>
<path transform="translate(712,775)" d="m0 0h3v5l-5 4-3-4 3 1z" fill="#979BB1"/>
<path transform="translate(489,775)" d="m0 0h12v1l-8 2-4 3-1-4z" fill="#C8C3C5"/>
<path transform="translate(556,284)" d="m0 0 6 1-3 2-6 3-3-1 3-4z" fill="#C3BDBF"/>
<path transform="translate(150,790)" d="m0 0h1v13l-4 4z" fill="#C7C1C3"/>
<path transform="translate(1192,783)" d="m0 0 3 3 1 7h-6l2-1z" fill="#DDD9DA"/>
<path transform="translate(243,784)" d="m0 0h1v12l-3 2 1-13z" fill="#A4A5B5"/>
<path transform="translate(747,620)" d="m0 0 4 1 2 3h-14l1-2 6-1z" fill="#C3BDBF"/>
<path transform="translate(495,800)" d="m0 0h1v9l-2 5h-1l1-13z" fill="#CFCACC"/>
<path transform="translate(1127,806)" d="m0 0 3 1v2l2 2-2 3h-2l-2 3z" fill="#D5D1D2"/>
<path transform="translate(892,783)" d="m0 0 3 1-1 9-3-1v-7z" fill="#E0DDDE"/>
<path transform="translate(339,774)" d="m0 0 12 1v1l-8 2v-2l-8 1 1-2z" fill="#DDDADB"/>
<path transform="translate(740,206)" d="m0 0 2 1 1 5 7 1v1l-8 1-3-2z" fill="#E4E1E2"/>
<path transform="translate(939,105)" d="m0 0 4 2 7 8 1 3-3-1-7-8z" fill="#ECEAEB"/>
<path transform="translate(891,50)" d="m0 0h2v3l2-1-1 8-2-2v-3l-3 1z" fill="#F6F6F6"/>
<path transform="translate(1076,789)" d="m0 0 2 3 1 3-5 6h-2l2-5z" fill="#878FAE"/>
<path transform="translate(1016,785)" d="m0 0h8v5l-6-1-2 1z" fill="#B1B4C5"/>
<path transform="translate(1182,775)" d="m0 0h14v1l-10 2-2 1v-2l-5 1z" fill="#EBEAEA"/>
<path transform="translate(538,447)" d="m0 0h3l5 9-5-1-3-5z" fill="#E1DEDF"/>
<path transform="translate(846,785)" d="m0 0 3 1v5h-4l-1 2v-7z" fill="#989BAF"/>
<path transform="translate(839,760)" d="m0 0 4 1-1 5h-3l-1-4z" fill="#D7D5D8"/>
<path transform="translate(1230,779)" d="m0 0 2 1-2 1z" fill="#FDFDFD"/>
<path transform="translate(503,682)" d="m0 0" fill="#FDFDFD"/>
<path transform="translate(108,809)" d="m0 0" fill="#FDFDFD"/>
<path transform="translate(832,634)" d="m0 0" fill="#FDFDFD"/>
<path transform="translate(888,458)" d="m0 0" fill="#FDFDFD"/>
<path transform="translate(415,149)" d="m0 0" fill="#FDFDFD"/>
<path transform="translate(511,137)" d="m0 0" fill="#C3BDBF"/>
<path transform="translate(511,134)" d="m0 0" fill="#C3BDBF"/>
<path transform="translate(898,41)" d="m0 0" fill="#FDFDFD"/>
<path transform="translate(899,40)" d="m0 0" fill="#FDFDFD"/>
</svg>
