<?xml version="1.0" encoding="UTF-8"?>
<svg version="1.1" viewBox="0 0 2048 647" width="500" height="158" xmlns="http://www.w3.org/2000/svg">
<path transform="translate(106,38)" d="m0 0h7l8 5 3 8-1 20 2-1h165l-1-4v-17l3-6 5-4 9-1 8 4 4 5v501l-3 5-6 4-7 1-8-3-4-4-1-12 1-34h-167v44l-5 7-4 2h-8l-6-3-4-4-1-4v-500l6-7zm49 59 4 3 21 11 24 14 26 15 46 27 12 8 2 1v-78zm-32 12v152l5-2 14-8 54-27 23-11 16-8 21-10 8-3-4-3-24-13-20-12-26-15-27-16-26-15-12-8zm165 100-60 30-23 11-52 26-9 3v2l17 9 24 14 26 15 22 13 26 15 15 9 15 10h1v-55l1-102zm-165 90v161l14-8 15-8 23-11 58-29 25-12 12-5-1-3-21-11-22-13-24-14-53-31-17-10zm165 108-19 10-22 11-23 11-54 27-19 9-7 3 3 1 9-1h133l1-1v-70z" fill="#D3691A"/>
<path transform="translate(1610,117)" d="m0 0h61l12 2 9 7 6 10 3 11 1 9v29l-3 15-3 5-6 2 8 10 3 11 1 11v71l3-1 10-75 14-97 3-19 1-1h47l1 1 6 45 13 87 6 39 3 17v7h-37l-1-1-3-30-1-3-3 1h-10l-8-1-1 19-1 13-1 1h-78l-2-7-1-76-9-4-3-1v88l-3 1h-36l-1-1zm39 31v46h9l4-1 1-6v-33l-1-4-6-2zm107 27-2 37-4 36h15l-3-17-4-42-1-14z" fill="#233776"/>
<path transform="translate(1176,391)" d="m0 0 44 1 2 7 6 33 7 34 5 28 2 18 2-26 7-41 9-50 1-3 41-1 4 1v189l-2 1-34-1 1-65 2-38-5 38-10 64-1 1h-31l-3-9-9-49-6-41 2 37 1 38v24l-1 1h-34l-1-190z" fill="#233776"/>
<path transform="translate(1098,122)" d="m0 0h31l4 9 15 43 7 23 5 18-3-22-1-18v-53h36v191h-29l-4-10-17-49-7-24-3-13 2 35 1 60-2 1h-33l-2-2z" fill="#213676"/>
<path transform="translate(1399,391)" d="m0 0h30l3 3 5 16 13 37 7 23 4 16-3-29-1-37v-28l2-1h29l4 1 1 155v34l-1 1h-27l-3-4-14-40-11-34-5-20 2 19 1 23 1 55-2 1h-34l-1-1z" fill="#243876"/>
<path transform="translate(1855,114)" d="m0 0 17 1 12 4 8 6 7 11 4 13 1 11v32h-37l-1-1-1-38-3-3h-6l-3 3-1 3-1 41v47l1 26 1 11 11-2 2-7 1-8 1-26 1-8-14 3-1-2v-30l50 1v111h-23l-1-4 1-8-4 5-8 7-8 2h-16l-11-4-9-7-6-9-4-10-3-15-1-15v-93l3-16 4-10 6-8 7-7 8-4 7-2z" fill="#223776"/>
<path transform="translate(1547,114)" d="m0 0h9l15 2 10 5 6 5 7 11 4 12 1 7v107l-2 20-5 13-7 9-8 6-9 3-5 1h-21l-13-4-9-7-6-8-5-11-3-15v-114l5-17 7-11 9-8 8-4zm3 35-3 2-1 3-1 25v77l1 20 1 4 2 1h6l4-3 1-6v-117l-2-5-2-1z" fill="#223776"/>
<path transform="translate(864,389)" d="m0 0h10l15 2 8 4 8 8 6 10 3 9 1 6v115l-3 13-7 14-8 7 5 5 9 10 1 5-5 3-5 1h-20l-10-8-6-7-15-4-10-6-7-7-6-12-3-16v-112l4-15 5-9 7-8 11-6zm5 33-5 4-1 2-1 21v63l1 36 1 2 10 1 2-2 1-12v-108l-2-5z" fill="#233876"/>
<path transform="translate(439,122)" d="m0 0h39v74h12l3 1v-75h37l1 1v189l-1 1h-36l-1-1v-69l1-13v-2l-17 1 1 52v31l-1 1h-36l-1-1v-61l-1-102z" fill="#253977"/>
<path transform="translate(1205,122)" d="m0 0h56l10 2 8 4 5 4 6 10 4 11 1 8 1 60v29l-1 22-3 15-6 12-4 5-10 6-6 2-8 1h-52l-1-1zm38 29v133l10-3 3-3 1-4v-113l-3-6-7-4z" fill="#213676"/>
<path transform="translate(926,391)" d="m0 0h37l1 1 1 148 1 10h9l2-1 1-56 1-102h34l4 1v142l-1 16-4 13-6 9-8 7-10 4-11 2h-14l-12-3-10-6-8-9-5-12-2-17z" fill="#233876"/>
<path transform="translate(1379,114)" d="m0 0h11l13 2 10 5 6 7 5 12 4 14 1 13v20l-2 1h-23l-11-1-1-1-2-34-3-3h-7l-1 7v13l4 8 11 12 17 17 9 13 8 15 3 13v27l-3 14-4 9-6 8-8 6-8 3-5 1h-23l-10-3-8-6-6-7-5-11-3-15-1-15v-24h36l1 1 2 37 2 8 5 1 3-1 2-11v-11l-2-9-7-12-12-13-9-9-8-10-8-14-4-12-1-6v-20l4-16 5-9 7-7 10-5z" fill="#233776"/>
<path transform="translate(907,119)" d="m0 0h15l12 2 8 4 5 4 6 10 4 16 1 10v25l-1 1h-18l-16-1-1-5-2-30-2-2h-5l-3 6v13l4 8 11 13 10 9 11 13 9 16 4 11 1 5v30l-4 16-6 10-8 7-9 4-16 2-13-1-11-4-9-7-6-10-4-12-2-20v-26l3-1 33 1 1 1 1 31 1 11 1 2h8l2-5v-18l-3-10-6-10-9-10-14-14-10-13-6-13-2-11v-16l2-13 5-13 7-8 14-7z" fill="#233776"/>
<path transform="translate(1019,122)" d="m0 0h46l4 26 14 89 10 68 1 7-1 1h-36l-1-1-2-20v-12l-22 1-2 31-1 1h-37l-1-1 1-10 15-102 11-77zm22 58-2 38-4 32h14l-1-12-3-24-2-30z" fill="#233876"/>
<path transform="translate(1610,117)" d="m0 0h61l12 2 9 7 6 10 3 11 1 9v29l-3 15-3 5-4 1 2-4 3-7 2-13v-26l-3-16-3-2 3 6 1 5 1 14v16l-2 17-6 10-5 2-1 4 5 2 6 9 2 9v75h-28l-1-66-1-13-3-5-5-2-12-1-3-1v88l-27 1-1-6v-182l-2-1v193h-4zm39 31v46h9l4-1 1-6v-33l-1-4-6-2z" fill="#223776"/>
<path transform="translate(382,119)" d="m0 0h13l14 3 8 5 7 8 5 14 1 6 1 20v14l-1 2h-23l-10-1-1-2-2-31-1-3-8-1-2 4-1 13 4 10 9 10 8 7 8 8 11 15 7 14 3 12v31l-3 14-6 12-8 7-9 4-13 2h-9l-14-3-9-6-6-7-5-11-3-12-1-9v-32h35l1 1 1 31 2 14h6l3-3 2-8v-9l-3-12-6-10-12-14-11-11-9-13-5-10-3-9-1-5v-23l3-12 5-10 7-7 10-5z" fill="#233876"/>
<path transform="translate(690,122)" d="m0 0h37l4 26 7 50 2 16 2 27 2-36 6-56 3-26 1-1h36l-1 14-23 161-2 15-1 1h-44l-2-9-12-81-14-91z" fill="#233876"/>
<path transform="translate(1082,391)" d="m0 0 61 1 10 4 7 6 5 8 4 13 2 17v20l-2 19-4 13-7 10-7 5-9 3-5 1h-16l-2-1 1 23v48l-3 1h-23l-13-1v-189zm37 30v59l7-1 5-2 1-4 1-13v-23l-2-11-5-4z" fill="#213676"/>
<path transform="translate(1915,117)" d="m0 0h74v34l-2 1h-32v36l-1 8 19-1h14v34l-33 1 1 1v46l-1 2 9-1h27l1 33-2 2h-72l-1-1z" fill="#213676"/>
<path transform="translate(544,122)" d="m0 0h71l1 1v21l-1 11h-34l1 2v41h32v34h-33l1 1v47l16-1h18l1 1v32l-1 1h-71l-1-1z" fill="#213676"/>
<path transform="translate(795,122)" d="m0 0h72v21l-1 12-6 1-29-1 1 1v43l15-1h18v33l-1 1h-32v48l16-1h19l1 1v33h-73z" fill="#213676"/>
<path transform="translate(746,391)" d="m0 0 71 1v33l-4 1-27-1-3-1 1 2v42h31v33h-32l1 2v45h34l1 33-1 1h-72z" fill="#233776"/>
<path transform="translate(1319,391)" d="m0 0h69l2 1v33h-30l-5-1 2 4v40h32l-1 33h-33l1 1 1 15v24l-1 8 9-1h26l1 33-5 1h-68l-1-1v-189z" fill="#213676"/>
<path transform="translate(1424,117)" d="m0 0h83v20l-2 15h-13l-6-1v161l-1 1h-38l-1-1v-159l1-2-7 1h-11l-3-11z" fill="#223676"/>
<path transform="translate(1494,392)" d="m0 0h80v33l-1 1-17-1-3-1v158h-37l-1-1v-151l1-6-15 2h-6z" fill="#243876"/>
<path transform="translate(625,122)" d="m0 0h38l1 1-1 157 35-1 1 1 1 32-1 1h-73l-1-2z" fill="#213676"/>
<path transform="translate(1030,391)" d="m0 0 38 1v189l-2 1h-36l-1-1z" fill="#213676"/>
<path transform="translate(1733,117)" d="m0 0h47l1 1 6 45 13 87 6 39 3 17v7h-37l-1-1-3-30-1-3-3 1h-10l-8-1-1 19-1 13-1 1h-78l-2-7-1-76-9-4-3-1v88l-3 1h-36l3-1-1-2v-188l1-3 3 1 13 1v1h-14l1 186 10-1h17v-88l15 1 6 3 3 5 1 13v66h28l-1-75-2-9-6-9-4-2 1-5 5-3 5-8 2-17v-16l-1-14-3-9-1-4 4 2 3 10 1 8v26l-2 13-3 7-3 5h-2l8 10 3 11 1 11v71l3-1 10-75 14-97 3-19zm5 5-2 1-4 29-4 33-13 105-2 16 2 1h23l4-28 2-5 29 1 3 31 1 1h25v-11l-9-56-4-26-2-9-8-55-3-23-1-4z" fill="#898B8E"/>
<path transform="translate(1098,122)" d="m0 0h31l4 9 15 43 7 23 5 18-3-22-1-18v-53h36v191h-29l-4-10-17-49-7-24-3-13 2 35 1 60-2 1h-33l-2-2zm15 4-10 1 1 172 1 8h23v-107l8 18 2 8h2l2 9 11 36 7 19 6 17 1 1h12l8-1v-180h-25v103l-6-18-4-9-15-47-11-29-1-1z" fill="#8A8C8F"/>
<path transform="translate(907,119)" d="m0 0h15l12 2 8 4 5 4 6 10 4 16 1 10v25l-1 1h-18l-16-1-1-5-2-30-2-2h-5l-3 6v13l4 8 11 13 10 9 11 13 9 16 4 11 1 5v30l-4 16-6 10-8 7-9 4-16 2-13-1-11-4-9-7-6-10-4-12-2-20v-26l3-1 33 1 1 1 1 31 1 11 1 2h8l2-5v-18l-3-10-6-10-9-10-14-14-10-13-6-13-2-11v-16l2-13 5-13 7-8 14-7zm3 5-12 3-9 6-6 8-4 8-2 14v10l2 12 8 16 8 10v2l6 4 12 12 7 10 6 12 1 5v21l-3 7-3 2h-8l-5-4-3-5-1-4-1-31-25-1v32l3 14 4 8 8 9 8 5 3 1h21l9-2 9-6 6-7 4-11 2-11v-19l-3-15-5-12-9-12-7-9-20-20-6-10-2-5v-10l3-8 4-4 6-1 7 3 2 5 3 30h25v-11l-1-17-3-14-7-10-7-6-8-3-6-1z" fill="#929498"/>
<path transform="translate(926,391)" d="m0 0h37l1 1 1 148 1 10h9l2-1 1-56 1-102h34l4 1v142l-1 16-4 13-6 9-8 7-10 4-11 2h-14l-12-3-10-6-8-9-5-12-2-17zm59 5-1 30-1 122-4 6-1 1h-12l-3-3-2-6-1-113v-36h-28v146l4 16 5 8 8 8 11 4 8 1h10l12-3 9-6 7-8 4-8 2-9 1-16v-133z" fill="#86888C"/>
<path transform="translate(1379,114)" d="m0 0h11l13 2 10 5 6 7 5 12 4 14 1 13v20l-2 1h-23l-11-1-1-1-2-34-3-3h-7l-1 7v13l4 8 11 12 17 17 9 13 8 15 3 13v27l-3 14-4 9-6 8-8 6-8 3-5 1h-23l-10-3-8-6-6-7-5-11-3-15-1-15v-24h36l1 1 2 37 2 8 5 1 3-1 2-11v-11l-2-9-7-12-12-13-9-9-8-10-8-14-4-12-1-6v-20l4-16 5-9 7-7 10-5zm-5 6-12 5-5 4-7 11-3 11-1 7v16l4 14 7 12 5 7 23 23 6 9 7 21v9l-1 7-6 9-5 2-8-3-3-6-1-6-1-32-27-1v25l2 16 4 11 6 9 5 5 14 4 6 1h10l12-3 11-7 6-9 3-9 2-13v-15l-3-16-8-15-9-11-12-14-15-16-6-12-1-6v-8l4-8 3-3h9l4 2 2 4v31h28l1-5-1-25-2-10-8-11-4-5-4-1v-2l-8-3z" fill="#95979A"/>
<path transform="translate(1399,391)" d="m0 0h30l3 3 5 16 13 37 7 23 4 16-3-29-1-37v-28l2-1h29l4 1 1 155v34l-1 1h-27l-3-4-14-40-11-34-4-18 2-2 5 17 2 2 14 40 13 33 1 1 18 1v-180l-24-1 1 54v50l-2-2-18-48-8-23-11-31h-23l1 126 1 54h23v-109l3 3 1 10 2 22 1 23 1 55-2 1h-34l-1-1z" fill="#8B8D90"/>
<path transform="translate(1855,114)" d="m0 0 17 1 12 4 8 6 7 11 4 13 1 11v32h-37l-1-1-1-38-3-3h-6l-3 3-1 3-1 41v47l1 26 1 11 11-2 2-7 1-8 1-26 1-8-14 3-1-2v-30l50 1v111h-23l-1-4 1-8 2-1 2 5 13 2v-99h-38v19l12-1 2 1v37l-2 8-4 9-3 5-2 1h-9l-6-5-2-5-1-7v-117l4-6 6-3h8l6 3 2 4 1 7v28h27l-1-28-2-12-5-10-8-8v-2l-5-2-8-3h-21l-11 4-8 6-7 11-5 13-1 7v92l2 23 3 10 5 9 5 6 7 4-1 3-5-2-8-8-6-10-4-17-1-14v-99l2-12 6-12h-3l4-6 8-8 8-4 7-2z" fill="#898B8F"/>
<path transform="translate(439,122)" d="m0 0h39v74h12l3 1v-75h37l1 1v189l-1 1h-36l-1-1v-69l1-13v-2l-17 1 1 52v31l-1 1h-36l-1-1v-61l-1-102zm7 3-1 2v161l1 20h26l1-1v-82l25-1v82l1 2h27v-151l-1-30-11-2-14 1-2 1v73l-24-1-2-73-1-1z" fill="#FEFEFE"/>
<path transform="translate(690,122)" d="m0 0h37l4 26 7 50 2 16 2 27v7h2v17l-2-2-7-49-8-51-5-31v-6l-4 1h-21l6 41 3 15 9 60 7 47 2 16h33l3-15 2-18 2-9 7-45 9-61 5-31h-25l-1 14-7 60-4 26-2 18-2-4-1-21 3-36 7-61 1-1h36l-1 14-23 161-2 15-1 1h-44l-2-9-12-81-14-91z" fill="#8F9194"/>
<path transform="translate(1915,117)" d="m0 0h74v34l-2 1h-32v36l-1 8 19-1h14v34l-33 1 1 1v46l-1 2 9-1h27l1 33-2 2h-72l-1-1zm8 6-1 2v181h62v-22h-22l-11 1-1-62 8 1h23v-23h-30l-1-55h33l1-23z" fill="#8A8C8F"/>
<path transform="translate(544,122)" d="m0 0h71l1 1v21l-1 11h-34l1 2v41h32v34h-33l1 1v47l16-1h18l1 1v32l-1 1h-71l-1-1zm7 5-1 53v126l1 1h61v-22h-35v-60l2 1h29v-22l-30-1-1-19-1-34h33v-23z" fill="#86888B"/>
<path transform="translate(1176,391)" d="m0 0 44 1 2 7 6 33 7 34 5 28 2 18 2 6v8l-2-1-6-28-9-41-10-49-2-10h-33v180h22l1-60v-18l-2-45h2l4 10 7 40 3 19 8 37 4 16 21 1 2-14 7-35 2-13 2-5 4-24h1l-1 16-2 20-9 58-1 1h-31l-3-9-9-49-6-41 2 37 1 38v24l-1 1h-34l-1-190z" fill="#83858A"/>
<path transform="translate(1319,391)" d="m0 0h69l2 1v33h-30l-5-1 2 4v40h32l-1 33h-33l1 1 1 15v24l-1 8 9-1h26l1 33-5 1h-68l-1-1v-189zm6 6v180l18 1h18l25-1v-23h-34v-21l-1-38h32v-21l-31-1-1-53h32v-23z" fill="#898B8E"/>
<path transform="translate(382,119)" d="m0 0h13l14 3 8 5 7 8 5 14 1 6 1 20v14l-1 2h-23l-10-1-1-2-2-31-1-3-8-1-2 4-1 13 4 10 9 10 8 7 8 8 11 15 7 14 3 12v31l-3 14-6 12-8 7-9 4-13 2h-9l-14-3-9-6-6-7-5-11-3-12-1-9v-32h35l1 1 1 31 2 14h6l3-3 2-8v-14l2 4-1-11-6-10-13-15-3-3 1-3 13 13 9 13 5 15v12l-2 6-5 8-2 1h-9l-5-5-2-6-1-10v-24l-26-1 1 29 3 16 5 10 6 7 10 5 8 1h15l10-3 6-4 5-7 3-3 3-10 1-9v-20l-4-17-9-16-11-13-7-8-13-14-5-8-2-6v-9l4-9 4-4 3-1 9 2 3 4 1 3v28h25l-1-28-5-16-4-5v-2h-2v-2h-2v-2l-5-2-6-2-12-1-14 2-8 4-5 4-6 10-4 15v11l3 16 7 14 6 8-1 3-10-14-5-11-2-8-1-9v-16l4-11 4-6h2l2-4 5-6-8 6-2-1 9-8 11-4z" fill="#86888B"/>
<path transform="translate(795,122)" d="m0 0h72v21l-1 12-6 1-29-1 1 1v43l15-1h18v33l-1 1h-32v48l16-1h19l1 1v33h-73zm6 5v180h61l1-22h-35v-59h29l1-4v-18h-30l1-4-1-51 12 1h20l1-1v-22z" fill="#8C9097"/>
<path transform="translate(1424,117)" d="m0 0h83v20l-2 15h-13l-6-1v161l-1 1h-38l-1-1v-159l1-2-7 1h-11l-3-11zm8 6v23h20v161l7 1h21l1-21v-139l4-1 17-1v-23z" fill="#86888B"/>
<path transform="translate(746,391)" d="m0 0 71 1v33l-4 1-27-1-3-1 1 2v42h31v33h-32l1 2v45h34l1 33-1 1h-72zm6 6-1 26-1 45v109l18 1h44l1-7v-17h-33v-17l-1-42 10 1h19l2-18-1-5h-29l-1-54 3 1 29 1 1-24z" fill="#8E9093"/>
<path transform="translate(1019,122)" d="m0 0h46l4 26 14 89 10 68 1 7-1 1h-36l-1-1-2-20v-12l-22 1-2 31-1 1h-37l-1-1 1-10 15-102 11-77zm4 5-2 10-3 21-2 3v11l-8 64-9 67v5l4 1h20l2-7 3-20 1-7 28 1 3 29 1 2h27l-1-11-6-42-15-92-5-34-1-1z" fill="#85878B"/>
<path transform="translate(1547,114)" d="m0 0h9l15 2 10 5 6 5 7 11 4 12 1 7v107l-2 20-5 13-7 9-8 6-9 3-5 1h-21l-13-4-9-7-6-8-5-11-3-15v-114l5-17 7-11 9-8 8-4zm-5 6-12 6-9 8-7 13-1 5v124l4 13 6 9 7 6 10 4 5 1h22l10-5 10-10 5-13 2-13 1-19v-80l-2-16-3-10-9-12-4-5-12-6z" fill="#86888D"/>
<path transform="translate(1205,122)" d="m0 0h56l10 2 8 4 5 4 6 10 4 11 1 8 1 60v29l-1 22-3 15-6 12-4 5-10 6-6 2-8 1h-52l-1-1zm29 4-22 1-1 1v179h48l13-3 11-10 5-11 2-18v-86l-1-21-2-10-7-11h-2v-2l-5-2v-2l-10-4-13-1z" fill="#87898C"/>
<path transform="translate(1082,391)" d="m0 0 61 1 10 4 7 6 5 8 4 13 2 17v20l-2 19-4 13-7 10-7 5-9 3-5 1h-16l-2-1 1 23v48l-3 1h-23l-13-1v-189zm6 6-1 1v179l5 1h22v-71l21-1 12-3 8-6 6-10 3-12 1-13v-23l-2-14-4-12-6-8-6-5-6-2-12-1z" fill="#8C8E92"/>
<path transform="translate(625,122)" d="m0 0h38l1 1-1 157 35-1 1 1 1 32-1 1h-73l-1-2zm5 5v180l64 1v-23h-36v-75l-1-83z" fill="#87898C"/>
<path transform="translate(1614,119)" d="m0 0 3 1 13 1v1h-14l1 186 10-1h17v-88l15 1 6 3 3 5 1 13v66h28l-1-75-2-9-6-9-4-2 1-5 5-3 5-8 2-17v-16l-1-14-3-9-1-4 4 2 3 10 1 8v26l-2 13-3 7-3 5h-2l8 10 3 11 1 11v71l5-2v3l-3 1h-39l-2-7-1-76-9-4-3-1v88l-3 1h-36l3-1-1-2v-188z" fill="#8E9094"/>
<path transform="translate(1494,392)" d="m0 0h80v33l-1 1-17-1-3-1v158h-37l-1-1v-151l1-6-15 2h-6zm4 6v21l2 1h21v157l2 1h26l1-1-1-158 3 1h15l1-22z" fill="#8B8D90"/>
<path transform="translate(1297,391)" d="m0 0 9 1v189l-2 1-34-1 1-65 2-32v-17l2-12 2-1v124h23v-181l-34 1-14 89-4 17-2 10-2-3-1-7v-9l4-28 12-65 2-10z" fill="#87898C"/>
<path transform="translate(864,389)" d="m0 0h10l15 2 8 4 8 8 6 10 3 9 1 6v115l-3 13-7 14-9 8 2 6 2 5-5-5-5-7v-2l8-6 6-10 4-11 1-6 1-21v-66l-1-23-2-10-4-8-8-10-6-5-8-3h-20l-11 4-8 7-6 10-4 13-1 8-1 19v54l1 27 2 15 6 12 7 7 14 7 7 2 10 9 10 10v1l-7-1-13-12-3-3-13-3-10-6-7-7-6-12-3-16v-112l4-15 5-9 7-8 11-6z" fill="#888B93"/>
<path transform="translate(1030,391)" d="m0 0 38 1v189l-2 1h-36l-1-1zm6 6-1 180 6 1h11l10-1 1-26v-39l-1-115z" fill="#87898C"/>
<path transform="translate(979,391)" d="m0 0h34l4 1v142l-1 16-4 13-6 9-8 7-10 4-11 2h-14l-12-3-7-4v-2l5 1 10 4 16 1 11-2 9-4 8-7 5-7 4-11 2-20v-135l-2-1v2h-24l-3-1v30l-1 122-4 6-4 2-9-1-4-4-1-7-1-62v-49l1-40 2-1 1 148 1 10h9l2-1 1-56z" fill="#87898C"/>
<path transform="translate(1380,144)" d="m0 0h9l5 3 2 4v25l-1 6h29v-37l2 2 2 7 1 13v20l-2 1h-23l-11-1-1-1-2-34-3-3h-7l-1 7v13l4 8 11 12 17 17 9 13 8 15 3 13v27l-3 14-4 9-6 8-8 6-8 3-5 1h-23l-10-3-8-6-6-7-5-11-3-15v-29h1l1 19 4 21 5 12 7 9 9 1 14 3h10l12-3 11-7 5-8 3-9 2-13v-15l-3-16-8-15-9-11-12-14-15-16-6-12-1-6v-8l4-8z" fill="#888A8E"/>
<path transform="translate(1156,122)" d="m0 0h36v191h-29l-4-10-17-49-2-8 2-3 2 6 2 1 7 24 9 25 4 10 2-1 19-1v-180h-25l1 39v34l-2 1-2 3-2-11-1-18z" fill="#87898C"/>
<path transform="translate(1549,144)" d="m0 0h8l5 3 3 5 2 7v108l-3 12-3 5-2 2h-11l-5-5-2-10v-120l5-5zm1 5-3 2-1 3-1 25v77l1 20 1 4 2 1h6l4-3 1-6v-117l-2-5-2-1z" fill="#8B8D8F"/>
<path transform="translate(1855,114)" d="m0 0 17 1 12 4 8 6 7 11 4 13 1 11v32h-37l-1-1-1-38-2-5 4 2 4 1 1 7v28h27l-1-28-2-12-5-10-8-8v-2l-5-2-8-3h-21l-11 4-8 6-7 11-5 13-1 7v92l2 23 3 10 5 9 5 6 7 4-1 3-5-2-8-8-6-10-4-17-1-14v-99l2-12 6-12h-3l4-6 8-8 8-4 7-2z" fill="#8C8E91"/>
<path transform="translate(1237,147)" d="m0 0h14l8 4 2 3 1 6v113l-2 9-5 5-6 2-9-1-2-5-1-108zm6 4v133l10-3 3-3 1-4v-113l-3-6-7-4z" fill="#8F9194"/>
<path transform="translate(867,418)" d="m0 0h7l5 3 4 7v114l-3 10-5 4h-9l-5-3-3-7-1-17v-99l3-7 5-4zm2 4-5 4-1 2-1 21v63l1 36 1 2 10 1 2-2 1-12v-108l-2-5z" fill="#86888B"/>
<path transform="translate(1203,454)" d="m0 0h2l4 10 7 40 3 19 8 37 4 16 21 1 2-14 7-35 2-13 2-5 4-24h1l-1 16-2 20-9 58-1 1h-31l-3-9-9-49-6-41 2 37 1 38v24l-32-1 1-21h1l1 18h22l1-60v-18z" fill="#888A8D"/>
<path transform="translate(382,119)" d="m0 0h13l14 3 8 5 7 8 5 14 1 6 1 20v14l-1 2h-23l-10-1v-31l-2-5-6-3-5 1-5 8v11l5 10 12 13 13 13v2h2l2 5h2l4 7v2h2l3 6-1 5-3-4-7-11-9-11-9-10-12-13-5-8-2-6v-9l4-9 4-4 3-1 9 2 3 4 1 3v28h25l-1-28-5-16-4-5v-2h-2v-2h-2v-2l-5-2-6-2-12-1-14 2-8 4-5 4-6 10-4 15v11l3 16 7 14 6 8-1 3-10-14-5-11-2-8-1-9v-16l4-11 4-6h2l2-4 5-6-8 6-2-1 9-8 11-4z" fill="#9A9CA0"/>
<path transform="translate(1731,130)" d="m0 0h1v10l-1 14 1 9-7 54-9 73-2 14-1 2 24 1 2 2 4-27h2v16l-1 13-1 1h-39l3-3-1-1 1-14 9-67 13-90z" fill="#87898D"/>
<path transform="translate(493,122)" d="m0 0h37l1 1v189l-1 1h-36l-1-1v-69l1-13h2v79h32l-1-2v-183h-31v74l-3-1z" fill="#81848A"/>
<path transform="translate(439,122)" d="m0 0h39v74h12l-1 2h-15v-74h-30l-1 13v56l1 117h30v-81l3-3h19l-2 2-17 1 1 52v31l-1 1h-36l-1-1v-61l-1-102z" fill="#334579"/>
<path transform="translate(754,122)" d="m0 0h36l-1 14-7 49-8 55-1 2h-2v-14l10-62 6-40-8 1h-19l-1 14-7 60-4 26-2 18-2-4-1-21 3-36 7-61z" fill="#83858A"/>
<path transform="translate(1257,122)" d="m0 0 11 1 9 4 7 5 6 10 4 11 1 8 1 60v29l-1 22-3 15-6 12-4 5-10 6-3-1 1-1-2-1v-2l9-6 6-7 4-9 2-18v-86l-1-21-2-10-6-9v-2h-2v-2l-5-2v-2l-10-3-38-2-2-3z" fill="#8A8C8F"/>
<path transform="translate(1401,395)" d="m0 0 3 2v126l1 54h23v-109l3 3 1 10 2 22 1 23 1 55-2 1h-34l-1-1 1-10z" fill="#85878A"/>
<path transform="translate(1610,117)" d="m0 0h61l12 2 9 7 6 10 3 11 1 9v29l-3 15-3 5-4 1 2-4 3-7 2-13v-26l-3-16-8-7-5-5v-2l-6-2-47-1v-2h-14l-2-2v193h-4z" fill="#8E9093"/>
<path transform="translate(779,420)" d="m0 0h2l1 5 2 1v42h31v33h-27l-6-1 1 52h32v20l-1 9-65-1v-22h1v19h18l44 1 1-24h-33l-1-17v-42l29 1 1-22-29-1-1-11z" fill="#87898C"/>
<path transform="translate(909,231)" d="m0 0 7 6 6 9 4 10v19l-3 8-4 3-7-1-7-6-2-6v-31h-18l-7-1-1-1v32l3 16 4 8 9 10 10 4 5 1h16l10-2 4 1-2 3-8 2-14 1-14-2-10-5-6-5-6-10-4-12-2-20v-26l3-1 33 1 1 1 1 31 1 11 1 2h8l2-5v-18l-3-10-6-10-4-5z" fill="#898B8E"/>
<path transform="translate(375,219)" d="m0 0 7 6 7 7 9 13 5 15v12l-2 6-5 8-2 1h-9l-5-5-2-6-1-10v-24l-26-1 1 29 3 16 5 10 6 7 10 5 8 1h15l10-3 11-7-2 4-8 6-11 3h-18l-13-4-7-6-6-10-4-10-3-14h-2v-32h35l1 1 1 31 2 14h6l3-3 2-8v-14l2 4-1-11-6-10-13-15-3-3z" fill="#87898C"/>
<path transform="translate(903,169)" d="m0 0 2 4h2l8 13 10 10 7 8 6 5 3 4v2h2l4 6v2l3-1 7 14 3 11v30l-4 16-6 10-8 7-6 2 1-2-13 2h-16l-13-4-8-7-6-8-3-9-2-12v-33l2 1 1 33 3 14 4 8 7 8 8 5 3 1h21l9-2 9-6 6-8 4-13 1-7v-19l-3-15-5-12-9-12-7-9-20-20-6-10z" fill="#86888E"/>
<path transform="translate(1497,415)" d="m0 0 1 4 23 1-1 4v148l-1 8h33v-19h1v21h-37l-1-1v-151l1-6-15 2h-6v-4h2z" fill="#80838A"/>
<path transform="translate(1379,114)" d="m0 0h11l13 2 10 5 6 7 5 12 1 8v34h-3l1-5-1-25-2-10-8-11-3-3v-2l-4-1v-2l-8-2h-23l-12 5-5 5-6 9-3 11-1 7v16l4 14 7 12 4 5-1 2-5-5-6-10-4-9-3-12-1-10h-1v-8l4-16 5-9 7-7 10-5z" fill="#A4A5A7"/>
<path transform="translate(1789,214)" d="m0 0 2 4 5 28 9 57v5h2l-1 3 3 2h-37l-1-1-3-30-1-3-3 1h-10l-8-1v8h-1v-5h-2l-1 12-2 15-2 2v-2h-6v-1l5-1 4-28 2-5 5-1 25 1 1 1 3 31 25 1-2-17-8-50-3-20z" fill="#87898C"/>
<path transform="translate(1114,417)" d="m0 0h10l8 2 4 5 1 3v43l-2 8-4 4-3 2-12 1-2-1-1-6v-60zm5 4v59l7-1 5-2 1-4 1-13v-23l-2-11-5-4z" fill="#8D8F92"/>
<path transform="translate(889,125)" d="m0 0 2 1 1 3-5 5-4 5-4 14-1 10v10l2 12 8 16 8 10 18 18 7 10 6 12 1 5v21l-4 8-3 2h-8l-6-5 1-2 4 4 7 1 4-4 2-6v-19l-4-10-6-9-6-5-7-6-12-12-10-13-6-13-2-11v-16l2-13 5-13 7-8z" fill="#48567E"/>
<path transform="translate(1823,133)" d="m0 0v3l-5 9-2 6-1 8v99l2 20 3 11 7 11 9 8 4-2 13 3 12-1 4-1v-2l6-4 7-9h1v7l-4 4-7 8-5 3-6 1h-16l-11-4-9-7-6-9-4-10-3-15-1-15v-93l3-16 4-10z" fill="#243876"/>
<path transform="translate(801,122)" d="m0 0h66v21l-1 12-6 1-29-1v47l2 1h-5v-54h32l1-22h-35l-25-1z" fill="#8B8D90"/>
<path transform="translate(1399,391)" d="m0 0h30l3 3 5 16 13 37 6 19-1 4-13-34-8-22h-2l-6-17h-22l-2-1-1 175-2 4z" fill="#8B8D90"/>
<path transform="translate(1491,403)" d="m0 0h1l1 144v34l-1 1h-27l-3-4-14-40-11-34 1-4 9 25 8 21 12 30 2 4h22l-1-2-1-90v-67l1-17z" fill="#85878A"/>
<path transform="translate(1855,114)" d="m0 0 17 1 3 1v2h-11l11 2 8 5h-3l-10-4h-21l-11 4-8 6-7 11-5 13-1 7v92l2 23 3 10 5 9 5 6 7 4-1 3-5-2-8-8-6-10-4-17-1-14v-99l2-12 6-12h-3l4-6 8-8 8-4 7-2z" fill="#868A93"/>
<path transform="translate(1380,144)" d="m0 0h9l5 3 2 4v25l-1 6h29v-37l2 2 2 7 1 13v20l-2 1h-23l-11-1-1-1-2-34-3-3h-7l-1 7v16l-2 5-3-4-2-9v-8l4-8z" fill="#A1A3A5"/>
<path transform="translate(1041,167)" d="m0 0 3 4 2 9 1 14 3 13 4 32v14l-2 1h-20l1-16 6-45 1-5h1v17l-3 31-2 13 13 1-5-36-2-30-1-4z" fill="#898B8E"/>
<path transform="translate(1644,143)" d="m0 0h14l7 3 3 6v36l-4 8-4 3h-15l-1-3zm5 5v46h9l4-1 1-6v-33l-1-4-6-2z" fill="#96989A"/>
<path transform="translate(1269,486)" d="m0 0h1l-1 16-2 20-9 58-1 1-25-1-3-1-4-13-10-48-1-9 2 1 8 35 6 29 1 2 21 1 2-14 7-35 2-13 2-5z" fill="#81848A"/>
<path transform="translate(442,193)" d="m0 0h1l1 117h30v-81l3-3h19l-2 2-17 1 1 52v31l-1 1h-36l-1-1 1-42z" fill="#86888B"/>
<path transform="translate(782,501)" d="m0 0 2 2v45h34l1 33-1 1h-72l1-42 2 3v37h63l2 1v-28h-31l-1-1z" fill="#86888B"/>
<path transform="translate(831,156)" d="m0 0h1v43l15-1h18v33l-1 1h-15l-14-1-5-2-1-3h28l1-22h-30l3-2z" fill="#82858B"/>
<path transform="translate(1566,116)" d="m0 0 8 1 10 6 8 10 5 12 2 11v107l-2 1-2 13h-1l1-17 1-18v-74l-2-14-2-4-2-3-3-7-8-10-2-4-5-2v-3h-2l-1-2-4-2z" fill="#898B8F"/>
<path transform="translate(1549,420)" d="m0 0h2l1 160h-33v-159h2v156h28z" fill="#FEFEFE"/>
<path transform="translate(1012,395)" d="m0 0 3 1v135l-2 20-5 13-9 10-7 5-9 3-16 1-11-2-9-4-4-4h5l8 4 12 2h10l12-3 9-6 6-7 4-8 2-9 1-16z" fill="#FEFEFE"/>
<path transform="translate(1614,119)" d="m0 0 3 1 13 1v1h-14l1 186 10-1h17l1-77h1v76l1 3-30 1-3-1z" fill="#FEFEFE"/>
<path transform="translate(1973,195)" d="m0 0h14v34l-33 1 1 1v31l-2 1-1-39-2-1 31 1v-23l2-1h-28l-2-1v-2l2-1z" fill="#898B8E"/>
<path transform="translate(826,436)" d="m0 0h1l2 100 2 16 5 12 6 8 10 7 15 5 8 7 10 9-3 1-10-8-6-7-15-4-10-6-7-7-6-12-3-16v-100z" fill="#44527D"/>
<path transform="translate(1488,400)" d="m0 0 3 1-1 20v67l1 92-22 1-3-5-12-30-9-24-7-19v-3h-2l-3-14 2-2 5 17 2 2 14 40 13 33 1 1 18 1z" fill="#FEFEFE"/>
<path transform="translate(1401,395)" d="m0 0 3 2v126l1 54h25v-24h1l1 25 1 2h-31l-1-2z" fill="#FEFEFE"/>
<path transform="translate(1301,426)" d="m0 0h1l1 153-1 1h-28l-1-74v-39l2-12 2-1v124h23z" fill="#FEFEFE"/>
<path transform="translate(1549,144)" d="m0 0h8l5 3 3 5 1 2v83h-1l-1-79-3-5v2h-2l-1-5h-8l-5 2-1 1v116l1 10 3 3 8 1 1 3h-9l-5-5-2-10v-120l5-5z" fill="#FEFEFE"/>
<path transform="translate(913,147)" d="m0 0 6 1 6 12 1 7v20l4 1h-4v2h-3l-1-5-2-30-2-2h-5l-3 6v13l4 8 11 13 10 9 11 13 3 5v3h-2l-4-6v-2h-2l-3-4v-2l-4-2-9-9-14-16-4-7v-2h-2l-2-2h-1v-10l3-8 5-5z" fill="#85888E"/>
<path transform="translate(363,127)" d="m0 0h2l-2 4-5 6-4 4-4 9-1 4v16l2 14 5 12 10 15 2-2 3 4v2l4 2 2 6 12 13 7 10 2 4 1 6v16h-1l-2-15-8-16-9-10-7-8-8-8-9-13-5-10-3-9-1-5v-23l3-12 5-10 6-3z" fill="#46547D"/>
<path transform="translate(1610,117)" d="m0 0h4v195h-4z" fill="#2F4279"/>
<path transform="translate(1156,122)" d="m0 0h4v2h8v1h-5v75l-2 1-2 3-2-11-1-18z" fill="#8B8D90"/>
<path transform="translate(1052,122)" d="m0 0h13l4 26 14 89 7 49v5l-2-2-12-73-11-65-3-22v-6h-10z" fill="#546080"/>
<path transform="translate(1203,454)" d="m0 0h2l4 10 7 40 1 9-2-3 2 14 11 50 1 5 19 1v1h-22l-3-9-9-49-6-41-2 3-2-8z" fill="#938E8B"/>
<path transform="translate(1560,152)" d="m0 0 3 2 1 13v56l-1 51-2 4-1-4z" fill="#324479"/>
<path transform="translate(861,426)" d="m0 0h2v86l1 36 2 4-4-1-2-4-1-10v-105z" fill="#86888B"/>
<path transform="translate(907,413)" d="m0 0 3 3 2 5 2 1 1 6v115l-3 13-7 14-8 7-1-2 9-13 5-15 1-5 1-14v-90l-2-14-3-8z" fill="#86888B"/>
<path transform="translate(779,496)" d="m0 0h3l1 56h32v20l-1 9-65-1v-22h1v19h18l44 1 1-24h-33l-1-17z" fill="#FEFEFE"/>
<path transform="translate(1481,147)" d="m0 0h2v161l-1 2-30-1-1-2 29 1v-160z" fill="#FEFEFE"/>
<path transform="translate(906,414)" d="m0 0 3 4 3 11 1 9v90l-1 14-4 15-5 10-6 8-1 5 4 7-1 2-9-12v-2l8-6 6-10 4-11 1-6 1-21v-66l-1-23-2-10-2-7z" fill="#FEFEFE"/>
<path transform="translate(1059,125)" d="m0 0h3l4 26 18 107 7 42v8l-2-1-2-13-3-13-6-40-11-66-7-47-10-1v-1z" fill="#FEFEFE"/>
<path transform="translate(1756,163)" d="m0 0h2l1 4v12l-1 6h-1l-1 11-3 16-4 33v6l17-2-3-35-3-8v-21l2 4 5 39 2 23-4 1h-20l4-36 6-42z" fill="#FEFEFE"/>
<path transform="translate(1342,156)" d="m0 0h1l1 15 4 15 8 15 5 5 5 3 9 10 11 11 3 6-1 3 2 5-4-2-8-11-16-16-8-10-8-14-4-12-1-6v-12z" fill="#85888F"/>
<path transform="translate(382,119)" d="m0 0h13l14 3 2 1-1 2-10-3h-21l4 2-9 1v2l-8 4-5 4-6 10-4 15v11l3 16 7 14 6 8-1 3-10-14-5-11-2-8-1-9v-16l4-11 4-6h2l2-4 5-6-8 6-2-1 9-8 11-4z" fill="#69728B"/>
<path transform="translate(386,148)" d="m0 0 10 2 3 4 1 3 1 29-3-1-1-26-2-5-6-3-5 1-5 8v11l5 10 12 13 13 13v2h2l2 5h2l4 7v2h2l3 6-1 5-3-4-7-11-9-11-9-10-12-13-5-8-2-6v-9l4-9 4-4z" fill="#FBFBFB"/>
<path transform="translate(1377,177)" d="m0 0h4l4 6 11 12 6 7 5 5 11 14 8 15 3 15v20l-3 14-7 14-4 4v-3l6-9 3-9 2-13v-15l-3-16-8-15-9-11-12-14-15-16z" fill="#FAFBFB"/>
<path transform="translate(829,435)" d="m0 0h1v76l1 27 2 15 6 12 7 7 14 7 7 2 10 9 10 10h-3l-10-9-7-6-15-5-12-9-6-9-4-10-2-16-1-63 1-33z" fill="#FEFEFE"/>
<path transform="translate(475,122)" d="m0 0h3v74h12l-1 2h-15v-74h-30v-1z" fill="#84878A"/>
<path transform="translate(1815,154)" d="m0 0 2 1v99l2 23 3 10 5 9 5 6 7 4-1 3-5-2-8-8-6-10-4-17-1-14v-99z" fill="#FEFEFE"/>
<path transform="translate(963,392)" d="m0 0h1v143l-1 9h-1l-1-62v-49l1-40z" fill="#626B83"/>
<path transform="translate(787,131)" d="m0 0h1v12l-7 49-7 48-1 2h-2v-14l10-62 5-33z" fill="#4F5B7F"/>
<path transform="translate(1045,276)" d="m0 0h12l1 2 3 29h27l-2-11 1-4 2 8 1 7-1-16 2 2 3 16-1 4h-36l-1-1v-6h2l-3-26-1-2-9-1z" fill="#86888B"/>
<path transform="translate(347,247)" d="m0 0h1l1 21 4 17 7 14 5 6 8 4 8 2h18l13-3-3 5-16 3h-9l-14-3-9-6-6-7-5-11-3-12z" fill="#727786"/>
<path transform="translate(1143,162)" d="m0 0 2 3 9 28 6 23-1-12 2-9h1l1 36-2-1-6-18-4-9-11-35 1-5z" fill="#84878D"/>
<path transform="translate(710,125)" d="m0 0h13l1 1 13 79 4 24 1 19h2v17l-2-2-7-49-8-51-5-31v-6h-12z" fill="#FEFEFE"/>
<path transform="translate(1787,180)" d="m0 0h1l8 50v6h2l7 47 4 23v6h-5l3-4h-2l-12-75-3-26-3-20z" fill="#566181"/>
<path transform="translate(1758,179)" d="m0 0h1v5l2 1v21l3 10 2 23v10l-6 2h-11l-1-6 4-33 2-13h1v13l-4 34-1 2 14-1-2-8-5-50z" fill="#666E86"/>
<path transform="translate(960,395)" d="m0 0h2v87l1 62 1 7 4 3 8 1v1h-10l-4-4-2-6-1-113v-37z" fill="#FEFEFE"/>
<path transform="translate(874,259)" d="m0 0h1l1 11 2 9 3 11 5 9 7 7 10 4 5 1h16l10-2 4 1-2 3-8 2-14 1-14-2-10-5-6-5-6-10-4-12z" fill="#777C87"/>
<path transform="translate(876,424)" d="m0 0 3 2 1 4v68l-1 48-2 2z" fill="#4F5B7F"/>
<path transform="translate(1613,122)" d="m0 0h1v187h31l2 4h-36l3-1-1-2z" fill="#86888B"/>
<path transform="translate(1546,150)" d="m0 0 2 1-1 3-1 25v100h-2l-1-10v-116z" fill="#586381"/>
<path transform="translate(1424,145)" d="m0 0 2 2 2 7 1 13v20l-2 1h-23l-11-1-1-1v-5h2v2l30-1z" fill="#8B8D90"/>
<path transform="translate(1378,172)" d="m0 0h2l8 11 23 23 9 13 8 15 3 13v19h-1l-2-15-3-15-8-15-8-10-5-6v-2l-4-2-9-10-7-8-3-4v-2l-3 1-1-3z" fill="#7F8289"/>
<path transform="translate(1217,397)" d="m0 0h1l10 49 10 45v3h2l2 18 2 6v8l-2-1-6-28-9-41-10-49z" fill="#FCFCFC"/>
<path transform="translate(895,213)" d="m0 0 5 2 14 14 7 10 6 12 1 5v21l-4 8-3 2h-8l-6-5 1-2 4 4 7 1 4-4 2-6v-19l-4-10-6-9-6-5-7-6-8-8 2-2z" fill="#8F9298"/>
<path transform="translate(477,226)" d="m0 0h19l-2 2-17 1v52l-1 31h-30v-1l28-1v-81z" fill="#5D6782"/>
<path transform="translate(1218,392)" d="m0 0 3 1 7 39 7 34 4 21v7l-2-3-15-69-4-19z" fill="#404F7C"/>
<path transform="translate(1882,292)" d="m0 0h1v7l-4 4-7 8-5 3-6 1h-16l-11-4-5-5 8 4v-3l3-1 13 3 12-1 4-1v-2l6-4z" fill="#A4A6A8"/>
<path transform="translate(493,122)" d="m0 0h37l-1 16h-1v-15h-32v75l-3-1z" fill="#42517D"/>
<path transform="translate(860,424)" d="m0 0 3 1-3 7v105l2 13 7 4h7l-1 2h-9l-5-3-3-7-1-17v-99l2-5z" fill="#FEFEFE"/>
<path transform="translate(831,232)" d="m0 0h1v48l16-1h19l1 1v11l-1 1-1 18-2-3v-24l-3 1h-29l-1-1z" fill="#6B7286"/>
<path transform="translate(1214,509)" d="m0 0 2 1 8 35 6 29 1 2 21 1 2-14 8-39h1l-1 11-6 29-2 13-1 2-21 1-3-1-4-13-10-48z" fill="#FEFEFE"/>
<path transform="translate(724,123)" d="m0 0h3l2 11 9 64 2 16v7l-2-4-14-84z" fill="#404F7C"/>
<path transform="translate(1592,148)" d="m0 0 2 2 2 9 1 9v74l-2 29-3 14-4 10-2 1 3-9 3-12 1-7 1-19v-80l-2-16z" fill="#FEFEFE"/>
<path transform="translate(1483,153)" d="m0 0h2v156l-1 2h-2z" fill="#213676"/>
<path transform="translate(1360,125)" d="m0 0 2 1-5 5-6 9-3 11-1 7v16l4 14 7 12 4 5-1 2-5-5-6-10-4-9-3-12-1-10h-1v-8l2-10 4-4 5-7 5-5z" fill="#A5A7AA"/>
<path transform="translate(782,501)" d="m0 0 2 2v45h34l-1 4-1 10h-1l-1-9h-31l-1-1z" fill="#83868A"/>
<path transform="translate(349,238)" d="m0 0 4 3h-2l1 29 3 16 5 10 6 7 10 5 8 1h15l10-3 11-7-2 4-8 6-11 3h-18l-13-4-7-6-6-10-4-10-2-11z" fill="#FEFEFE"/>
<path transform="translate(816,392)" d="m0 0h1v33l-4 1-27-1-3-1-1 2-1-1v-5l-2-1 27 1 5 1v-16h1l1 15 2-27z" fill="#7C808B"/>
<path transform="translate(828,226)" d="m0 0 3 3 4 2-4 1 1 51h32v25l-2 1v-20l1-4h-35z" fill="#FEFEFE"/>
<path transform="translate(1379,114)" d="m0 0h11l3 2-2 2v2l-17 1-16 6-4 5-5 5-3 7-2-4 6-12 7-7 10-5z" fill="#8B8E95"/>
<path transform="translate(1437,500)" d="m0 0 2 3 7 19 9 24 12 30 1 5-5-1-13-36-13-40z" fill="#43517D"/>
<path transform="translate(1032,275)" d="m0 0h21l3 5 2 16v10h-2l-2-14v-12l-22 1-2 31h-5l2-1v-12l3-20z" fill="#84878A"/>
<path transform="translate(1811,210)" d="m0 0h1l1 15h1l1 33 2 20 3 11 7 11 9 8 2 1-1 2-6-4-5-2-6-8-5-12-3-15-1-15z" fill="#656D84"/>
<path transform="translate(385,150)" d="m0 0 7 1 5 4 1 4v30l-2-1-2-31-1-3-8-1-2 4-1 13 4 10 9 10 3 2 3 5 5 6-4-2-15-15-7-10-2-5v-11l5-8z" fill="#535E80"/>
<path transform="translate(1273,488)" d="m0 0h1v93h-4l1-65z" fill="#6E7486"/>
<path transform="translate(779,126)" d="m0 0h8l-1 14-11 70-7 43h-1v-8l13-87 5-31h-6z" fill="#FEFEFE"/>
<path transform="translate(494,230)" d="m0 0h2l1 82h-4v-69z" fill="#546080"/>
<path transform="translate(876,239)" d="m0 0 2 1 1 33 3 14 4 8 7 8 8 5 3 1h21l9-2 4-2 3 1-7 4-10 2h-16l-13-4-8-7-6-8-3-9-2-12z" fill="#FEFEFE"/>
<path transform="translate(1434,412)" d="m0 0 2 4 12 34 7 17v3h2l5 18 3 4v9l-2-2-18-48-8-23-4-12z" fill="#FDFDFD"/>
<path transform="translate(1040,188)" d="m0 0h1v17l-3 31-2 13h-2v4l2-1h17l1-3v4l-2 1h-20l1-16 6-45z" fill="#DADBDB"/>
<path transform="translate(626,123)" d="m0 0 29 1v2l-25 1-1 63-1 36h-1z" fill="#FEFEFE"/>
<path transform="translate(903,169)" d="m0 0 2 4h2l8 13 10 10 7 8 6 5 3 4v2h2l4 6v2l3-1 1 2h-2v2l-3 1-9-12-7-9-20-20-6-10z" fill="#E7E8E8"/>
<path transform="translate(1323,551)" d="m0 0h1v26h62v-7h1v8h2v2h-64l-2 1z" fill="#FEFEFE"/>
<path transform="translate(1434,484)" d="m0 0 2 3 4 14 2 2 14 40 11 28-1 3-5-10-14-36-8-23-1-5h-2l-3-14z" fill="#FEFEFE"/>
<path transform="translate(1430,392)" d="m0 0 2 2 5 16 13 37 6 19-1 4-13-34-8-24-5-17z" fill="#5C6682"/>
<path transform="translate(1213,513)" d="m0 0h2l7 34 6 27 1 5 19 1v1h-22l-3-9-9-49z" fill="#5D6682"/>
<path transform="translate(1549,144)" d="m0 0h8l5 3 3 5 1 2v83h-1l-1-79-3-5v2h-2l-1-5h-8l-6 2-1-4z" fill="#9EA1A5"/>
<path transform="translate(1076,199)" d="m0 0h1l8 52 5 35v5l-2-2-12-73-2-11 1-4z" fill="#525E80"/>
<path transform="translate(1008,559)" d="m0 0 1 3-6 8-9 8-11 4-16 1-11-2-9-4-4-4h5l8 4 12 2h10l12-3 9-6 6-7z" fill="#FEFEFE"/>
<path transform="translate(779,420)" d="m0 0h2l1 5v47h29l-1 21h-1v-19l-29-1-1-11z" fill="#FEFEFE"/>
<path transform="translate(795,122)" d="m0 0h6l-1 2-1 19-1 3-1 45h-2z" fill="#646C84"/>
<path transform="translate(428,246)" d="m0 0h1l1 8-1 22-1 11 1 4-6 12-8 7-6 2 2-5 8-6-3-1 4-5 3-3 3-10 1-9v-25z" fill="#ACAEB5"/>
<path transform="translate(1789,214)" d="m0 0 2 4 5 28 9 57v5h-2l-6-36-8-52z" fill="#FEFEFE"/>
<path transform="translate(829,557)" d="m0 0 3 4 1 2 2-1 4 6 5 5 8 6 15 5 8 7 10 9-3 1-10-8-6-7-15-4-10-6-7-7-5-9z" fill="#6A7185"/>
<path transform="translate(906,169)" d="m0 0 2 3 2 4 5 5 9 11 12 11 10 12 3 5v3h-2l-4-6v-2h-2l-3-4v-2l-4-2-9-9-14-16-5-9z" fill="#717786"/>
<path transform="translate(1685,207)" d="m0 0h2l6 7 4 8 2 12 1 23v24l-1 8h-1l-1-38-1-19-2-9-6-9-4-2z" fill="#FEFEFE"/>
<path transform="translate(867,418)" d="m0 0h7l5 3 3 5v72h-1l-1-72-11-3-6 5-1-3-2-2 5-4z" fill="#C2C3C5"/>
<path transform="translate(878,146)" d="m0 0 2 1-2 16v10l2 12 8 16 8 10-2 2-7-8-6-9-5-14-1-8v-20z" fill="#FDFDFD"/>
<path transform="translate(1950,146)" d="m0 0h2l1 29v24l30 1-1 2-31-1-1-4z" fill="#FEFEFE"/>
<path transform="translate(1692,136)" d="m0 0 4 2 3 10 1 8v26l-2 13-3 7-3 5-3 1-2-2 5-5 3-5 2-17v-16l-1-14-3-9z" fill="#FCFCFC"/>
<path transform="translate(1009,559)" d="m0 0h2l-2 6-7 8-7 6-1 2-10 3-7 1h-14l-12-3-7-4v-2l5 1 10 4 16 1 11-2 9-4 8-7 5-7z" fill="#515D80"/>
<path transform="translate(1377,177)" d="m0 0h4l4 6 11 12 6 7 5 5 9 11-1 3h-2l-7-9-12-14-15-16z" fill="#D6D7D8"/>
<path transform="translate(1694,132)" d="m0 0h2l4 10 2 14v29l-3 15-3 5-4 1 2-4 3-7 2-13v-26l-3-16z" fill="#757A87"/>
<path transform="translate(1342,156)" d="m0 0h1l1 15 4 15 8 15 7 10v2l-4-2-7-9-8-16-3-13v-12z" fill="#535F80"/>
<path transform="translate(913,520)" d="m0 0h1v29l-3 10-6 11-8 7-1-2 9-13 5-15 1-5z" fill="#44537D"/>
<path transform="translate(347,247)" d="m0 0h1l1 21 4 17 7 14 5 6 12 6-3 1-12-6-7-9-3-3-4-12-1-5z" fill="#41507C"/>
<path transform="translate(1950,224)" d="m0 0h2l1 12 1 48h-3l-1-10z" fill="#FEFEFE"/>
<path transform="translate(874,259)" d="m0 0h1l1 11 2 9 3 11 5 9 7 7 10 4 8 2v1h-7l-12-5-8-7-6-7-4-12z" fill="#404F7C"/>
<path transform="translate(1021,123)" d="m0 0h8v2h17v1l-22 1-2 10-4 28-1 1-1 12-2-4 1-14z" fill="#FAFAFA"/>
<path transform="translate(1754,199)" d="m0 0h1v13l-4 34-1 2 14-1 1-8h1v10l-6 2h-11l-1-6 4-33z" fill="#6C7385"/>
<path transform="translate(828,150)" d="m0 0h2l1 5v47l2 1h-5z" fill="#FEFEFE"/>
<path transform="translate(398,193)" d="m0 0 7 6 10 11 10 15 4 9-1 3v1 6l-3-1-2-7v-7l-2-6h-2l-4-6v-3h-2l-2-5h-2l-6-9-5-5z" fill="#616A83"/>
<path transform="translate(900,120)" d="m0 0h3v2l5 1h16l10 3 3 3-16-4h-11l-12 3-9 6-6 9-2 2 1-6 8-10h2v-2l-2-1 3-3z" fill="#B6B8BF"/>
<path transform="translate(1344,238)" d="m0 0 3 1v25l2 16 4 11 6 9 4 5-3 1-8-10-5-12-3-17z" fill="#FEFEFE"/>
<path transform="translate(914,234)" d="m0 0 5 2 8 15 1 5v21l-4 8-3 2h-8l-6-5 1-2 4 4 7 1 4-4 2-6v-19l-4-10-6-9z" fill="#FEFEFE"/>
<path transform="translate(1111,123)" d="m0 0h16l8 20 5 14-1 5-2-3-11-30-1-2-19-1-5-1v-1h10z" fill="#FAFAFA"/>
<path transform="translate(1131,420)" d="m0 0 4 2 2 5v43l-2 8-2 3h-2l1-4 1-1 1-13v-31l-2-7z" fill="#FEFEFE"/>
<path transform="translate(889,125)" d="m0 0 2 1 1 3-5 5-4 5-2 8-3 1-4 9h-1l1-9 5-13 7-8z" fill="#4C5A81"/>
<path transform="translate(909,231)" d="m0 0 7 6 6 9 4 10v19l-1 4h-2l-1-21-3-10-6-10-4-5z" fill="#43517D"/>
<path transform="translate(1020,122)" d="m0 0h32l10 1-1 3-11 1h-26v-1l5-1v-2l-9 1z" fill="#A4A5A8"/>
<path transform="translate(1342,244)" d="m0 0h1l1 19 4 21 5 12 7 9-1 2-8-9-3-6-2-1-3-11-1-7z" fill="#46547D"/>
<path transform="translate(562,122)" d="m0 0h50l-1 4h-13v-1h-50v-1z" fill="#CBCCCD"/>
<path transform="translate(1489,540)" d="m0 0h1l1 40-22 1-3-5v-2h2l2 3 18 1v-37z" fill="#FDFDFD"/>
<path transform="translate(907,119)" d="m0 0h15l12 2 6 3v2h-3v-2l-4-1v2l3 1-2 1-10-3h-19l-2-4z" fill="#83899A"/>
<path transform="translate(1269,486)" d="m0 0h1l-1 16-2 20-2 14h-2l-2 3 1-15 1-9 2-5z" fill="#B9BABC"/>
<path transform="translate(1144,242)" d="m0 0 2 3 8 26 7 19 6 17 2 3-4-1-9-24-8-24-4-15z" fill="#FEFEFE"/>
<path transform="translate(920,154)" d="m0 0 3 1 2 5 1 7v20l4 1h-4v2h-3l-1-5z" fill="#6F7586"/>
<path transform="translate(895,578)" d="m0 0 5 2 8 8 4 6-1 4h-5l-6-7-4-10z" fill="#7B7F88"/>
<path transform="translate(1855,114)" d="m0 0 17 1 3 1v2h-11l11 2 8 5h-3l-10-4-21-1-4-2 1-3z" fill="#DBDCDC"/>
<path transform="translate(363,127)" d="m0 0h2l-2 4-5 6-4 4-4 9-1 4-1 23-2-4v-18l3-12 5-10 6-3z" fill="#36477A"/>
<path transform="translate(1015,529)" d="m0 0h1v21l-4 13-6 9-8 7-4 1 13-13 3-6 1-6 2-10 1-14z" fill="#656D84"/>
<path transform="translate(1412,212)" d="m0 0 5 5 6 7 6 13 2 10v19h-1l-2-15-3-15-8-15-5-7z" fill="#525E80"/>
<path transform="translate(1029,275)" d="m0 0 4 1-2 1-4 30-1 3h-24l-4-2h25l4-26z" fill="#FEFEFE"/>
<path transform="translate(386,148)" d="m0 0 10 2 3 4 1 3 1 29-3-1-1-26-2-5-6-3-5 1-5 8-2 2 1-5 4-7z" fill="#FEFEFE"/>
<path transform="translate(1019,122)" d="m0 0 2 2-2 18-4 25h-2v-10l5-34z" fill="#43517D"/>
<path transform="translate(403,203)" d="m0 0h3l3 4v2h2l2 5h2l4 7v2h2l3 6-1 5-3-4-7-11-9-11z" fill="#CACBCC"/>
<path transform="translate(1344,153)" d="m0 0 2 2 1 19 4 14 7 12 4 5-1 2-5-5-6-10-4-9-2-10z" fill="#FEFEFE"/>
<path transform="translate(787,131)" d="m0 0h1v12l-5 36h-1l-1-13 5-33z" fill="#586281"/>
<path transform="translate(1787,180)" d="m0 0h1l9 56 1 15-2-4-1-1-4-31-4-28z" fill="#213676"/>
<path transform="translate(881,521)" d="m0 0h1v25l-3 7-3 2h-7l-4-3v-2h9l1-1 1-12h1l1 10 2-7z" fill="#B0B1B4"/>
<path transform="translate(375,219)" d="m0 0 7 6 7 7 9 13 4 12v10h-1l-2-12-7-14-9-10-7-8z" fill="#FEFEFE"/>
<path transform="translate(350,157)" d="m0 0 1 3v11l3 16 7 14 6 8-1 3-10-14-5-11-2-8-1-9v-10z" fill="#FEFEFE"/>
<path transform="translate(1132,426)" d="m0 0h2l1 6v31l-1 13h-2z" fill="#5F6883"/>
<path transform="translate(776,209)" d="m0 0h1v11l-3 20-1 2h-2v-14l3-18z" fill="#45537D"/>
<path transform="translate(1206,553)" d="m0 0h1l1 26-1 1h-28l1-21h1l1 18h24z" fill="#FEFEFE"/>
<path transform="translate(1272,537)" d="m0 0h1l1 44h-4l1-43z" fill="#293D77"/>
<path transform="translate(733,169)" d="m0 0h1l6 45v7l-2-4-6-36v-7z" fill="#515D80"/>
<path transform="translate(1127,122)" d="m0 0 3 1 13 36v4h-2v2h-2v-8l-11-30z" fill="#6C748C"/>
<path transform="translate(1547,114)" d="m0 0h9l10 1v2l4 2v2h2v2l-13-3-12-1 3-1v-2h-5z" fill="#BCBFC4"/>
<path transform="translate(1161,195)" d="m0 0h1l1 36-2-1-6-18-1-9 2 3 1 7h2l1 2-1-11z" fill="#FEFEFE"/>
<path transform="translate(1743,282)" d="m0 0h2v16l-1 13-5 1 3-24z" fill="#44527D"/>
<path transform="translate(1257,122)" d="m0 0 6 1v4h-13l-25-1-2-3z" fill="#DBDCDC"/>
<path transform="translate(919,149)" d="m0 0 4 1 3 6 2 20v10h25v1h-27l-1-20-2-10-4-6z" fill="#FEFEFE"/>
<path transform="translate(365,128)" d="m0 0 4 1-8 6-6 10-3 12h-2l-1 3h-1l1-10 6-12 3-1 2-4z" fill="#9A9B9E"/>
<path transform="translate(1735,121)" d="m0 0h7l4 2h-10l-1 15-3 21h-1l-1-11 4-25z" fill="#FEFEFE"/>
<path transform="translate(1136,220)" d="m0 0 2 3v3h2l4 13 1 11-2-1-2-3-2-1-1-7v-3l-3-14z" fill="#9C9EA2"/>
<path transform="translate(1418,137)" d="m0 0 4 3h2l1 8v34h-3l1-5-1-25-2-10z" fill="#FEFEFE"/>
<path transform="translate(1213,513)" d="m0 0h2l7 34 1 8-3 1-7-40z" fill="#626B83"/>
<path transform="translate(1563,150)" d="m0 0 3 4v83h-1l-1-79-2-6z" fill="#FCFCFC"/>
<path transform="translate(1559,272)" d="m0 0 3 4h2l1-4-1 7-3 5-4 2-3-2-6-1-3-2 1-5 1 4h8l3-2z" fill="#98999D"/>
<path transform="translate(1429,255)" d="m0 0h1l1 19-3 14-2 5-6 5 2-6 4-10 2-11z" fill="#616A83"/>
<path transform="translate(1743,274)" d="m0 0h2l-1 8-4 27-2 2v-2h-6v-1l5-1 4-28z" fill="#FEFEFE"/>
<path transform="translate(1832,125)" d="m0 0 3 2-5 4-7 11-5 13-3-1 2-9 4-7 4-2 2-5z" fill="#A9AAAC"/>
<path transform="translate(1041,167)" d="m0 0 3 4 2 9-1 23h-1l-1-5-1-14-1-4z" fill="#A2A5AC"/>
<path transform="translate(693,283)" d="m0 0 3 1v25l-3-1 1-23h-36v-1z" fill="#FEFEFE"/>
<path transform="translate(1033,576)" d="m0 0 8 1h22l3 2-2 1h-31z" fill="#FEFEFE"/>
<path transform="translate(816,550)" d="m0 0 2 2 1 29h-4v-19z" fill="#273A77"/>
<path transform="translate(907,413)" d="m0 0 3 3 2 5 2 1 1 6v18l-2 1-3-23-3-8z" fill="#636B83"/>
<path transform="translate(1400,571)" d="m0 0h1l1 9h30l2 2h-34l-1-1z" fill="#747A87"/>
<path transform="translate(378,256)" d="m0 0h1l2 20 2 7 4 2h6l5-6 3-3-2 6-5 5h-9l-5-5-2-6-1-10v-9z" fill="#FEFEFE"/>
<path transform="translate(389,239)" d="m0 0 4 2 5 9 1 6v16h-1l-2-15-7-14z" fill="#36477A"/>
<path transform="translate(1070,172)" d="m0 0h2l2 9 2 12v10l-2-2-4-20z" fill="#44527D"/>
<path transform="translate(380,171)" d="m0 0 4 5 4 6 7 8 3 2 3 5 5 6-4-2-15-15-7-10z" fill="#505C7F"/>
<path transform="translate(1030,282)" d="m0 0h1v16l-1 14h-5l2-1v-12l2-16z" fill="#3D4D7B"/>
<path transform="translate(1817,288)" d="m0 0 4 2 6 10 9 8 2 1-1 2-6-4-5-2-6-8-3-6z" fill="#47557E"/>
<path transform="translate(1378,172)" d="m0 0h2l8 11 5 5 3 5 8 9h-3l-10-11-7-8-3-4v-2l-3 1-1-3z" fill="#6A7185"/>
<path transform="translate(747,540)" d="m0 0 2 3v35h-3z" fill="#213676"/>
<path transform="translate(1444,435)" d="m0 0h2l10 31-1 4-11-28 1-3z" fill="#596381"/>
<path transform="translate(1762,216)" d="m0 0h2l1 10v19h-2l-2-14v-8z" fill="#515D80"/>
<path transform="translate(545,264)" d="m0 0h1l2 31-1 12h-2z" fill="#213676"/>
<path transform="translate(1045,276)" d="m0 0h12l1 2 3 30-2 1-4-29-1-2-9-1z" fill="#FEFEFE"/>
<path transform="translate(1085,572)" d="m0 0h1v5h29v2l2 1h-32z" fill="#FEFEFE"/>
<path transform="translate(1749,236)" d="m0 0h1l1 10-1 2 14-1 1-8h1v10l-6 2h-11l-1-6z" fill="#86888B"/>
<path transform="translate(935,209)" d="m0 0h3l3 4v2h2l4 6v2l3-1 1 2h-2v2l-3 1-9-12-2-3z" fill="#BDBEBF"/>
<path transform="translate(1131,206)" d="m0 0 2 3 4 9-1 5 3 12 1 5-1-2h-2l-7-29z" fill="#7E8392"/>
<path transform="translate(398,193)" d="m0 0 7 6 10 11 7 10-1 2-5-6v-2h-3l-2-5h-2l-6-9-5-5z" fill="#797D88"/>
<path transform="translate(1952,229)" d="m0 0 3 2v31l-2 1z" fill="#707686"/>
<path transform="translate(1401,203)" d="m0 0h3l12 15-1 3h-2l-7-9-5-6z" fill="#CACACC"/>
<path transform="translate(906,169)" d="m0 0 2 3 2 4 5 5 9 11v2l-4-2-7-7-7-12z" fill="#5B6582"/>
<path transform="translate(861,426)" d="m0 0h2l-1 8-1 47h-1v-53z" fill="#243876"/>
<path transform="translate(1823,133)" d="m0 0v3l-5 9-2 6-1 8-3-1 1-8 5-14z" fill="#42517D"/>
<path transform="translate(1233,461)" d="m0 0h1l5 26v7l-2-3-5-23z" fill="#4D597F"/>
<path transform="translate(441,279)" d="m0 0h1l1 15v18h-3v-12z" fill="#2F4179"/>
<path transform="translate(348,239)" d="m0 0h1v29h-3v-27z" fill="#86888B"/>
<path transform="translate(426,233)" d="m0 0 4 5 1 3v17l-2-4-1-6-2 2-1-7 2-1z" fill="#5A6482"/>
<path transform="translate(934,309)" d="m0 0 4 1-2 3-8 2h-10l2-1v-2z" fill="#656D84"/>
<path transform="translate(528,309)" d="m0 0 2 2-1 1h-29l-2-2z" fill="#213676"/>
<path transform="translate(1839,306)" d="m0 0 14 3h10l-4 3h-11l-10-3-1-2z" fill="#86888B"/>
<path transform="translate(1894,139)" d="m0 0 3 1 3 8 1 11-1 12h-1l-2-21z" fill="#FEFEFE"/>
<path transform="translate(903,169)" d="m0 0 2 4h2l8 13-1 2-4-2-6-10z" fill="#BEBFC0"/>
<path transform="translate(866,585)" d="m0 0 4 1 15 15-5-1-13-12z" fill="#566182"/>
<path transform="translate(1797,236)" d="m0 0h1l3 21v5h-2l-1 2-2-12v-5l1-2z" fill="#676E84"/>
<path transform="translate(1438,421)" d="m0 0h3l4 11 1 9-3-2-5-14z" fill="#515D80"/>
<path transform="translate(1773,277)" d="m0 0h1l3 29 1 1 11 1v1h-13l-1-1-2-17z" fill="#FEFEFE"/>
<path transform="translate(1412,212)" d="m0 0 5 5 6 7 3 6v6l-3-4-6-11-5-7z" fill="#4D597F"/>
<path transform="translate(1350,196)" d="m0 0h3l9 14 1 3-4-2-7-9-2-3z" fill="#4F5B7F"/>
<path transform="translate(1067,155)" d="m0 0h3l2 17h-2l-1 3-2-12z" fill="#4D597F"/>
<path transform="translate(1046,124)" d="m0 0h16l-2 2-10 1h-26v-1h22z" fill="#86888B"/>
<path transform="translate(840,573)" d="m0 0 6 4 13 4 8 3-3 1-13-3-10-6z" fill="#6C7385"/>
<path transform="translate(1793,225)" d="m0 0h2l3 20v6l-2-4-1-1-2-13z" fill="#45537D"/>
<path transform="translate(1040,188)" d="m0 0h1v17l-2 10-2 1 1-16z" fill="#FEFEFE"/>
<path transform="translate(910,555)" d="m0 0 2 1-7 14-8 7-1-2 4-5 5-5z" fill="#737887"/>
<path transform="translate(744,220)" d="m0 0h2v25l-2-4-1-20z" fill="#BDBEC0"/>
<path transform="translate(1694,132)" d="m0 0h2l4 10 1 5v12l-2-3-3-16z" fill="#606983"/>
<path transform="translate(1263,530)" d="m0 0h1v11l-2 9-2 5h-1v-11l3-8z" fill="#4D5A7F"/>
<path transform="translate(944,576)" d="m0 0 5 1 10 4 8 1v1l-10 1-10-4-3-2z" fill="#646D84"/>
<path transform="translate(1687,207)" d="m0 0 4 2 7 8 1 7v2h-2l-4-10-3-5h-2z" fill="#626B83"/>
<path transform="translate(1224,569)" d="m0 0 3 1 2 9 19 1v1h-22v-4z" fill="#3F4E7C"/>
<path transform="translate(1342,236)" d="m0 0 2 3v24h-1l-1-5h-1v-18z" fill="#7D8189"/>
<path transform="translate(884,300)" d="m0 0 4 1 7 6 16 5v1h-7l-12-5-8-7z" fill="#44527D"/>
<path transform="translate(381,157)" d="m0 0h1v16l-3 1-1-3v-11z" fill="#7F8289"/>
<path transform="translate(743,229)" d="m0 0h1l2 16-1 20h-1l-1-17z" fill="#606983"/>
<path transform="translate(1011,561)" d="m0 0 1 2-6 9-8 7-4 1 13-13z" fill="#83868A"/>
<path transform="translate(860,529)" d="m0 0h1l3 19 2 4-4-1-2-4z" fill="#3D4D7B"/>
<path transform="translate(1804,295)" d="m0 0h2l1 7 2 4v6h-5l3-4h-2l-1-5z" fill="#34467A"/>
<path transform="translate(1581,300)" d="m0 0 2 1-9 8-5 2-6-1 14-7z" fill="#FBFBFB"/>
<path transform="translate(375,219)" d="m0 0 7 6 7 7-1 3-5-4-7-8z" fill="#FBFBFB"/>
<path transform="translate(1143,162)" d="m0 0 1 2v6l1 1v3l1 3v3l-1 2-4-10-1-7z" fill="#C9CACC"/>
<path transform="translate(1052,122)" d="m0 0h13l1 9-1 5-2-4-1-9h-10z" fill="#39497B"/>
<path transform="translate(1875,116)" d="m0 0 3 2-1 1 4 3-6-1-11-2-11-1v-1h17l5 1z" fill="#535F80"/>
<path transform="translate(897,126)" d="m0 0 3 1-10 6-9 12 1-6 8-10z" fill="#FEFEFE"/>
<path transform="translate(1758,179)" d="m0 0h1v5l2 1-1 16h-2l-1-16z" fill="#586281"/>
<path transform="translate(1342,244)" d="m0 0h1l1 19 1 9-3 1z" fill="#3A4A7B"/>
<path transform="translate(773,224)" d="m0 0 2 3-1 13-1 2h-2l1-13z" fill="#334579"/>
<path transform="translate(776,197)" d="m0 0h3v9l-1 7-3-3z" fill="#4F5C7F"/>
<path transform="translate(1517,561)" d="m0 0 2 1v17l-2-1-1-16z" fill="#213676"/>
<path transform="translate(1161,195)" d="m0 0h1v23l-2-3-1-11z" fill="#FEFEFE"/>
<path transform="translate(1437,500)" d="m0 0 2 3 6 16-1 2-2-1-5-16z" fill="#656E84"/>
<path transform="translate(1429,255)" d="m0 0h1l1 19-1 7-2-4z" fill="#86888B"/>
<path transform="translate(1076,199)" d="m0 0h1l2 15h-2l-1 2-2-11 1-4z" fill="#505C7F"/>
<path transform="translate(889,125)" d="m0 0 2 1 1 3-6 5-2-2-2 1 2-4z" fill="#4E5A7F"/>
<path transform="translate(1815,272)" d="m0 0h1l3 16h-3l-3-11 1-3z" fill="#576281"/>
<path transform="translate(379,229)" d="m0 0h3l5 5 3 5-2 2-9-10z" fill="#666E84"/>
<path transform="translate(1342,156)" d="m0 0h1l1 22-2-2-1-3v-12z" fill="#38487A"/>
<path transform="translate(928,121)" d="m0 0 9 1 3 2v2h-3v-2l-4-1v2l3 1-2 1-7-3z" fill="#525D80"/>
<path transform="translate(943,573)" d="m0 0h5l9 5-1 2-6-1-7-5z" fill="#E4E5E5"/>
<path transform="translate(1389,191)" d="m0 0 6 3 7 8-2 3-9-10z" fill="#EBEBEB"/>
<path transform="translate(782,159)" d="m0 0 3 2-1 11-1 7h-1l-1-13z" fill="#808389"/>
<path transform="translate(1014,150)" d="m0 0h3l-2 17h-2v-10z" fill="#5B6582"/>
<path transform="translate(1731,130)" d="m0 0h1v10l-1 8h-2v-11z" fill="#4E5A7F"/>
<path transform="translate(1429,469)" d="m0 0 2 2 1 10v8l-2 1z" fill="#FEFEFE"/>
<path transform="translate(1429,401)" d="m0 0h3l2 6v7h-2l-3-10z" fill="#ACAEB0"/>
<path transform="translate(367,209)" d="m0 0 4 4v2l4 2 1 2-2 3-7-8z" fill="#9FA1A3"/>
<path transform="translate(1127,199)" d="m0 0 3 3 1 8-1 9h-1z" fill="#FEFEFE"/>
<path transform="translate(391,188)" d="m0 0 4 2 3 2 3 5 5 6-4-2-11-11z" fill="#4C597F"/>
<path transform="translate(1882,292)" d="m0 0h1v7l-4 4-4-2z" fill="#F7F7F7"/>
<path transform="translate(1030,282)" d="m0 0h1v16l-3-1 1-14z" fill="#525D80"/>
<path transform="translate(1352,130)" d="m0 0v3l-5 8-2 3-1-4 4-8z" fill="#324479"/>
<path transform="translate(1855,114)" d="m0 0 17 1 3 1v2h-5v-2h-17z" fill="#97989B"/>
<path transform="translate(1127,122)" d="m0 0 3 1 3 8v5l-2-1-4-10z" fill="#47557E"/>
<path transform="translate(880,297)" d="m0 0 4 2 5 6 4 4h-3l-6-5z" fill="#6A7185"/>
<path transform="translate(418,223)" d="m0 0h3l3 6-1 5-3-4-2-3z" fill="#BCBDBF"/>
<path transform="translate(1390,187)" d="m0 0 3 1 3 5 8 9h-3l-10-11z" fill="#4B587E"/>
<path transform="translate(1665,178)" d="m0 0h1l1 11-3 7h-3l3-7z" fill="#FEFEFE"/>
<path transform="translate(901,588)" d="m0 0 5 5 3 5-4-1-5-6z" fill="#EBEBEC"/>
<path transform="translate(1077,214)" d="m0 0h2l1 4v10h-2l-1-6z" fill="#3A4A7B"/>
<path transform="translate(1070,172)" d="m0 0h2l1 2v11l-2-1-1-3z" fill="#3A4A7B"/>
<path transform="translate(785,149)" d="m0 0h1v9l-2 6h-1v-12z" fill="#46547D"/>
<path transform="translate(1515,570)" d="m0 0h2l1 8 2 3-4 1-1-1z" fill="#82858A"/>
<path transform="translate(1424,286)" d="m0 0 1 2-6 11-4 4v-3l6-9z" fill="#FEFEFE"/>
<path transform="translate(1799,262)" d="m0 0h2l1 2v11l-3-4z" fill="#3E4D7C"/>
<path transform="translate(875,144)" d="m0 0h2l1 4-4 9h-1l1-9z" fill="#687084"/>
<path transform="translate(1434,484)" d="m0 0 2 3 2 8-1 5h-1l-3-14z" fill="#F2F2F2"/>
<path transform="translate(1349,293)" d="m0 0 3 1 8 11-1 2-8-9z" fill="#3F4E7C"/>
<path transform="translate(1832,125)" d="m0 0 3 2-5 4-5 7-1-2 6-9z" fill="#F6F6F6"/>
<path transform="translate(1019,122)" d="m0 0 2 2-1 11-3-2 1-10z" fill="#4C597F"/>
<path transform="translate(424,233)" d="m0 0 4 5v6l-3-1-2-9z" fill="#CCCDCE"/>
<path transform="translate(773,217)" d="m0 0h1l2 6v4h-2l-2 8h-1v-7z" fill="#86888B"/>
<path transform="translate(1154,203)" d="m0 0 2 3 1 7h2l1 6-3-1-3-11z" fill="#E7E4E2"/>
<path transform="translate(905,590)" d="m0 0 4 2h2l1 5h-4l-3-4z" fill="#41507C"/>
<path transform="translate(836,567)" d="m0 0 4 2 9 9-4-1-9-8z" fill="#3D4D7C"/>
<path transform="translate(909,231)" d="m0 0 7 6 3 5-3 1-6-9z" fill="#535F80"/>
<path transform="translate(365,128)" d="m0 0 4 1-8 6-4 5 1-5z" fill="#FEFEFE"/>
<path transform="translate(1443,520)" d="m0 0 3 2 3 10h-3l-3-9z" fill="#4A577E"/>
<path transform="translate(1430,392)" d="m0 0 2 2 2 7v6l-2-3-3-11z" fill="#515D80"/>
<path transform="translate(1795,236)" d="m0 0h2l1 15-2-4-1-1z" fill="#334579"/>
<path transform="translate(1262,541)" d="m0 0h1l-1 9-2 5h-1v-10l2-1z" fill="#636B83"/>
<path transform="translate(1802,271)" d="m0 0h1l1 10h-2l-1 2-1-10z" fill="#5B6582"/>
<path transform="translate(348,170)" d="m0 0h1l1 12-3 1-1-10z" fill="#636B83"/>
<path transform="translate(781,171)" d="m0 0h1v10l-3 2 1-11z" fill="#43527D"/>
<path transform="translate(1823,133)" d="m0 0v3l-4 6-3 1 2-7z" fill="#38487A"/>
</svg>
