<?xml version="1.0" encoding="UTF-8"?>
<svg version="1.1" viewBox="0 0 2048 663" width="500" height="162" xmlns="http://www.w3.org/2000/svg">
<path transform="translate(130,81)" d="m0 0h10l6 5 1 3v22h25l102 1 7 1v-20l5-5 2-1h9l6 4 1 2v19l10-1v-21l1-7 6-2h10l5 4 2 20 1 25-1 5-1 22v14l2 1v22l-1 14-1 27v47l2 13v16l-2 16-1 25 3 1v18l-2 22v52l1 29v83l-1 23-9 4-10-2-4-3v-47h-10v52l-5 5-4 2-9-2-5-5v-45h-134v35l-2 6-5 4h-9l-6-4-1-2v-39h-10v44l-6 7-2 1-9-1-5-4-1-2-1-10v-478l2-5 5-4 2-1h6l6 4 3 3v24l9-1 1-30 4-4zm26 33-17 1v1h142v-1l-9-1zm155 19-7 1v77l10 5 1-15v-67zm-166 8m91-1-51 1 4 3 29 16 28 17 25 14 10 6v-57zm-89 2 3 3 2-1-1-2zm5 3m7 4m1 1m-46 1v154l8-4 2-3v-141l-9-6zm48 0m2 1m1 1m2 1m2 1m2 1m1 1m2 1m-48 1m50 0m-49 1m51 0m-49 1m50 0m-48 1m50 0m-48 1m50 0m-49 1m51 0m-49 1m50 0m-48 1m50 0m2 1m2 1m1 1m-47 1v118l6-2 42-21 23-11 34-17 5-2v-2l-20-11-22-13-67-39zm49 0m2 1m2 1m1 1m2 1m2 1m1 1m2 1m2 1m2 1m1 1m2 1m2 1m1 1m2 1m2 1m2 1m1 1m2 1m31 0m-29 1m31 0m-29 1m30 0m-29 1m31 0m-29 1m30 0m-28 1m30 0m-29 1m30 0m-28 1m30 0m-28 1m30 0m-28 1m1 1m2 1m2 1m2 1m1 1m2 1 1 2 2-1zm3 2m2 1m2 1m1 1m2 1m2 1m2 1m1 1m2 1m2 1m1 1m2 1m2 1m2 1m1 1m33 23-8 3v152l10 5v-160zm-33 8-26 13-23 11-54 27-23 11-12 6 3 1 27-13 23-11 46-23 23-11 18-9v-2zm1 7-29 15-29 14-54 27-3 2 8 5 28 16 29 17 15 9 29 17 7 4v-126zm55 27-1 16v32h1l1-27v-21zm-205 11m-2 1m-2 1m12 22-3 2 4 3 2-1v-3zm3 5m2 1m1 1m1 1m2 1m2 1m1 1m2 1m2 1m1 1m2 1m2 1m1 1m-46 1v162l8-4 1-1 1-23 1-127-8-6zm48 0m2 1m2 1m1 1m2 1m2 1m1 1m2 1m-48 1m50 0m-49 1m50 0m-48 1m50 0m-48 1m50 0m-48 1m50 0m-49 1m50 0m-48 1m50 0m-48 1m50 0m-49 1m51 0m1 1m2 1m-47 1v126l6-2 30-15 23-11 44-22 15-7-5-4-18-10-15-9-26-15-22-13-26-15zm49 0m2 1m1 1m2 1m2 1m2 1m1 1m129 0v17h1v-17zm-127 1m2 1m1 1m2 1m2 1m2 1m1 1m2 1m2 1m1 1m2 1m2 1m31 0m-29 1 1 2 2-1zm30 0m2 1m-29 1m31 0m-29 1m30 0m-28 1 1 2 2-1zm30 0m1 1m-28 1m30 0m-28 1 1 2 2-1zm29 0m2 1m-28 1m2 1m2 1 1 2 2-1zm3 2m2 1m2 1 3 3 2-1zm5 3m2 1 1 2 2-1zm3 2m2 1 1 2 2-1zm3 2m2 1 1 2 2-1zm3 2m2 1 3 3 2-1-2-2zm36 33-8 4v70l10 1v-75zm-32 8-23 11-47 23-50 25-21 10-3 2 9-1 24-11 27-14 35-18 32-16 18-8 1-3zm0 7-23 12-23 11-56 28-18 8-3 2 38-1h84l2-1v-59zm-148 37m-4 2m25 22 4 1z" fill="#DE6915"/>
<path transform="translate(1348,157)" d="m0 0h21l10 3 6 4 8 9 5 9 2 14 2 24h1l-2-30v-31h75v15h13l11-11 10-5 5-1h21l10 3 9 6 9 11v2l4 2 6 7 5 11 1 5 1 19v97l-2 15-4 11-8 10-9 6-6 2-7 1h-12l-12-3-10-6-15-16-7-10-5-13-2-13v-102h-8l-5-1v161h-32v-14h-13l-1-1-1-144-6-3v-12l-10-1 3 12 2 15 1 23-12 1h-17l-2-15h-12l-1-3-1-17-5-15-2-1 3 7v9l-1 7v14l6 8 9 10 11 12 9 11 8 10 6 13 3 14v25l-3 15-5 9-5 6-8 5-13 3h-13l-12-3-9-6-7-7-7-8-6-8-5-13-2-9-1-9v-26l2-1h28l1 1 3 38 1 3-1-26 1-1h7l1 1v28l-1 2 6-2 2-5 1-14-2-12-6-12-9-11-9-9-9-11-8-11-6-14-2-8v-18l4-16 4-8 4-5 10-6zm7 29-2 4 4-4zm65 2 1 4zm37 0v115h1l1-17 1-41v-57zm62 1 1 2zm-167 1 1 2zm166 1-1 2v119l2 7h2l-1-97-1-31zm-167 2m3 5-1 10-2-2 1 7 3 5h1l-1-20zm179 3-5 8-1 12-1 100h5l4-5 1-5 1-107-1-3z" fill="#959799"/>
<path transform="translate(1095,431)" d="m0 0h47l10 2 7 5 6 10 2 5 1-18 1-3 20-1h33l11 53 5 31 6-32 9-50 1-1 17-1h34l1 183-13 1h-29l-1-1-1-24v-70l-3 22 2-4v43l-2 26-3 7h-8-3-27l-8-32-5-24 7 50v6h-8l-2-5-1 4-2 2h-30l-1-93-6 10-9 8-5 2-18 2h-9v70l-14 1h-32l-1-1 1-182zm45 2v2l2-1zm154 0-1 55v97h1l2-89 1-16v-43h-2v-3l3-1zm-152 2m1 1m1 1m1 1m1 1m1 1m1 1 1 2zm1 2m1 2m3 5m-45 7m9 1 2 6 1 50-2 1 4-1 3-4 1-5v-34l-3-9-4-4zm146 50 1 4zm-67 3m-83 4v1h5v-1zm-5 1v1h5v-1zm45 14m-1 1m-3 1m-1 1 1 2zm-1 2m-1 1m-1 1m84 0 1 2zm-28 1m-57 2m86 1v7l2 3v-8zm-28 1 1 4zm55 4 1 3zm-54 2 1 4zm52 9m-1 4v5h1v-5zm-1 5v5h1v-5zm-1 5v6h1v-6zm-1 6-4 23v5l3-2 1-14 1-12zm42 9 1 4zm-47 19 1 4zm2 0v5h1v-5z" fill="#999A9C"/>
<path transform="translate(1586,159)" d="m0 0h57l9 2 8 5 8 12 6 3 6 9 3 11 1 8v32l-3 11-4 6-4 3 6 8 3 12 2 32 4-24 18-126 1-4h41l3 14 3 13 5 33-1-16-4-29 6-1 2 4 16 109 8 47 4 24v5h-30l-2-15-2 1h-9l-3-17v-2h-15l-2 21-2 12h-30v-15h-10v15h-31l-1-13-13-1-1-3-2-70-5-1v88h-31l-1-3v-12l-3 1h-10l-1-2zm34 27v48h3v-40l-1-4 1-4zm9 0 2 3 2-2zm1 12v36l5-2 3-7v-25l-1-2zm97 21-3 33-2 18v7h1l2-10 4-36v-7l-1-5zm33 7v6h1v-6zm1 7v5h1v-5zm1 7v5h1v-5zm1 7 1 4zm1 9 1 2zm-30 7 1 2zm-101 2m1 1 1 2zm1 3m100 0 1 4zm1 4v16h3v-7l-2-9zm-15 7 1 2z" fill="#243878"/>
<path transform="translate(859,429)" d="m0 0h29l11 4 8 7 7 11 3 9v121l-4 13-8 12-6 8 9 8 5 7-1 5-5 3-20 2h-9l-8-7-14-14-13-3-10-7-6-7-6-11-2-11-2-46-30 2v52h31l2 1 1 9v17h-7l-1-8-1 8h-4l-1 1h-66l-1-2v-181l26-1h53v26l-1 1-14 1h-18v48h32v-14l1-25 4-15 6-10 9-8 8-4zm-53 4m2 22m-35 4m91 0v24l1 105h2l4-8 1-14v-86l-1-14-4-6zm-91 76m34 54 1 4zm1 10v12h1v-12z" fill="#263A79"/>
<path transform="translate(1334,431)" d="m0 0h85l8 24-4-13-2-7 1-4h9l9 24 9 25 1-47 1-1 18-1h11l1 51v132l-1 1h-24l-8-20-12-32-2-4 1 10 1 45-14 1h-31l-2-2-3 1h-5-2l-1 1h-67l-1-13 1-170zm43 3v20h1l1-20zm13 0v23h-10-3l-3 1-17 1v48h32v26l-9-1v-24h-3l-1 2v23l-19 1v53h34l1-51-1-102zm-13 21m51 3 1 3zm-84 1 1 48h4l-1-23-1-22 1-3zm85 3 1 2zm1 3 1 2zm1 4m1 3m1 3m1 2 1 2zm1 3 1 2zm1 3 1 2zm1 2 1 3zm1 3 1 5 1-3zm2 5 1 3zm1 3 2 9 7 19h1l-1-8-4-11-4-9zm-21 22m1 2 1 2zm30 4 1 2zm-107 11 2 4v-3l3-1zm1 5v48l4-1v-13l-2-4-1-30zm34 49m1 16 1 4z" fill="#969799"/>
<path transform="translate(1820,157)" d="m0 0h20l11 3 9 7 9 11 7 6 6 12 2 8 1 12v26h-14l1 15 13 1v104h-16l-3-13-6 8-9 6-4 1h-17l-10-4-10-9-11-12-7-11-4-12-2-13v-104l4-16 6-12 5-5 8-6zm18 43-5 5-2 9v29l1 1h23l1-2-1-15h-14v-25l-1-2zm-1 66-6 1v54l3 1 5-5 3-10 1-13v-13l-1-15z" fill="#243878"/>
<path transform="translate(1519,158)" d="m0 0h12l14 3 9 6 6 5 4 5v2l4 2 6 7 5 11 1 5 1 19v97l-2 15-4 11-8 10-9 6-6 2-7 1h-12l-12-3-10-6-15-16-4-5-6-16-2-11v-112l3-14 4-8 10-10 7-4zm0 31 1 2zm-1 2-1 2v119l2 7h2l-1-97-1-31zm15 10-5 8-1 12-1 100h5l4-5 1-5 1-107-1-3z" fill="#253978"/>
<path transform="translate(940,431)" d="m0 0h12l1 3 1-3h12l1 156 4-3 1-11v-140l1-1 17-1h15l1 5v9l1-14h11v147l-2 13-5 10-5 6-9 6-6 2-15 2h-26l-11-4-8-7-6-9-4-13-1-9v-143zm65 131-1 20-2 11-6 10-7 7h3l6-4 7-9 1-2 1-16-1-17z" fill="#253978"/>
<path transform="translate(1286,433)" d="m0 0h3v46l-1 135h-23v-102l1-20 1-2h-2l-2 10-5 28-9 45-7 40h-22l-3-8-3-17-2-7-4-23-8-43-3-19-1-3-2-1 1 20v102h-24v-180h34l3 15 2 6 3 18 2 7 3 17 3 12 3 14 3 18 2 10 1 11 2-1 10-57 4-23 1-9 2-8 3-16 2-14z" fill="#243878"/>
<path transform="translate(1192,155)" d="m0 0h47l12 2 10 6 6 7 5 12 4 29 2 71v37l-2 13-4 10-4 6-7 7-11 4-10 1h-43v-24l-5-1-1-12v-45zm33 24v107l1 26 9-1 6-5 2-6v-95l-4-2-12-1 1-20 7 1 2 1-1-3-9-2zm12 5 1 6 1-4zm2 6 1 4zm1 5 1 3zm33 106 1 4zm-1 6 1 3zm-1 4 1 2z" fill="#273A78"/>
<path transform="translate(442,155)" d="m0 0h30l1 1 1 22 2 2v47h17l1-72h30l1 1 1 23 2 1 1 179-4 1h-26l-1-23-4-3v-57h-18v21l1 36v26h-30l-1-24-3-1-1-6zm32 100v14h1v-14z" fill="#243878"/>
<path transform="translate(1086,155)" d="m0 0h24l3 5 6 15 19 54 7 19-1-21v-72h28l1 3v20l2 1 1 128 1 37v15l-2 1h-21l-8-25-12-36-14-41-4-16 2 30 1 51 1 22v14l-15 1h-13l-1-4v-20h-3l-1-2-1-71z" fill="#243878"/>
<path transform="translate(895,153)" d="m0 0h20l10 3 8 6 5 8 3 9 5 31 1 7v23h-19l9 14 6 13 3 16 4 25v14l-2 14-4 10-6 8-8 5-12 3h-15l-12-3-8-6-6-9-4-11-3-17-4-17-1-17v-15l25-1-6-8-7-11-5-10-1-7 5 5 8 11 12 13 10 13 9 15-4-10-8-12-9-11-9-10-12-16-5-12-3-11v-16l4-15 5-9 9-8 7-3zm8 27-4 3 1 2 5-2 5 10 2 5h1l-1-10-4-6zm-5 5 1 2zm-1 2 1 2zm16 13-8 4-7 2 5 10 9 10 9 6-1-13-2-3h-2l-2-16zm-18 69v20l2 4 2 14 2 4 7 1 6-5 2-5v-6l-8-11-9-12z" fill="#253978"/>
<path transform="translate(380,153)" d="m0 0h19l10 3 8 6 6 12 4 17 4 30v18l-1 1h-17l-2-1 9 14 6 13 3 12 4 29v21l-2 11-5 10-8 8-10 4-7 1h-15l-8-2-8-4-7-8-5-10-2-6 1-8-5-16-2-15v-26l23-1-4-6-9-14-5-10-1-5 4 1 9 13 16 17 12 17 3 4-5-10-8-11-9-10-7-8-12-16-6-16-1-6v-19l3-13 5-9 9-8zm7 27-2 2 7 2 4 5-1-5-4-4zm-3 2m-1 1v3zm-2 3 1 2zm15 5v6h1v-6zm0 10-9 4-4 1 1 5 8 10 11 11h2l-2-14-1-2h-3v-8l-2-7zm-14 4m-26 28m1 2m21 33m1 1v21l2 2 2 15 3 5h6l6-5 2-5v-6l-7-11-11-13zm20 17 1 2zm30 16 1 4zm-1 4v5h1v-5zm-1 5 1 3z" fill="#253878"/>
<path transform="translate(321,81)" d="m0 0h10l5 4 2 20 1 25-1 5-1 22v14l2 1v22l-1 14-1 27v47l2 13v16l-2 16-1 25 3 1v18l-2 22v52l1 29v83l-1 23-9 4-10-2-4-3v-47h-10l-1-21 5-1 6 1v-75l-9 4-1 6h-1v-47l1-2 5 2 4 2 1-159-10 3-1 3v-130l1-6 10-1v-21l1-7zm-10 52-7 1v77l10 5 1-15v-67zm24 151-1 16v32h1l1-27v-21zm-1 78v17h1v-17z" fill="#AFB0B1"/>
<path transform="translate(1890,159)" d="m0 0h65l1 3v12h9l4 1v26h-34v36h19v15h13v27h-32v41h22v14h13v28h-66l-1-2v-12h-13l-1-25v-163zm34 68v10l2-1-1-9zm0 91 1 2z" fill="#253978"/>
<path transform="translate(1009,155)" d="m0 0h39l2 10 14 87 15 96 1 12h-29l-4-24-2-9-23 1-4 29-3 3h-27l1-16 1-8h-7l1-12 22-154 2-13zm19 53-2 30-5 38 1 4 1-1 1-9h1l4-37-1 30v17h10l1-3-4-32-4-23-2-14zm-11 97v7h1l1-7zm-1 7v7h1v-7zm-1 7v7h1v-7zm-1 7v5h1v-5z" fill="#293D7A"/>
<path transform="translate(1588,161)" d="m0 0h60l8 4 8 9 3 7 1 8v40l-2 8-3 5-7 4v3l8 7 3 5 1 11 2 62v12h-29l-1-58-1-21-1-4h-2v-2l-20-2v87h-28zm32 25v48h3v-40l-1-4 1-4zm9 0 2 3 2-2zm1 12v36l5-2 3-7v-25l-1-2z" fill="#253978"/>
<path transform="translate(790,155)" d="m0 0h63l1 5 1 21h2l1 24-34 1v24h28v24l4 1v25l-32 1v28h30l1 1v22l4 2v25l-17 1h-47v-24l-5-1z" fill="#263978"/>
<path transform="translate(544,155)" d="m0 0h63l1 1v23l4 1v25h-35l1 2v23h28v24l4 1v25h-32l-1-20 1-3h-2l2 27v25h30l1 1 1 23 3 1 1 25-38 1h-27v-24l-4-1-1-8z" fill="#283B79"/>
<path transform="translate(688,155)" d="m0 0h29l10 60 6 42 2 19 4-36 8-67 2-17 1-1h29l-4 37-17 115 5-26 11-74 5-27 3-2v9l-24 168-2 5h-35l-2-5-3-18-4-20-16-103-8-53z" fill="#253978"/>
<path transform="translate(1392,433)" d="m0 0h24l12 37 13 36 7 18 4 12 1 1-1-47v-57h24v181h-19l-6-17-5-14-4-10-6-16-14-43-4-8-2-1 1 3 1 54v52h-25z" fill="#243878"/>
<path transform="translate(1484,431)" d="m0 0h90v13l-1 14h-9l-1-3v-14h1l1 12 1-20-4 1v24l-8 1-1 155h-8l-1-39v-108l1-8h-4v155l-1 1h-32v-156h-16l1 76v79h-8l-1-123z" fill="#293C79"/>
<path transform="translate(1586,159)" d="m0 0h57l9 2 8 5 8 12 6 3 6 9 3 11 1 8v32l-3 11-4 6-4 3 6 8 3 12 2 32 4-24 18-126 1-4h41l3 14 3 13 5 33-1-16-4-29 6-1 2 4 16 109 8 47 4 24v5h-30l-2-15-2 1h-9v-2h27l-13-77-7-45-5-39-2-17v-7h-38l-3 22-7 48-1 3-1 11-1 3-1 11-3 17-1 12-1 3-5 47-1 7h25l1-11 1-3 2-17 1-1h30l2 2 1 14v16h-1l-2-16h-15l-2 21-2 12h-30v-15h-10v15h-31l-1-13-13-1-1-3-2-70-5-1v88h-31l-1-3v-12l-3 1h-10l-1-2zm2 2v185h28v-87l14 1 6 1v2h2l1 4 1 21 1 58h29l-1-49-1-25-1-11-3-5-8-7v-3l8-5 3-6 1-6v-40l-2-10-4-8-7-7-7-3zm172 65v6h1v-6zm1 7v5h1v-5zm1 7v5h1v-5zm1 7 1 4zm1 9 1 2zm-131 9m1 1 1 2z" fill="#949597"/>
<path transform="translate(1077,434)" d="m0 0h48l12 3 8 7 6 9 3 11 1 8v34l-3 14-7 14-9 6-10 2h-22l1 4v68h-28zm31 23m9 1 2 6 1 50-2 1 4-1 3-4 1-5v-34l-3-9-4-4zm-4 57v1h5v-1zm-5 1v1h5v-1z" fill="#243878"/>
<path transform="translate(1351,158)" d="m0 0h13l14 3 8 6 4 5 5 14 2 11 1 12v11h-27l-1-2-1-25-4-8-3-2h-7l-5 5-3 5-1 5v7l4 10 7 8 5 6 6 5 7 8 8 9v3h2v3h2l8 16 4 12 1 8v15l-3 15-7 14-8 7-7 3-5 1h-17l-10-3-11-6-6-10-4-13-2-15v-22l1-1h26v32l4 10 5 4h6l7-6 1-3v-25l-7-14-9-11-10-10-2-3-5-3-3-6-7-11-4-8-3-13v-22l3-10 5-9 5-5 5-3 7-3z" fill="#253878"/>
<path transform="translate(624,155)" d="m0 0h31l1 23 2 2v130h31l1 9v15l4 1v24l-65 1v-24l-5-1z" fill="#253978"/>
<path transform="translate(1041,431)" d="m0 0h27v183l-12 1h-33v-183z" fill="#243878"/>
<path transform="translate(742,433)" d="m0 0h22l39 1v24h-23l-10-1v52h31v23l-1 1h-15l-15-1v58h34v24h-62z" fill="#253978"/>
<path transform="translate(1314,434)" d="m0 0h61v23h-35l1 52 31 1v22l-6 1-26-1v58h35v23l-15 1h-46z" fill="#243878"/>
<path transform="translate(1820,157)" d="m0 0h20l11 3 9 7 9 11 7 6 6 12 2 8 1 12v26h-14l1 15 13 1v104h-16l-3-13-6 8-9 6-4 1h-17l-10-4-10-9-11-12-7-11-4-12-2-13v-104l4-16 6-12 5-5 8-6zm3 1-12 3-8 5-7 8-4 7-3 11-1 9v104l3 16 4 10 7 9 13 6 3 1h16l5-1v-2l6-2 5-6 2-5h2l1 9 5 5 7 1 1-3 1-50v-48h-38v20l13 1-1 40-2 8-4 7-2 1v2h-9l-6-4-2-3-1-6v-116l3-7 5-4h9l6 5 2 6 1 30h27l-1-35-4-13-6-9-8-6-16-4zm15 42-5 5-2 9v29l1 1h23l1-2-1-15h-14v-25l-1-2zm-1 66-6 1v54l3 1 5-5 3-10 1-13v-13l-1-15z" fill="#97989A"/>
<path transform="translate(1403,160)" d="m0 0h72v26h-20v160h-30v-160h-18l-3-3-1-3z" fill="#283C79"/>
<path transform="translate(940,431)" d="m0 0h12l1 3 1-3h12l1 156 4-3 1-11v-140l1-1 17-1h15l1 5v9l1-14h11v147l-2 13-5 10-5 6-9 6-6 2-15 2h-26l-11-4-8-7-6-9-4-13-1-9v-143zm-18 2v147l4 16 5 8 9 8 9 3 6 1h15l9-2 8-4 7-7 4-7 3-10 1-10v-143h-27l-1 1-1 150-1 4-4 2-1 1h-11l-4-4-2-13-1-141zm83 129-1 20-2 11-6 10-7 7h3l6-4 7-9 1-2 1-16-1-17z" fill="#959698"/>
<path transform="translate(1890,159)" d="m0 0h65l1 3v12h9l4 1v26h-34v36h19v15h13v27h-32v41h22v14h13v28h-66l-1-2v-12h-13l-1-25v-163zm1 1v51l1 135 64-1-1-23h-35v-59l33-1v-23h-33v-54h34v-25zm33 67v10l2-1-1-9zm0 91 1 2z" fill="#97989A"/>
<path transform="translate(790,155)" d="m0 0h63l1 5 1 21h2l1 24-34 1v24h28v24h-2v-22h-30v-53h32v-22h-60v177l33-1h28l-1-21h-32v-57l35-1 1 1v25l-32 1v28h30l1 1v22l4 2v25l-17 1h-47v-24l-5-1z" fill="#B7B7B8"/>
<path transform="translate(544,155)" d="m0 0h63l1 1v23l4 1v25h-35l1 2v23h28v24h-1v-22h-31l-1-10v-43h33v-22h-60v177l32-1h29v-22l-33 1v-57h36v25h-32l-1-20 1-3h-2l2 27v25h30l1 1 1 23 3 1 1 25-38 1h-27v-24l-4-1-1-8z" fill="#959698"/>
<path transform="translate(1586,159)" d="m0 0h57l9 2 8 5 8 12 6 3 6 9 3 11 1 8v32l-3 11-4 6-2 2h-5l3 45 1 43-21 1-13-1-1-3-2-70-5-1v88h-31l-1-3v-12l-3 1h-10l-1-2zm2 2v185h28v-87l14 1 6 1v2h2l1 4 1 21 1 58h29l-1-49-1-25-1-11-3-5-8-7v-3l8-5 3-6 1-6v-40l-2-10-4-8-7-7-7-3zm45 104m1 1 1 2z" fill="#949698"/>
<path transform="translate(1484,431)" d="m0 0h90v13l-1 14h-9l-1-3v-14h1l1 12 1-20-4 1v24l-8 1-1 155h-8l-1-39v-108l1-8h-4v155l-1 1h-32v-156h-16l1 76v79h-8l-1-123zm5 3v22l4 1 15 1 1 156h28v-157h19l1-8v-15z" fill="#959698"/>
<path transform="translate(766,431)" d="m0 0h53v26l-1 1-14 1h-18v48h32v-14l1-25 4-15 4-7 1 3-4 9-3 16v101l4 17 4 8 5 6 10 7 12 2 2 3-12-2-8-4-9-8-7-11-2-6-1-8-2-46-30 2v52h31l2 1 1 9v17h-7l-1-8-1 8h-4l-1 1h-66l-1-2v-181zm-24 2v181h62v-24h-34v-58l15 1h15l1-1v-23h-31v-52l10 1h23v-24l-39-1zm64 0m2 22m-35 4m0 76m34 54 1 4zm1 10v12h1v-12z" fill="#EAEAEB"/>
<path transform="translate(442,155)" d="m0 0h30l1 1 1 22 2 2v47h17l1-72h30l1 1 1 24-1 22-1 114-1 12h-1v-150l1-21h-27v70l-1 1-23 1-1-1v-71h-27v177l7-1h20v-82h16l9 1v82h32l1 4v21l-4 1h-26l-1-23-4-3v-57h-18v21l1 36v26h-30l-1-24-3-1-1-6zm32 100v14h1v-14z" fill="#9DA0A5"/>
<path transform="translate(281,251)" d="m0 0 1 4-4 4-27 14-29 14-56 28 24 14 18 10 28 17 28 16 16 10 1 1v22l-12-6-15-9-49-28-3-1-4-3-3-1-4-3-3-1-4-3h-2l-3-3-4-1-3-3h-2l-3-3-4-1-3-3h-2l-3-3h-2l-3-3h-2l-4-4h-2l-3-6 32-15 23-11 46-23 23-11z" fill="#AEAFB0"/>
<path transform="translate(859,429)" d="m0 0h29l11 4 8 7 7 11 3 9v121l-4 13-8 12-6 8 9 8 5 7-1 5-5 3-10 1h-9l4-2v-8l-8-8-3-4 1-5 6-5 6-10 4-12 2-16v-79l-2-28-3-9-8-10-9-6-10-3-12-1-10 2-8 4-9 8v-3l9-8 8-4z" fill="#959698"/>
<path transform="translate(1558,171)" d="m0 0 5 5 1 3 4 2 6 7 5 11 1 5 1 19v97l-2 15-4 11-8 10-9 6-6 2-7 1h-12l-12-3-10-6-15-16v-3l5 4 9 3 10 3h14l13-4 9-8 6-12 2-9 1-27v-73l-1-22-4-15-2-3z" fill="#989A9C"/>
<path transform="translate(1086,155)" d="m0 0h24l3 5 6 15 19 54 7 19-1-21v-72h28l1 3v20l2 1 1 128 1 37v15l-2 1h-21l-8-25-12-36-14-41-4-16 2 30 1 51 1 22v14l-15 1h-13l-1-4v-20h-3l-1-2-1-71zm8 1-6 1v177h26l1-1v-21l-1-65-1-19 10 25 12 35 12 36 4 10h21v-147l-1-30h-25v99l-4-10-4-13-4-10-4-13-4-10-7-21-4-9-4-10-2-4z" fill="#97989A"/>
<path transform="translate(1095,431)" d="m0 0h47l10 2 7 5 6 10 3 9v57l-1 9-5 9-9 8-5 2-18 2h-9v70l-14 1h-32l-1-1 1-182zm45 2v2l2-1zm-63 1v180h28v-69l-1-3h22l10-2 9-6 7-14 3-14v-34l-3-16-4-8-9-10-8-3-6-1zm65 1m1 1m1 1m1 1m1 1m1 1m1 1 1 2zm1 2m1 2m3 5m0 80m-1 1m-3 1m-1 1 1 2z" fill="#A9AAAC"/>
<path transform="translate(380,153)" d="m0 0h19l10 3 8 6 6 12 4 17v6h-1l-6-25-6-9-5-4-8-3-6-1h-12l-13 3-9 7-3 4-3 6-2 9v25l5 15 9 13 5 5 9 10 9 9 9 13 3 9 1 12-4 13-7 6-7-1-7-9-1-3-1-31-24-1 1 29 4 18 4 7 1 3 14 7 7 2h17l10-4h3l2-4 5-6 5-12 1-7 1-18h1l2 10h1l2 13v21l-2 11-5 10-8 8-10 4-7 1h-15l-8-2-8-4-7-8-5-10-2-6 1-8-5-16-2-15v-26l23-1-4-6-9-14-5-10-1-5 4 1 9 13 16 17 12 17 3 4-5-10-8-11-9-10-7-8-12-16-6-16-1-6v-19l3-13 5-9 9-8zm-24 80m1 2m21 33m1 1v21l2 2 2 15 3 5h6l6-5 2-5v-6l-7-11-11-13zm20 17 1 2zm30 16 1 4zm-1 4v5h1v-5zm-1 5 1 3z" fill="#959698"/>
<path transform="translate(890,154)" d="m0 0 4 1-9 4-8 6-5 8-3 11-1 9v15l4 10 5 10 8 10 10 10 11 14 5 6 5 10 1 5v21l-3 5-5 5h-6l-5-5-4-8-1-5v-25l-1-1-24-1 1 30 1 8 4 10 4 7 7 6 10 4 4 1h16l10-3 8-6 6-10 3-10 1-12 1-9 2-2 4 25v14l-2 14-4 10-6 8-8 5-12 3h-15l-12-3-8-6-6-9-4-11-3-17-4-17-1-17v-15l25-1-6-8-7-11-5-10-1-7 5 5 8 11 12 13 10 13 9 15-4-10-8-12-9-11-9-10-12-16-5-12-3-11v-16l4-15 5-9 9-8zm5 115v20l2 4 2 14 2 4 7 1 6-5 2-5v-6l-8-11-9-12z" fill="#959698"/>
<path transform="translate(125,344)" d="m0 0 5 3 3 1 2 2 3 1 2 2 5 2 2 5v121l-3 3-16 8-5 2 1-149z" fill="#ADAEAF"/>
<path transform="translate(688,155)" d="m0 0h29l3 18-1 4-2-8-1-12h-26l2 11 3 25 2 9 15 97 3 22 2 12 34 1v-8l11-76 13-85 2-8h-26l-1 14-3 21-1 13-1 4-2 21-1 4-4 43-2 15h-2l-1-4-2-28-7-50-3-17-1-14h1l9 56 4 31 1 10 4-36 8-67 2-17 1-1h29l-4 37-17 115 5-26 11-74 5-27 3-2v9l-24 168-2 5h-35l-2-5-3-18-4-20-16-103-8-53z" fill="#949598"/>
<path transform="translate(1192,155)" d="m0 0h47l12 2 10 6 6 7 5 12 4 29 2 71v37l-2 13-4 10-4 6-7 7-11 4-10 1h-43v-24l-5-1-1-12v-45zm1 2v177h44l12-2 8-4 4-3v-2l3-1 5-11 3-13v-111l-4-11-6-10-8-6-11-3zm80 144 1 4zm-1 6 1 3zm-1 4 1 2z" fill="#959698"/>
<path transform="translate(1041,431)" d="m0 0h27v183l-12 1h-33v-183zm-15 2-1 1v180h28v-181z" fill="#959698"/>
<path transform="translate(124,158)" d="m0 0h2l3 3 4 1 3 3 6 2 4 3 1 3v114l-3 3-17 8h-4v-63z" fill="#ADAEAF"/>
<path transform="translate(1271,431)" d="m0 0h34l1 183-15 1-1-2-2 1v-135l1-46-3 1h-32v8l-3 14-2 14-2 2 1-11 5-28 1-1zm23 2-1 55v97h1l2-89 1-16v-43h-2v-3l3-1zm-1 153 1 4z" fill="#939497"/>
<path transform="translate(1515,157)" d="m0 0h21l10 3 9 6 3 3-1 2-8-7-11-4-7-1h-12l-13 3-8 6-8 9-4 12-1 7v112l3 14 4 9-1 2-5-10-3-11-1-8v-102h-8l-5-1v161h-32v-15h-12v-1h31l1-43 1-17 1-41v-58h17l1-13h12l11-11 10-5z" fill="#9D9EA0"/>
<path transform="translate(184,140)" d="m0 0h52v1l-49 1 24 13 27 16 24 14 18 11 1 1v22h-4l-3-3-24-14-3-1-4-3-3-1-5-4-5-2-2-1-5-4-23-13-3-1-4-3-3-1-4-3-5-1v-2l-7-2-3-3-3-1-3-3-4-1-2-2-6-3-2-5-4-1z" fill="#AEAFB0"/>
<path transform="translate(624,155)" d="m0 0h31l1 23 2 2v130h31l1 9v15l4 1v24l-65 1v-24l-5-1zm2 2v177h63l-1-23h-26l-7 1-1-155z" fill="#959698"/>
<path transform="translate(1334,431)" d="m0 0h39l17 1v25l-10 1h-3l-3 1h-17v48h32v26h-10l1-25h-3v25l-1 1h-19v53l2 1h-13l3-1-1-13-2-4-1 18h-3v-55l-2-1h32v-22h-31l-1-1v-52h35v-23h-61v-1zm43 3v20h1l1-20zm0 21m-33 4 1 48h4l-1-23-1-22 1-3zm0 76 2 4v-3l3-1z" fill="#BEBFC0"/>
<path transform="translate(856,455)" d="m0 0h10l6 6 1 5v115l-2 6h-2l-2 4-1 1h-10l-6-4-2-9-1-78v-25l1-13 6-7zm8 4v24l1 105h2l4-8 1-14v-86l-1-14-4-6z" fill="#959698"/>
<path transform="translate(1348,157)" d="m0 0h21l10 3 6 4 8 9 5 9 2 14 2 24h1l-2-30v-31h75l1 25-1 3-17 1-1 1v57l-1 101h-5l3-1v-160h20v-26h-72l1 20 1 5 20 1v161h12v1h-13l-1-1-1-144-6-3v-12l-10-1 3 12 2 15 1 23-12 1h-17l-2-15h-12l-1-3-1-26-5-8-4-1-3 3 1 4-1 6-2-3-2 2-1-2v14l3 7 6 7-1 2-8-8-4-8-1-4v-7l3-9 4-5 3-2h7l5 4 3 7 1 27h27l-2-23-4-18-5-10-7-6-9-3-7-1h-13l-9 2-8 4-5 5-5 9-3 10v22l3 13 8 15 4 5-1 2-7-9-7-14-3-11v-18l4-16 4-8 4-5 10-6zm72 31 1 4zm-68 2 1 2z" fill="#96979A"/>
<path transform="translate(1825,183)" d="m0 0h9l-1 2 7 6v8l-5 4-2 5-1 6-1 29-2 6v15l1-19h1v20h11l2 1v40l-2 8-4 7-3 1v2l-9 1-6-4-3-4-1-6v-116l3-7zm12 83-6 1v54l3 1 5-5 3-10 1-13v-13l-1-15z" fill="#8F9197"/>
<path transform="translate(1756,173)" d="m0 0 5 1 3 17 14 95 8 47 4 24v5h-30l-2-15-2 1h-9v-2h27l-7-41v-13l-2-12v-7h2l-1-3-2 1-4-20 1-4h2l2 14v-11l-5-35-2-12-4-29z" fill="#949598"/>
<path transform="translate(1525,182)" d="m0 0 6 1 7 8v121l-3 7-5 5h-10l-6-7-2-12v-109l4-8 6-5zm-6 7 1 2zm-1 2-1 2v119l2 7h2l-1-97-1-31zm15 10-5 8-1 12-1 100h5l4-5 1-5 1-107-1-3z" fill="#8C8F96"/>
<path transform="translate(1009,155)" d="m0 0h39l2 10 5 30v7h-2l-5-36-1-9h-37l-1 13-4 27-2 13-3 17-5 38-2 15-1 3-3 27-4 24h27v-18l1-11 1-2h30l1 1 1 25-1-2-23 1-4 29-3 3h-27l1-16 1-8h-7l1-12 22-154 2-13zm8 150v7h1l1-7zm-1 7v7h1v-7zm-1 7v7h1v-7zm-1 7v5h1v-5z" fill="#969799"/>
<path transform="translate(1007,431)" d="m0 0h11v147l-2 13-5 10-5 6-9 6-6 2-10 1 4-3 8-5 5-3 6-8 1-2 1-15v-104l1-21z" fill="#959698"/>
<path transform="translate(1890,159)" d="m0 0h65l1 3v12h9l4 1v26h-34v36h-9-3l-1-5v-44l1-1 32-1-1-11v-15h-63l1 51v136h12v1h-14l-1-25v-163z" fill="#969799"/>
<path transform="translate(1095,431)" d="m0 0h47l10 2 7 5 6 10 3 9v57l-1 9-5 9-9 8-6 1v-2l-2-1 4-5h2v-4l-4 2 6-18 1-7v-34l-3-16-4-8-8-9-8-3-6-1-48-1v-1zm45 2v2l2-1zm2 2m1 1m1 1m1 1m1 1m1 1m1 1 1 2z" fill="#969799"/>
<path transform="translate(1409,431)" d="m0 0h6l3 2-1 2-1-1-24-1 1 26v155h28v1h-30l-2-2-3 1h-5-2l-1 1h-67l-1-13 1-170h11v1h-8v181l61-1v-23h-35v-57h2v55l17-1h32v-51l-1-104zm-30 158m1 16 1 4z" fill="#E0E1E1"/>
<path transform="translate(1871,258)" d="m0 0h14v104h-16l-1-3 1-31z" fill="#949597"/>
<path transform="translate(688,155)" d="m0 0h29l3 18-1 4-2-8-1-12h-26l2 11 3 25 2 9 15 97 3 22 2 12 34 1v-8l11-76 13-85 2-8h-26l-1 14-3 21-1 13-1 4-2 21-1 4-4 43-2 15h-2l-1-4-2-28-7-50-3-17-1-14h1l9 56 4 31 1 10 4-36 8-67 2-17 1-1h29l-4 37-17 115v8l-4 21-1 1h-37l-4-20-16-103-8-53z" fill="#ACADAE"/>
<path transform="translate(1415,431)" d="m0 0h4l8 24-4-13-2-7 1-4h9l9 24 9 25 1-47 1-1 28-1-1 5h-2v-3h-24l2 105-3-2-8-22-6-17-13-36-8-25 1-3zm13 27 1 3zm1 4 1 2zm1 3 1 2zm1 4m1 3m1 3m1 2 1 2zm1 3 1 2zm1 3 1 2zm1 2 1 3zm1 3 1 5 1-3zm2 5 1 3zm1 3 2 9 7 19h1l-1-8-4-11-4-9zm10 28 1 2z" fill="#939498"/>
<path transform="translate(854,335)" d="m0 0h5v24l-17 1h-47v-24l62 1z" fill="#959698"/>
<path transform="translate(1265,490)" d="m0 0h2l-1 22-1 102h24l1-3 1 4h-27l-1-1-1-24v-70l-3 22 2-4v43l-2 26-3 7h-8-3-27l-8-32-6-29v-5l1 3h2l3 12 4 23 3 12 1 7 2 5v3h22l1-10 7-40 10-51 3-15zm-2 18 1 4zm-6 38 1 3zm-2 11m-1 4v5h1v-5zm-1 5v5h1v-5zm-1 5v6h1v-6zm-1 6-4 23v5l3-2 1-14 1-12zm-5 28 1 4zm2 0v5h1v-5z" fill="#ABACAD"/>
<path transform="translate(386,177)" d="m0 0 8 1 6 7 1 29h24v-14h2l1-3 3 24v18l-1 1h-17l-2-1 9 14 6 13 3 12v5l-2-4-7-21-9-15-16-17-10-11-7-10-1-3v-15l4-7zm1 3-2 2 7 2 4 5-1-5-4-4zm-3 2m-1 1v3zm-2 3 1 2zm15 5v6h1v-6zm0 10-9 4-4 1 1 5 8 10 11 11h2l-2-14-1-2h-3v-8l-2-7z" fill="#969799"/>
<path transform="translate(380,153)" d="m0 0h19l10 3 8 6 6 12 4 17v6h-1l-6-25-6-9-5-4-8-3-6-1h-12l-13 3-9 7-3 4-3 6-2 9v25l5 15 9 13 5 5 9 10 9 9 9 13 3 9 1 12-4 13-7 6-7-1-7-9-1-3-1-31-24-1 1 29 4 18 4 7 1 3 14 7 10 3 13 1v1h-20l-10-3-6-5-2-2v4l-2 6-2-3-1-7 1-4-5-16-2-15v-26l23-1-4-6-9-14-5-10-1-5 4 1 9 13 16 17 12 17 3 4-5-10-8-11-9-10-7-8-12-16-6-16-1-6v-19l3-13 5-9 9-8zm-24 80m1 2m21 33m1 1v21l2 2 2 15 3 5h6l6-5 2-5v-6l-7-11-11-13zm20 17 1 2z" fill="#97989B"/>
<path transform="translate(1484,431)" d="m0 0 6 1 24 1v1h-25v22l19 1v1l-7 1h-9l1 76v79h-8l-1-123z" fill="#97989A"/>
<path transform="translate(1714,313)" d="m0 0h30l2 2 1 14v16h-1l-2-16h-15l-2 21-2 12h-30v-15h-13v-1l27-1 1-11 1-3 2-17z" fill="#969799"/>
<path transform="translate(1955,322)" d="m0 0h1v12h14v28h-66l-1-2v-12l-11-1v-1l12-1 51-1z" fill="#929497"/>
<path transform="translate(442,155)" d="m0 0h30l1 1 1 22 2 2v47h17l1-72h30l1 1 1 24-1 22-1 114-1 12h-1v-150l1-21h-27v70l-1 1-23 1-1-1v-71h-27v177h31v1l-31 1-2-7z" fill="#F3F3F3"/>
<path transform="translate(1271,431)" d="m0 0h20l1 2 1 22h1v82l1-41 1-16h1v132l-1 2-5 1-1-2-2 1v-135l1-46-3 1h-32v8l-3 14-2 14-2 2 1-11 5-28 1-1zm22 155 1 4z" fill="#979899"/>
<path transform="translate(606,157)" d="m0 0h1v23h5v25h-35l1 2v23h28v24h-1v-22h-31l-1-10v-43h33z" fill="#969799"/>
<path transform="translate(624,155)" d="m0 0h31l1 23 2 2v130h31l1 9v15l3 1-2 3-62-1-5-2zm2 2v177h63l-1-23h-26l-7 1-1-155z" fill="#E0E0E1"/>
<path transform="translate(852,157)" d="m0 0 2 3 1 21h2l1 24-34 1v24h28v24h-2v-22h-30v-53h32z" fill="#969799"/>
<path transform="translate(1105,454)" d="m0 0h11l5 2 5 5 2 9v35l-2 9-7 6-4 1h-9l-2-6v-58zm3 3m9 1 2 6 1 50-2 1 4-1 3-4 1-5v-34l-3-9-4-4zm-4 57v1h5v-1zm-5 1v1h5v-1z" fill="#959698"/>
<path transform="translate(279,447)" d="m0 0h2l-1 5-23 12-23 11-56 28-17 8 34-1h86v5l-2 1h-13v-2l-34 1-97 1v-1l12-3 20-9 29-15 35-18 32-16zm-126 65 4 1z" fill="#909398"/>
<path transform="translate(890,154)" d="m0 0 4 1-9 4-8 6-5 8-3 11-1 9v15l4 10 5 10 8 10 10 10 11 14 5 6 5 10 1 5v21l-3 5-5 5h-6l-5-5-4-8-1-5v-25l-1-1-24-1 1 30 1 8 4 10 3 5-1 2-5-4-5-21-1-17v-15l25-1-6-8-7-11-5-10-1-7 5 5 8 11 12 13 10 13 9 15-4-10-8-12-9-11-9-10-12-16-5-12-3-11v-16l4-15 5-9 9-8zm5 115v20l2 4 2 14 2 4 7 1 6-5 2-5v-6l-8-11-9-12z" fill="#959699"/>
<path transform="translate(1194,492)" d="m0 0 3 1 3 15 5 29 2 14h-2v-3h-2l4 24 5 36v6h-8l-2-5-1 4-3 1-1-17v-37l-1 54h-1zm2 19m5 27m1 4 1 4z" fill="#959698"/>
<path transform="translate(1669,179)" d="m0 0 5 2 6 9 3 11 1 8v32l-3 11-4 6-2 2-6 1-5-6v-2l-3-1-3-8 5-1 4-6 2-10z" fill="#969798"/>
<path transform="translate(740,432)" d="m0 0h17v1h-15v181h62v-24h-34v-57l4 1-1 54 15-1h30l2 1 1 9v17h-7l-1-8-1 8h-4l-1 1h-66l-1-2zm67 157 1 4zm1 10v12h1v-12z" fill="#FEFEFE"/>
<path transform="translate(130,81)" d="m0 0h10l6 5 1 3v22h25l102 1 7 1v2h-125l-17 1-2 1h-14l1-31 4-4z" fill="#AEAFB0"/>
<path transform="translate(990,431)" d="m0 0h15l1 5v9l1-11h1v21l-1 21v103l-2 3-2 11-6 10-10 10-6 3-5 1h-26l-11-4-8-7-2-4 7 6 6 4 13 3h15l9-2 8-4 6-6 4-7 3-10 1-10 1-143-27 1-1 150-2 3-3-1 2-2 1-11v-140l1-1z" fill="#AEAFB0"/>
<path transform="translate(1221,177)" d="m0 0h11l7 3 4 5 1 3v115l-2 1v-99l-13-2-2-1v-20l5-1 4 1-11-3 1 107v26l9-2 6-4-3 6-6 2-9 1-2-6zm16 7 1 6 1-4zm2 6 1 4zm1 5 1 3z" fill="#CBCBCC"/>
<path transform="translate(1728,201)" d="m0 0h2l1 19 2 1 6 46 1 9v14l-5 1h-18v-10l10-77zm-1 18-3 33-2 18v7h1l2-10 4-36v-7l-1-5zm7 44 1 2zm1 6 1 4zm1 4v16h3v-7l-2-9zm-15 7 1 2z" fill="#96979A"/>
<path transform="translate(1868,178)" d="m0 0 5 3 6 8 4 10 2 17v26l-14 1h-15l-1-1v-15l1-1h15l-2-39z" fill="#949598"/>
<path transform="translate(940,431)" d="m0 0h12l1 9h1v144l2 4 11 2v2h-11l-5-5-2-13v-141h-27l1 147 4 16 2 6-3-3-4-10-2-14v-143z" fill="#C8C9C9"/>
<path transform="translate(124,539)" d="m0 0h23v35l-2 6-5 4h-9l-6-4-1-2z" fill="#AEAFB0"/>
<path transform="translate(1707,159)" d="m0 0h41l3 14 3 13 5 33 2-4 5 35v17h-1l-1-11-1-5 1-4h-3l2 16 2 7 2-2v5h-2l3 19v7h-2l-11-68-6-46-2-17v-7h-38l-3 22-7 48-1 3-1 11-1 3-1 11-3 17-1 12-1 3-2 19-2 6h-1l1-13 20-140zm53 67v6h1v-6zm1 7v5h1v-5zm1 7v5h1v-5z" fill="#999A9B"/>
<path transform="translate(941,184)" d="m0 0h1l5 33v23h-19l9 14 6 13 2 9v6h-1l-4-16-8-16-7-9-12-13-4-3 1-2 10 8-1-12-3-3v-2h25z" fill="#969799"/>
<path transform="translate(1041,431)" d="m0 0h15v184h-33v-183zm-15 2-1 1v180h28v-181z" fill="#DDDEDE"/>
<path transform="translate(1616,182)" d="m0 0h16l5 3 3 6v34l-2 8-5 3h-17zm4 4v48h3v-40l-1-4 1-4zm9 0 2 3 2-2zm1 12v36l5-2 3-7v-25l-1-2z" fill="#8D9097"/>
<path transform="translate(1120,544)" d="m0 0h1v70h-13l1-69z" fill="#959698"/>
<path transform="translate(1506,458)" d="m0 0h3v156h28v-156h4v156l-1 1h-32v-156z" fill="#D4D5D7"/>
<path transform="translate(855,255)" d="m0 0h1v25h-34v-22l7-2z" fill="#969799"/>
<path transform="translate(1340,251)" d="m0 0 4 2 7 8 7 7 7 10 6 12v25l-3 5-6 5h-6l-7-6-3-9v-31h-25v22l3 19 5 13 5 7-1 2-7-9-5-13-2-9-1-9v-26l2-1h28l1 1 3 38 1 3-1-26 1-1h7l1 1v28l-1 2 6-2 2-5 1-14-2-12-6-12-9-11-9-9z" fill="#97989A"/>
<path transform="translate(475,321)" d="m0 0h1l1 13v26h-30l-1-24 3-1 25-1v-12z" fill="#969799"/>
<path transform="translate(1074,322)" d="m0 0h1l5 34v4h-29l-4-24-1-7 2 4 26 1z" fill="#A1A1A3"/>
<path transform="translate(859,429)" d="m0 0h25v2h3l1 5v2l6 3 7 14 2 12 1 34v58l-2 26-4 12-6 9-5 8-1 3-5-2 1-4 6-5 6-10 4-12 2-16v-79l-2-28-3-9-8-10-9-6-10-3-12-1-10 2-8 4-9 8v-3l9-8 8-4z" fill="#D5D5D6"/>
<path transform="translate(1340,532)" d="m0 0h32v2h-15v53l2 1h-13l3-1-1-13-2-4-1 18h-3v-55zm4 3 2 4v-3l3-1z" fill="#959698"/>
<path transform="translate(590,256)" d="m0 0h20v24h-32l-1-20 1-3z" fill="#969799"/>
<path transform="translate(281,251)" d="m0 0 1 4-4 4-27 14-29 14-54 27-6 2h-7l-2-2 16-8 25-12 46-23 23-11z" fill="#848895"/>
<path transform="translate(1095,431)" d="m0 0h47l-1 3 1 1 4 3-3-5 4 2 9 10 3 12 1 19 1 6v11l-2 18-5 15h2l-1 4-2 2-3 5-5 2 4-6h2v-4l-4 2 6-18 1-7v-34l-3-16-4-8-8-9-8-3-6-1-48-1v-1zm51 8m1 1m1 1 1 2z" fill="#AAABAC"/>
<path transform="translate(1117,295)" d="m0 0h1l2 50v14l-15 1h-13l-1-4-1-21h28l-1-8z" fill="#97989A"/>
<path transform="translate(1423,530)" d="m0 0 2 3 6 15v3h2l1 8 1 10 1 45h-8l-1-3v-4l-3-1-1-4v-24l1-21v-15z" fill="#959698"/>
<path transform="translate(1086,155)" d="m0 0h24l3 5 6 15 19 54 7 19-1-21v-72h28l1 3-1 10h-1v-11h-25l1 68v33l-3-3-4-13-9-25-7-21-4-10-5-15-6-13v-2l-21 1v177h-1l-1-71z" fill="#E1E1E2"/>
<path transform="translate(827,446)" d="m0 0 1 3-4 9-3 16v101l4 17 4 8 5 6 10 7 12 2 2 3-12-2-8-4-9-8-7-11-2-6-1-8-2-46-14 1-1-15v-11l1-1h15v-14l1-25 4-15z" fill="#97989A"/>
<path transform="translate(527,334)" d="m0 0 2 4v21l-4 1h-26l-1-25h23z" fill="#959698"/>
<path transform="translate(770,532)" d="m0 0h15l1 2 1 51 1 3h-15v-54z" fill="#97989A"/>
<path transform="translate(1586,159)" d="m0 0h57l9 2 8 5 9 13 1 9v39l-2 10-4 6-4 2v-2l4-3 2-5 1-6v-40l-2-10-4-8-8-7-5-2-60-1v185h28v1h-15l-1 3v-3l-3 1h-10l-1-2z" fill="#FBFBFB"/>
<path transform="translate(1009,155)" d="m0 0h39l2 10 5 30v7h-2l-5-36-1-9h-37l-1 13-4 27-2 13-3 17-5 38-2 15-1 3-3 27-4 24h27v-18l1-11 1-2h30l1 1 1 25-2-2-2-19-1-2-24-1-1 14-1 13-2 3-30 1 1-12 22-154 2-13z" fill="#E2E2E3"/>
<path transform="translate(1820,157)" d="m0 0h20l11 3 9 7 8 10 2 10 1 16v23l-15 1h-15l-1-25-1-3v-8l-7-6 4-1 6 7 1 4v30h27l-1-2-1-33-4-13-6-9-9-6-14-3h-12l-12 3-8 5-6 7-4 7-3 11-1 9v104l3 16 4 10 7 9-1 2-6-7-6-12-3-13-1-7v-104l4-16 6-12 5-5 8-6z" fill="#DADADB"/>
<path transform="translate(1171,168)" d="m0 0h1l1 10 2 1 1 128v29h-25l-3-3-3-10 1-3 4 9 1 4 21 1-1-70z" fill="#A8A9AB"/>
<path transform="translate(1272,187)" d="m0 0h1l3 24 2 71v15l-2-1-1 5h-2l1 5-4 10-5 9-8 7-8 3-10 1h-26v-1h24v-2l12-2 12-6v-2l3-3 5-12 2-10z" fill="#AEAFB0"/>
<path transform="translate(1535,189)" d="m0 0 3 2v121l-3 7-5 5h-10l-6-7-2-12v-109l1-3 3 1v116l2 8 5 4 5 1v-2l5-3 2-7 1-107-1-4 1-1v-6z" fill="#C9CACB"/>
<path transform="translate(774,459)" d="m0 0h12l1 49h-13l-1-1v-47z" fill="#969799"/>
<path transform="translate(525,180)" d="m0 0h3v154l-3 1-4-1v-13h1l1-5 1-114z" fill="#485682"/>
<path transform="translate(1342,458)" d="m0 0h15l1 50h-16zm2 1 1 48h4l-1-23-1-22 1-3z" fill="#959698"/>
<path transform="translate(750,155)" d="m0 0h29l-4 37-5 33h-2v5h-1v-12l8-53 2-8h-26l-1 14-3 21-1 13-1 4-2 21-1 4-4 43-2 15h-2l-1-4-2-28-7-50-3-17-1-14h1l9 56 4 31 1 10 4-36 8-67 2-17z" fill="#EBEBEB"/>
<path transform="translate(544,155)" d="m0 0h63l1 1v23l3 1h-4v-23h-61v177h62l-4 2h-58l-1-1-1-8z" fill="#F2F2F2"/>
<path transform="translate(866,457)" d="m0 0 4 2 2 2 1 5v115l-2 6h-2l-2 4-1 1h-10l-6-4-2-9-1-78v-25l1-9 4-3v22l-1 5v67l2 23 2 5 3 2h9l2-5 1-3 1-14v-86l-1-14-4-6z" fill="#B3B4B5"/>
<path transform="translate(386,177)" d="m0 0 8 1 6 7 1 29 26 1v1l-25 2v-2h-3l-2-14-10 4h-4l6 12-5-5-6-8-1-3v-15l4-7zm1 3-2 2 7 2 4 5-1-5-4-4zm-3 2m-1 1v3zm-2 3 1 2zm15 5v6h1v-6z" fill="#97989A"/>
<path transform="translate(1260,538)" d="m0 0h1v43l-2 26-3 7h-8l-2-1 1-8 2-6 2-16v-5h-1l1-11 3-12h2zm-6 23v5h1v-5zm-1 5v5h1v-5zm-1 5v6h1v-6zm-4 34v5h1v-5z" fill="#97989A"/>
<path transform="translate(1169,432)" d="m0 0h17v1l-14 1-1 180h25v-54l1-8h1v45l1 18h-30l-1-93v-87z" fill="#E2E2E3"/>
<path transform="translate(1028,195)" d="m0 0 3 1v17l-2 1-3 32-4 30 1-8h1l4-35 2-1-1 31-1 17 10-1-4-34-3-18 1-21 2 4 1 19 2 15 1 13 2 11 1 12-1 1h-22v-8l9-67z" fill="#DDDDDE"/>
<path transform="translate(1890,159)" d="m0 0h65l1 3v12h-2v-14h-63l1 51v136h12v1h-14l-1-25v-163z" fill="#E9E9E9"/>
<path transform="translate(1656,245)" d="m0 0h3l3 7 5 5 3 4 3 44 1 43-21 1-13-1-1-3-1-38v-32l2 1 1 12v58h29l-1-12-2-62-1-11-3-5-8-7z" fill="#BEBEBF"/>
<path transform="translate(1105,454)" d="m0 0h11l5 2 5 5 2 9v35l-2 9-7 6-4 1h-9l-2-6v-58zm3 3m1 1-1 59 10-1 5-3 2-3 1-5v-34l-3-9-4-4-3 1-1-1z" fill="#AAABAD"/>
<path transform="translate(1401,159)" d="m0 0h75l1 25-1 3-17 1-1 1v57l-1 101h-5l3-1v-160h20v-26h-72v23l-2-1z" fill="#F5F6F6"/>
<path transform="translate(901,177)" d="m0 0h6l7 6 2 3v28h-1l-2-13-8 4-6 2 2 6-5-5-4-8v-12l6-9zm2 3-4 3 1 2 5-2 5 10 2 5h1l-1-10-4-6zm-5 5 1 2zm-1 2 1 2z" fill="#97989A"/>
<path transform="translate(654,169)" d="m0 0h1l1 9 2 2v29l1 103-5 1z" fill="#9A9B9D"/>
<path transform="translate(1479,431)" d="m0 0h1l1 51v132h-3v-173h-2l-1-7 1 2h2z" fill="#97999D"/>
<path transform="translate(1476,441)" d="m0 0h2v173l2 1h-24l-8-20-12-32-4-12 1-3v2h2l6 19 4 9 4 12 3 7 5 14v3h19z" fill="#B7B8B9"/>
<path transform="translate(365,345)" d="m0 0 5 1 4 3 5 1 24 1 7-1 10 3-2 4-10 4-7 1h-15l-8-2-8-4-6-7z" fill="#AEAFB0"/>
<path transform="translate(1224,181)" d="m0 0h1l1 105v26l9-2 6-4-3 6-6 2-9 1-2-6v-95l2-1v-30z" fill="#A5A6A8"/>
<path transform="translate(790,155)" d="m0 0h63v2h-61v177h4v2h-5l-1-1z" fill="#D4D5D5"/>
<path transform="translate(442,155)" d="m0 0h30l1 1 1 23-1 12h-1l-1-33-27-1v177h31v1l-31 1-2-7z" fill="#F9F9F9"/>
<path transform="translate(165,316)" d="m0 0 6 2 25 14 49 29 29 17 7 5v5l-12-6-3-2v-2l-4-1-11-7-16-10-40-24-9-4-8-4v-2l-5-2-5-3z" fill="#959699"/>
<path transform="translate(1075,432)" d="m0 0h15v1h-13v181h28v-23h1l1 12v12h-32l-1-1z" fill="#D7D7D8"/>
<path transform="translate(890,154)" d="m0 0 4 1-9 4-8 6-5 8-3 11-1 9v15l4 10 5 10 8 10 10 10 11 14 5 6 5 10 1 5v21l-3 5-5 5h-6l-3-2 1-2 7 1 5-4 2-5-1-15 1-1-7-14-9-12-12-14-13-16-5-11-4-14v-16l4-15 5-9 9-8z" fill="#E4E4E5"/>
<path transform="translate(1405,185)" d="m0 0 20 1v161h12v1h-13l-1-1-1-144-6-3v-12l-10-1zm15 3 1 4z" fill="#F3F3F3"/>
<path transform="translate(1409,431)" d="m0 0h6l3 2-1 2-1-1-24-1 1 26v155h28v1h-30l-1-1v-27l1-51-1-104z" fill="#FCFCFC"/>
<path transform="translate(781,178)" d="m0 0h1v9l-7 49-8 55-2 4 1-14 1-8h-1v-11l8-55 5-27z" fill="#3E4E7F"/>
<path transform="translate(1469,431)" d="m0 0h10l-1 5h-2v-3h-24l2 105-3-2-8-22-6-17-5-14v-5l2 3 3 10h2l11 31v-89l1-1zm-18 93 1 2z" fill="#D4D5D6"/>
<path transform="translate(1055,432)" d="m0 0 6 1-1 41-1 20-1 14-1 106h-1l-1-113z" fill="#AFB0B1"/>
<path transform="translate(1192,155)" d="m0 0h47l12 2 10 6 6 7 5 12v5l-9-18-5-5-6-4-9-2-50-1v177h15v1l-15 1-1-1-1-12v-45z" fill="#FEFEFE"/>
<path transform="translate(183,142)" d="m0 0 6 1 29 16 28 17 25 14 10 7v5l-18-10v-2l-4-1-40-24-18-10-12-9-6-3z" fill="#959699"/>
<path transform="translate(475,255)" d="m0 0h19v22h-18l-1-11z" fill="#959698"/>
<path transform="translate(909,223)" d="m0 0 8 6 3 2 1-2 11-1 11-2 3 1 1 13h-19l9 14 6 13 2 9v6h-1l-4-16-8-16-7-9-12-13-4-3z" fill="#AFB0B1"/>
<path transform="translate(1348,157)" d="m0 0h21l10 3 6 4 8 9 5 9 2 14v25h-2l-2-24-4-18-5-10-7-6-9-3-7-1h-13l-9 2-8 4-5 5-5 9-3 10v22l3 13 8 15 4 5-1 2-7-9-7-14-3-11v-18l4-16 4-8 4-5 10-6z" fill="#D1D2D2"/>
<path transform="translate(380,153)" d="m0 0h19l10 3 8 6 6 12 4 17v6h-1l-6-25-6-9-5-4-8-3-6-1h-12l-13 3-9 7-3 4-3 6-2 9v25l5 15 9 13 5 5 9 10 9 9 5 7-1 2-10-9-7-8-9-10-12-17-5-14-1-6v-19l3-13 5-9 9-8z" fill="#DCDDDD"/>
<path transform="translate(1415,431)" d="m0 0h4l8 24-4-13-2-7 2-4 2 6 3 10 4 13 6 17 7 19 3 9-1 4-7-16-1-3-2 1-4-10h-2l-12-36-3-11 1-1zm13 27 1 3zm1 4 1 2zm1 3 1 2zm1 4m1 3m1 3m1 2 1 2zm1 3 1 2zm1 3 1 2zm1 2 1 3z" fill="#B0B1B2"/>
<path transform="translate(1265,490)" d="m0 0h2l-1 22-1 102h24l1-3 1 4h-27l-1-1-1-24v-70h-2v-8l3-15zm-2 18 1 4z" fill="#E1E1E2"/>
<path transform="translate(688,155)" d="m0 0h29l3 18-1 4-2-8-1-12h-26l2 11 3 25 2 9 15 97 3 22 1 13h-1l-8-49-11-71-8-53z" fill="#DEDEDF"/>
<path transform="translate(1041,431)" d="m0 0h15l-1 70h-1l-1-31v-37l-27 1-2 179h-1v-181z" fill="#FEFEFE"/>
<path transform="translate(805,431)" d="m0 0h14v26l-1 1h-13z" fill="#949597"/>
<path transform="translate(938,350)" d="m0 0 1 3-9 6-12 3h-15l-12-3-5-4 2-4 5 1h13l17 1 12-2z" fill="#AEAFB0"/>
<path transform="translate(1112,227)" d="m0 0 3 3 5 13v5l-3-2-1-4 2 30v63l-30 1v-2l26-1v-21l-1-65z" fill="#A7A8A9"/>
<path transform="translate(1421,518)" d="m0 0 2 3 3 8v3h3l5 15-1 3-2 1-7-18 1 16v16l-1 21v16l1 4 2 1 1 7h-6l-1-14-1-81z" fill="#ADAEAF"/>
<path transform="translate(276,448)" d="m0 0 4 1-3 3-46 23-23 11-24 12-9 4-4-1 23-12 39-20 30-15z" fill="#97989A"/>
<path transform="translate(1358,184)" d="m0 0 4 1 4 5 2 4-1 6-2-4-4-9 1 4 1 3v9l-1 7v14l2 5h-3l-2-2-2-5-5-6-3-7v-14l5-1v16l-2-2 3 9v-25l1-7z" fill="#818593"/>
<path transform="translate(1707,159)" d="m0 0h41l3 15h-3l-1-13h-38l-3 22-7 48-1 3-1 11-1 3-1 11-3 17-1 12-1 3-2 19-2 6h-1l1-13 20-140z" fill="#D8D9D9"/>
<path transform="translate(1363,229)" d="m0 0 4 2 11 12 10 11 2 7h2l1 4 3 1 4 10 2 11v24l-4 18-7 11-7 6-12 4h-6l1-2 13-4 8-6 6-10 4-13 1-7v-15l-2-12-5-12-5-9v-3h-2v-3h-2l-3-5-9-10-8-9z" fill="#B1B2B3"/>
<path transform="translate(1120,246)" d="m0 0 3 4 13 38 10 30v9l-2-3v-2h-2l-22-64-2-11z" fill="#AAABAC"/>
<path transform="translate(807,587)" d="m0 0h11l2 1 1 9v17h-7l-1-8-1 8h-4-1l-1-5v-21zm0 2 1 4zm1 10v12h1v-12z" fill="#969799"/>
<path transform="translate(827,446)" d="m0 0 1 3-4 9-3 16v101l4 17 4 8 5 6 10 7 12 2 2 3-12-2-8-4-9-8-7-11-2-6-1-8-1-22-1-50 2-39 4-15z" fill="#F9F9F9"/>
<path transform="translate(1200,353)" d="m0 0 47 1h11l-1 3-7 2-10 1h-42v-5z" fill="#AEAFB0"/>
<path transform="translate(1728,201)" d="m0 0h2v14l-1 5h-1l-3 32-2 7-4 30h16l1-2v2h3l-3-18 1-8 2 4 1 9v14l-5 1h-18v-10l10-77z" fill="#E1E1E1"/>
<path transform="translate(1378,587)" d="m0 0h12v23l-2 4h-7-3l-1-26zm1 2m1 16 1 4z" fill="#959698"/>
<path transform="translate(574,255)" d="m0 0h36v1l-20 1h-14l2 27v25h30l1 1v23h-1v-22l-34 1z" fill="#CECFCF"/>
<path transform="translate(1342,533)" d="m0 0h14v1l-5 1-1 5v48l-4-1h3l-1-13-2-4-1 18h-3zm2 2 2 4v-3l3-1z" fill="#AFB0B1"/>
<path transform="translate(389,218)" d="m0 0 7 6 7 7 2 1 1-3h8l9 3 5 5v2l2 1h-17l-2-1 9 14 6 13 3 12v5l-2-4-7-21-9-15-16-17-6-6z" fill="#C2C3C4"/>
<path transform="translate(1374,507)" d="m0 0h15v26h-10l1-25h-3v25l-3 1z" fill="#98999B"/>
<path transform="translate(812,354)" d="m0 0h29l16 1 1 4-16 1h-46l1-3z" fill="#AFB0B1"/>
<path transform="translate(1355,182)" d="m0 0h7l5 4 3 7v28h22v1l-15 1h-8l-1-3-1-26-5-8-4-1-3 3 1 4-1 6-2-3-2 2-1-2v14l3 7 6 7-1 2-8-8-4-8-1-4v-7l3-9 4-5zm-3 8 1 2z" fill="#AAABAC"/>
<path transform="translate(1616,182)" d="m0 0h16l5 3 3 6v34l-2 8-3 2h-4v-2l4-2 2-6v-33l-4-4-4-3h-10v48l-1 2h12v1h-14zm15 6 2 1-3 2z" fill="#B2B3B4"/>
<path transform="translate(859,429)" d="m0 0h25v2h3l1 5v2l6 3 7 14-1 5-3-3-4-8-8-9-12-6-17-2-10 2-8 4-9 8v-3l9-8 8-4z" fill="#9FA0A2"/>
<path transform="translate(1830,243)" d="m0 0h41l1 15-2 70-1 20-2 4 2-107h-39v21l-2-2v-15z" fill="#BDBEBF"/>
<path transform="translate(574,180)" d="m0 0h19l-4 2h-12l1 25v23h28v24h-1v-22h-31z" fill="#BEBFC0"/>
<path transform="translate(1954,175)" d="m0 0h1l1 12-33 1v49h31l1 24h-2v-22h-33v-54h34z" fill="#E0E0E1"/>
<path transform="translate(279,447)" d="m0 0h2l-1 5-23 12-23 11-56 28-18 8-12 2 4-3 17-8 8-2 29-14 22-11 23-11 28-14z" fill="#3B4B7E"/>
<path transform="translate(1762,190)" d="m0 0 2 1 13 89v7l-2-4-6-28-4-26-2-16-1-5z" fill="#37487D"/>
<path transform="translate(1086,155)" d="m0 0h23v1l-21 1v177h-1l-1-71z" fill="#F0F0F0"/>
<path transform="translate(952,505)" d="m0 0h1l1 79 2 4 11 2v2h-11l-5-5-1-3v-78z" fill="#AFB0B1"/>
<path transform="translate(1296,480)" d="m0 0h1v132l-1 2h-3v-29l2-89z" fill="#AFB0B1"/>
<path transform="translate(472,252)" d="m0 0h24v82h29l-4 2h-25l-2-2v-80h-20l-1 20h-1z" fill="#FEFEFE"/>
<path transform="translate(1228,181)" d="m0 0 7 1 3 4 1-2 2 3 1 5v12l-13-1-2-1v-20zm11 9 1 4zm1 5 1 3z" fill="#999A9C"/>
<path transform="translate(1196,512)" d="m0 0 3 3v90h-1l-1-8v-37l-1 54h-1v-68z" fill="#B9B9BA"/>
<path transform="translate(1616,259)" d="m0 0h14l6 2v2h2l1 5-5-4v-2h-15v86h-16v-1h13z" fill="#AFB0B1"/>
<path transform="translate(659,310)" d="m0 0h30l1 9v15l3 1-2 3-62-1-1-3 60-1v-22l-29 1z" fill="#D4D5D5"/>
<path transform="translate(350,267)" d="m0 0h24v1h-22l1 30 4 18 4 7 1 3 14 7 10 3 13 1v1h-20l-10-3-6-5-2-2v4l-2 6-2-3-1-7 1-4-5-16-2-15z" fill="#B8B9BA"/>
<path transform="translate(1272,187)" d="m0 0h1l3 24v40l-1 14h-1l-1 28h-1z" fill="#999A9C"/>
<path transform="translate(944,297)" d="m0 0h1l1 9-4 13-6 9-8 7-8 3-6 1h-15l-13-4-9-9 1-2 7 6 10 4 4 1h16l10-3 8-6 6-10 3-10z" fill="#ABACAD"/>
<path transform="translate(1198,432)" d="m0 0h8l2 7 10 48 8 38 3 11 3 15v11h-2l-3-19-2-7-3-18-4-16-2-12-2-10-2-7-4-23-2-7-1-10h-7z" fill="#EFEFEF"/>
<path transform="translate(820,180)" d="m0 0 3 1-1 25h2v24h28v24h-2v-22h-30z" fill="#C3C3C4"/>
<path transform="translate(1065,349)" d="m0 0h10l3 4 2 3v4h-29l2-7 7-3z" fill="#AFB0B1"/>
<path transform="translate(1340,533)" d="m0 0h2v55l17-1h19l-2 27h-16v-1h15v-23h-35z" fill="#D2D3D3"/>
<path transform="translate(1340,457)" d="m0 0h16v1h-14v50l16-1h16v27h-2v-24h-31l-1-1z" fill="#D8D9D9"/>
<path transform="translate(471,158)" d="m0 0h1l1 21 3 1v17l1 30 1 2h-6l-1-1z" fill="#A6A7A9"/>
<path transform="translate(557,354)" d="m0 0h11l27 1 12 1 3 2-2 1-32 1h-27l1-4v3h2v-3z" fill="#AFB0B1"/>
<path transform="translate(1014,303)" d="m0 0h30l1 1 1 25-2-2-2-19-1-2-24-1-1 14-1 13-2 3-30 1v-5l2-1v4h27v-18l1-11z" fill="#E5E5E5"/>
<path transform="translate(1172,178)" d="m0 0 3 1v156h-2l-1-101z" fill="#DBDCDC"/>
<path transform="translate(1920,263)" d="m0 0h35v1l-33 1 1 55h34v14h-1v-12h-36z" fill="#E1E1E1"/>
<path transform="translate(1535,189)" d="m0 0 3 2v121l-3 3 1-111-1-4 1-1v-6z" fill="#FBFBFB"/>
<path transform="translate(990,431)" d="m0 0h15l-2 3h-28l-1 150-2 3-3-1 2-2 1-11v-140l1-1z" fill="#F8F8F8"/>
<path transform="translate(1588,160)" d="m0 0h62l10 6 9 13 1 9v39l-2 10-4 6-4 2v-2l4-3 2-5 1-6v-40l-2-10-4-8-8-7-5-2-60-1z" fill="#CDCDCE"/>
<path transform="translate(1564,431)" d="m0 0h10v13l-1 14h-9l-1-3v-14h1l1 12 1-20-4-1z" fill="#8D9098"/>
<path transform="translate(770,533)" d="m0 0 4 1-1 54h15l16 1v1h-34z" fill="#F1F2F2"/>
<path transform="translate(1319,275)" d="m0 0h29l1 1v13h-2l-1-10h-25v22l3 19 5 13 5 7-1 2-7-9-5-13-2-9-1-9v-26z" fill="#E2E3E3"/>
<path transform="translate(667,354)" d="m0 0 15 1 10 2-1 2-60 1 3-3 9-2z" fill="#AFB0B1"/>
<path transform="translate(890,154)" d="m0 0 4 1-9 4-8 6-5 8-3 11-1 9v15l4 10 5 10 8 10 2 4-4-1-10-13-5-12-3-11v-16l4-15 5-9 9-8z" fill="#F2F2F2"/>
<path transform="translate(790,155)" d="m0 0h63v2h-61v19l-1 43h-1z" fill="#E7E7E8"/>
<path transform="translate(1377,432)" d="m0 0h13l-1 24h-9v-18h2v-2l-5-2z" fill="#909296"/>
<path transform="translate(1469,431)" d="m0 0h10l-1 5h-2v-3h-24v87l-2-1v-86l1-1z" fill="#E8E8E8"/>
<path transform="translate(1485,431)" d="m0 0h79l-4 2-1 1h-45l-28-1z" fill="#BCBDBE"/>
<path transform="translate(866,457)" d="m0 0 4 2 2 2 1 5v115l-2 6-4 1 2-5 1-3 1-14v-86l-1-14-4-6z" fill="#FBFBFB"/>
<path transform="translate(1392,547)" d="m0 0h1v67h28v1h-30l-1-1v-27l1-39z" fill="#E2E3E3"/>
<path transform="translate(1832,184)" d="m0 0 5 1 5 6 1 4v30h27l-1-2v-20h2v23l-15 1h-15l-1-25-1-3v-8l-7-6z" fill="#DDDDDE"/>
<path transform="translate(1714,313)" d="m0 0h30l1 5-1-3-27 1-1 1-5 31h-16l-13-1v-1l27-1 1-11 1-3 2-17z" fill="#E0E0E1"/>
<path transform="translate(1955,322)" d="m0 0h1v12h2l1 13-55 1-12-1v-1l12-1 51-1z" fill="#A4A5A6"/>
<path transform="translate(903,182)" d="m0 0 4 2 5 12-1-10 2-1 1 2v13l-6 4-3-1 2-1-2-9v2h-2l1 3-5 3 1-13z" fill="#969799"/>
<path transform="translate(1363,229)" d="m0 0 4 2 11 12 10 11 2 7h2l1 4 3 1 4 10 2 11v24h-1l-1-23-3-9-10-19v-3h-2v-3h-2l-3-5-9-10-8-9z" fill="#CFCFD0"/>
<path transform="translate(351,207)" d="m0 0 2 2 5 15 9 13 5 5 9 10 9 9 5 7-1 2-10-9-7-8-9-10-12-17-5-14z" fill="#EBEBEC"/>
<path transform="translate(1342,459)" d="m0 0 3 1v47h4l-1-5 2-2v7h8v1h-16z" fill="#9FA0A2"/>
<path transform="translate(427,284)" d="m0 0h1l1 7v15l-3 12-6 10-3 3-3 1-3 3-6 2h-5v-2l10-4h3l2-4 5-6 5-12 1-7z" fill="#ADAEAF"/>
<path transform="translate(524,210)" d="m0 0h1v124h-4v-13h1l1-5z" fill="#959698"/>
<path transform="translate(901,183)" d="m0 0 2 1-2 4-1 12 3-3 2-8h1l2 13-3 1v2l-6 2 2 6-5-5-3-5v-5l2 3 1 2v-14h2l2-5z" fill="#B3B4B5"/>
<path transform="translate(303,134)" d="m0 0h1v77l6 2 4 4-10-2 1 26 2 1 7-1-2 2-8 2-1 3z" fill="#A0A1A3"/>
<path transform="translate(1204,548)" d="m0 0 1 3h2l3 12 4 23 3 12 1 7 2 5v3l2 1h-4l-8-32-6-29z" fill="#eee"/>
<path transform="translate(1098,351)" d="m0 0h7l12 6-1 2-11 1h-13l1-7z" fill="#AFB0B1"/>
<path transform="translate(1334,431)" d="m0 0h39l4 1v2h-63v-1z" fill="#B7B8B9"/>
<path transform="translate(854,254)" d="m0 0 1 2-26 1-6 1v51l1 2h-4v-56z" fill="#FEFEFE"/>
<path transform="translate(688,155)" d="m0 0h29l3 18-1 4-2-8-1-12h-26l2 11 3 25v7h-1l-6-39z" fill="#E9E9E9"/>
<path transform="translate(865,267)" d="m0 0h26v1h-23l1 31 1 8 4 10 3 5-1 2-5-4-5-21-1-17z" fill="#D0D1D2"/>
<path transform="translate(851,464)" d="m0 0h1v22l-1 5-1 17-2 1-1-8v-25l1-9z" fill="#BABBBC"/>
<path transform="translate(1271,307)" d="m0 0 1 4-4 9-6 8-9 6-14 2h-26v-1h24v-2l12-2 12-6v-2l3-3 5-10z" fill="#CDCECF"/>
<path transform="translate(1334,162)" d="m0 0 2 1-5 4-5 8-4 10-1 4v22l3 13 8 15 4 5-1 2-7-9-7-14-3-11v-18l4-16 4-8 4-5z" fill="#EEEFEF"/>
<path transform="translate(1432,548)" d="m0 0 1 2h2l6 19 4 9 4 12 3 7 5 14v3h20v1h-21l-8-20-12-32-4-12z" fill="#ECECEC"/>
<path transform="translate(1032,206)" d="m0 0 2 4 1 19 2 15 1 13 2 11 1 12-3-1-4-34-3-18z" fill="#D1D2D3"/>
<path transform="translate(775,175)" d="m0 0h1v9l-6 41h-2v5h-1v-12l6-40z" fill="#E9E9E9"/>
<path transform="translate(574,255)" d="m0 0h36v1l-20 1h-14l1 54h-2l-1-10z" fill="#FEFEFE"/>
<path transform="translate(1565,316)" d="m0 0 1 3-5 14-6 9-8 5-12 3h-14l-5-1v-1l18-1 13-4 9-8 6-12z" fill="#A9AAAC"/>
<path transform="translate(1220,496)" d="m0 0 3 3 4 14 3 16 2 6 2-1-1 11-4-3v-5l-3-9-6-28z" fill="#AFB0B1"/>
<path transform="translate(997,596)" d="m0 0 2 2-2 5-10 10-6 3-5 1h-26l-11-4-8-7-2-4 7 6 6 4 13 3h15l9-2 8-4 6-6z" fill="#E0E1E1"/>
<path transform="translate(941,184)" d="m0 0h1l4 26v6l-28 1-2-1v-2h25z" fill="#B8B9BA"/>
<path transform="translate(1560,432)" d="m0 0h2v26l-4 1h-17l-4-2h19l1-23z" fill="#A3A4A5"/>
<path transform="translate(1249,576)" d="m0 0 2 2-2 16-4 20h-23v-1h20l1-10 4-24z" fill="#B7B8B9"/>
<path transform="translate(1271,431)" d="m0 0h20l-1 3h-36v8l-3 14-2 14-2 2 1-11 5-28 1-1z" fill="#D3D4D4"/>
<path transform="translate(1768,300)" d="m0 0h1l7 40v6h2v2h-17l-2-1-1 2v-2l-2 1h-9v-2h27l-6-35z" fill="#D5D6D6"/>
<path transform="translate(1109,155)" d="m0 0 3 2 10 26 16 46v3h-2l-7-22-4-10-7-21-4-9-4-10z" fill="#E1E1E2"/>
<path transform="translate(1340,251)" d="m0 0 4 2 7 8 7 7 7 10 6 12v25l-3 5-4 4-4-1 7-5 2-11-1-16-4-10-7-10-9-10-8-9z" fill="#F1F1F1"/>
<path transform="translate(1346,283)" d="m0 0h1v6h2l1 2 2 23 1 4 3 2h-2v2l4 2-5-1-4-4-3-9z" fill="#AAABAC"/>
<path transform="translate(378,270)" d="m0 0h1l1 20 2 2 2 15 2 4h6l5-4 2-5 1 4-6 7-7 1-5-4-5-9v-16z" fill="#D7D9DD"/>
<path transform="translate(453,353)" d="m0 0h11l9 4v2l3 1h-29l2-1 1-5z" fill="#AFB0B1"/>
<path transform="translate(1118,456)" d="m0 0 4 1 4 4 2 9v35l-2 9-5 3 1-4 2-3 1-5v-34l-3-9-4-5z" fill="#eee"/>
<path transform="translate(1028,195)" d="m0 0 3 1v17l-2 1-3 32-2 1-1-4 1-14 3-23z" fill="#D6D7D7"/>
<path transform="translate(1116,283)" d="m0 0h1l1 52-30 1v-2l26-1 1-48z" fill="#F2F2F2"/>
<path transform="translate(1041,431)" d="m0 0h15l-1 70h-1l-1-31v-37h-14z" fill="#F9F9FA"/>
<path transform="translate(1029,232)" d="m0 0h1l-1 31-2 16-4 1v-12h1l4-35z" fill="#8E9199"/>
<path transform="translate(1697,226)" d="m0 0h1l-1 19-1 3-1 11-3 17-1 12-1 3-2 19-2 6h-1l1-13z" fill="#F4F4F4"/>
<path transform="translate(1342,534)" d="m0 0h2l1 28v26h-3z" fill="#999A9C"/>
<path transform="translate(1095,431)" d="m0 0h47l-1 3h-64v-1z" fill="#ACADAE"/>
<path transform="translate(852,157)" d="m0 0 2 3 1 21 2 1h-25l-12-2v-1h32z" fill="#B3B4B5"/>
<path transform="translate(350,267)" d="m0 0h24v1h-22l1 30 4 18 4 7v3l-5-4-4-14-2-15z" fill="#DFE0E0"/>
<path transform="translate(944,297)" d="m0 0h1l1 9-4 13-6 9-8 7-5 1-3-2 10-5 6-7 5-11 2-12z" fill="#AAABAC"/>
<path transform="translate(1357,183)" d="m0 0h7l4 5 2 5v28h22v1l-15 1h-8l-1-3-1-26-5-8-5-2z" fill="#EDEEEE"/>
<path transform="translate(901,581)" d="m0 0 1 4-4 12-6 9-5 8-1 3-5-2 1-4 6-5 6-10 4-12h3z" fill="#B9BABB"/>
<path transform="translate(1194,492)" d="m0 0 3 1 2 8v14l-2-1-1 32h-1l-1-34z" fill="#A3A4A5"/>
<path transform="translate(574,180)" d="m0 0h19v1h-17l1 51h-3z" fill="#FCFCFC"/>
<path transform="translate(1515,157)" d="m0 0h21l10 3 9 6 3 3-1 2-8-7-11-4-7-1h-12l-13 3-8 6-8 9-1 3h-2l1-5 12-12 10-5z" fill="#E2E3E3"/>
<path transform="translate(768,248)" d="m0 0h3l1 9-5 34-2 4 1-14 1-8h-1v-11z" fill="#3A4A7E"/>
<path transform="translate(1378,587)" d="m0 0h12v23h-1v-21h-8v22l-3 3-1-26z" fill="#AEAFB0"/>
<path transform="translate(1196,156)" d="m0 0h51l10 4 8 7 6 12 1 8-9-18-5-5-6-4-9-2-47-1z" fill="#CFD0D0"/>
<path transform="translate(740,240)" d="m0 0h1l-1 18-3 29-1 5h-2l-1-4v-12h2l4-35z" fill="#D9DADA"/>
<path transform="translate(1759,246)" d="m0 0h1l4 22 1 2 2-2v5h-2l3 19v7h-2l-7-43z" fill="#A6A7A9"/>
<path transform="translate(1842,266)" d="m0 0h2v40l-2 8-4 7-3 1v2l-9 1v-2l8-2 4-4 3-10 1-13z" fill="#E7E7E7"/>
<path transform="translate(950,536)" d="m0 0h1l1 34 1 3 1 11 2 4 11 2v2h-11l-5-5-1-3z" fill="#F2F2F2"/>
<path transform="translate(891,625)" d="m0 0 5 4v2l6-5 5 1 2 2v3l2 1-3 1h-9l-6 4h-5l4-2v-8z" fill="#B4B5B6"/>
<path transform="translate(727,356)" d="m0 0h18l9 2 2 2h-34v-3z" fill="#AFB0B1"/>
<path transform="translate(991,355)" d="m0 0h11l11 1 3 2-1 2h-27z" fill="#AFB0B1"/>
<path transform="translate(820,180)" d="m0 0 3 1v51h-3z" fill="#FDFDFD"/>
<path transform="translate(1158,353)" d="m0 0h7l9 4 1 3h-19l-1-6z" fill="#AFB0B1"/>
<path transform="translate(507,354)" d="m0 0h8l10 4v1l-10 1h-16l2-1v-3z" fill="#AFB0B1"/>
<path transform="translate(184,497)" d="m0 0v3l-24 11-12 2 4-3 17-8 8-2z" fill="#3F4F80"/>
<path transform="translate(393,179)" d="m0 0 4 2 3 4 1 29 26 1v1l-25 2v-2h-3l-1-8-1-22z" fill="#FEFEFE"/>
<path transform="translate(790,290)" d="m0 0h2v44h4v2h-5l-1-1z" fill="#FEFEFE"/>
<path transform="translate(894,270)" d="m0 0h1l1 19 2 4 2 17-4-4-3-10v-12z" fill="#A5A6A7"/>
<path transform="translate(895,153)" d="m0 0h20l10 3 8 6 5 8 3 9-1 4-5-13-4-6-4-4-10-4-6-1-16-1z" fill="#eee"/>
<path transform="translate(1151,528)" d="m0 0 1 2-2 3-4 4-1 2 4-2-1 5-9 1h-9l3-3 10-5 5-5z" fill="#BFC0C1"/>
<path transform="translate(821,579)" d="m0 0h1l3 13 4 8 5 6 10 7 12 2 2 3-12-2-8-4-9-8-7-11-2-9z" fill="#EAEBEB"/>
<path transform="translate(1105,591)" d="m0 0h1l1 12v12h-32l-1-1v-12l2-1 1 12 28 1z" fill="#FDFDFD"/>
<path transform="translate(1760,215)" d="m0 0h1l5 35v17h-1l-1-11-1-5 1-4h-2l1-7h-2v-6l-1-2z" fill="#AFB0B1"/>
<path transform="translate(304,397)" d="m0 0 5 2 5 3-2 1-8-2 1 36 9-2-4 3-5 2-1 6h-1v-47z" fill="#959698"/>
<path transform="translate(868,209)" d="m0 0 2 4 5 12 9 12 3 3v2l-4-1-10-13-5-12-1-4z" fill="#E1E1E1"/>
<path transform="translate(1728,201)" d="m0 0h2v14l-1 5h-1l-1 13-3 1 1-14 2-16z" fill="#E5E5E5"/>
<path transform="translate(1350,194)" d="m0 0h3 1v16l-2-2 3 9 2 4-5-5-3-7v-14z" fill="#96989B"/>
<path transform="translate(378,184)" d="m0 0h2l1 22h2l6 12-5-5-6-8-1-3v-15z" fill="#E5E5E5"/>
<path transform="translate(336,352)" d="m0 0 3 1v18l-1 14-2 2z" fill="#B1B2B3"/>
<path transform="translate(336,284)" d="m0 0 2 1 1 10v16l-1 8-2 1z" fill="#9A9B9D"/>
<path transform="translate(774,229)" d="m0 0h1l-1 14-2 9h-3v-11l2-10z" fill="#39497E"/>
<path transform="translate(1847,159)" d="m0 0 7 3 8 7 6 8 2 10v16h-1l-1-13-4-13-6-9-9-6-2-1z" fill="#F0F0F0"/>
<path transform="translate(1200,520)" d="m0 0 2 1 5 27v3h-2v-3h-2l-3-15z" fill="#ACADAF"/>
<path transform="translate(1416,188)" d="m0 0h7v9l-1 5-6-2z" fill="#7C8294"/>
<path transform="translate(474,179)" d="m0 0 2 1v47h-2l-1-16z" fill="#989A9E"/>
<path transform="translate(494,198)" d="m0 0h2v29l-1 1h-18v-1h16z" fill="#FEFEFE"/>
<path transform="translate(1525,182)" d="m0 0 6 1 5 6-2 2-1-3-3-1h-7l-4 2-1 4h-4l2-5 6-5z" fill="#ACADAE"/>
<path transform="translate(336,172)" d="m0 0h3v22l-1 11h-1l-1-5z" fill="#9B9C9E"/>
<path transform="translate(1637,199)" d="m0 0h3v26l-2 8-3 2h-4v-2l4-2 2-6z" fill="#F3F3F3"/>
<path transform="translate(1686,312)" d="m0 0h1l-2 26-1 7 4 1-7 1 3-34z" fill="#AAABAC"/>
<path transform="translate(130,81)" d="m0 0h10l6 5v10h-1l-1-8-6-2h-13l1-3z" fill="#969799"/>
<path transform="translate(1145,320)" d="m0 0 2 1 4 12h22v2l3-1v2h-25l-3-3-3-10z" fill="#AFB0B1"/>
<path transform="translate(1395,183)" d="m0 0 2 1 2 11 1 1v25h-2l-2-32z" fill="#E7E7E8"/>
<path transform="translate(807,587)" d="m0 0h11v1l-5 1-1 2-2-1-1 9v14l-2 1-1-5v-21zm0 2 1 4z" fill="#A8A9AA"/>
<path transform="translate(1320,301)" d="m0 0h1l3 19 5 13 5 7-1 2-7-9-5-13-2-12z" fill="#E1E1E2"/>
<path transform="translate(1632,262)" d="m0 0h2l5 5h1v9l-8-2-1-11zm1 3m1 1 1 2z" fill="#9C9D9F"/>
<path transform="translate(1732,226)" d="m0 0 2 1 3 24v10h-1l-2-11-2-7z" fill="#C2C3C3"/>
<path transform="translate(1146,225)" d="m0 0h1v33l-3-3-4-13-3-10h2l6 16z" fill="#DADBDB"/>
<path transform="translate(997,596)" d="m0 0 2 2-2 5-10 10-6 3h-5v-2l9-4 8-7z" fill="#EBEBEB"/>
<path transform="translate(1348,459)" d="m0 0h1v41h-1l-2-30v-8z" fill="#AFB0B1"/>
<path transform="translate(859,429)" d="m0 0h7l-3 3-14 1-10 4-10 9v-3l9-8 8-4z" fill="#E4E5E5"/>
<path transform="translate(856,455)" d="m0 0h10l1 2-1 2-9 1-6 3-2 4-1-4 6-7z" fill="#9E9FA0"/>
<path transform="translate(1121,260)" d="m0 0h2l6 15 6 20-1 3-13-37z" fill="#949599"/>
<path transform="translate(1208,334)" d="m0 0h29l-1 3h-27l-10-1v-1z" fill="#AFB0B1"/>
<path transform="translate(1374,507)" d="m0 0h6l-3 1v25l-3 1z" fill="#7A8195"/>
<path transform="translate(1215,482)" d="m0 0h2l6 29-1 5h-1l-3-14-2-12-1-2z" fill="#EAEAEA"/>
<path transform="translate(1043,321)" d="m0 0h1v6l-23 1 1-5 18 1 3 1z" fill="#AFB0B1"/>
<path transform="translate(388,264)" d="m0 0 7 5 4 5 2 8v5l-2-1-4-9-7-11z" fill="#A0A2A5"/>
<path transform="translate(865,267)" d="m0 0h26v1l-23 1-1 27h-1l-1-14z" fill="#FEFEFE"/>
<path transform="translate(926,240)" d="m0 0 3 1 9 15 5 11 2 9v6h-1l-4-16-8-16-6-8z" fill="#ECECEC"/>
<path transform="translate(336,99)" d="m0 0h1l1 6 1 25-2 4-1-2z" fill="#98999B"/>
<path transform="translate(1239,516)" d="m0 0h1l-1 12-6 33h-1v-10l5-26v-7z" fill="#A7A8A9"/>
<path transform="translate(1265,490)" d="m0 0h2l-1 22-3-2-2 1 1-11z" fill="#D8D8D9"/>
<path transform="translate(427,284)" d="m0 0h1l1 7v15l-2 10-4 1 3-15z" fill="#A8A9AB"/>
<path transform="translate(1029,232)" d="m0 0h1l-1 31-4 1 3-31z" fill="#898D97"/>
<path transform="translate(523,177)" d="m0 0h2l1 3-1 22-3-3v-21z" fill="#BBBCBD"/>
<path transform="translate(1363,229)" d="m0 0 4 2 11 12 10 11 2 7-3-1v-3h-2v-3h-2l-3-5-9-10-8-9z" fill="#EFEFEF"/>
<path transform="translate(1204,548)" d="m0 0 1 3h2l3 12 1 9-3 1-4-20z" fill="#D2D3D4"/>
<path transform="translate(827,275)" d="m0 0 7 1 8 2 12 1v1h-28z" fill="#AFB0B1"/>
<path transform="translate(386,177)" d="m0 0 8 1-1 2-8 2-3 4-1 15h-1l-1-18 5-5z" fill="#ACADAE"/>
<path transform="translate(1189,431)" d="m0 0h19l-3 3h-33v-1l14-1z" fill="#ADAEAF"/>
<path transform="translate(908,179)" d="m0 0 4 2 4 5v28h-1l-1-8-1-19z" fill="#F8F8F8"/>
<path transform="translate(811,592)" d="m0 0h2l-1 22h-2l-1-3v-16z" fill="#9B9C9E"/>
<path transform="translate(887,241)" d="m0 0 7 6 6 8-4 1-11-12v-2z" fill="#A7A8AA"/>
<path transform="translate(804,509)" d="m0 0 3 1-1 19 9 1-3 2h-8z" fill="#AFB0B1"/>
<path transform="translate(1369,293)" d="m0 0h2v22l-3 5-4 4-4-1 7-5 2-11z" fill="#FEFEFE"/>
<path transform="translate(1817,193)" d="m0 0 3 2v21h-1l-1 5h-1z" fill="#AFB0B1"/>
<path transform="translate(803,507)" d="m0 0h14v1l-13 1v23h6v1l-7 1-1-15v-11z" fill="#A0A1A2"/>
<path transform="translate(1690,281)" d="m0 0h1v7l-1 3-2 19-2 6h-1l1-13 3-21z" fill="#E8E9E9"/>
<path transform="translate(582,275)" d="m0 0 6 1 3 2 18 1v1h-31l3-1z" fill="#AFB0B1"/>
<path transform="translate(945,283)" d="m0 0h1l3 18h-2v3h-2l-2-10 1-9z" fill="#97999C"/>
<path transform="translate(801,519)" d="m0 0h2v15l-17 1-11-1v-1l25-1z" fill="#EDEDEE"/>
<path transform="translate(1852,331)" d="m0 0h2l1 2v8l-5-2-7 6-4 1v-2l8-5z" fill="#E4E4E5"/>
<path transform="translate(1542,345)" d="m0 0 3 1-1 2-9 2h-14l-5-1v-1l18-1z" fill="#ACADAE"/>
<path transform="translate(901,177)" d="m0 0h6l2 2 3 5v2h-2l-3-4-4-1-8 4 2-4z" fill="#A0A2A5"/>
<path transform="translate(1489,458)" d="m0 0 2 3v21h-2l-1-6v-11z" fill="#243878"/>
<path transform="translate(1154,506)" d="m0 0h1l1 8-3 10-3 6-3 1 6-18z" fill="#9C9D9F"/>
<path transform="translate(805,433)" d="m0 0h1v23l7-1h6l-1 3h-13z" fill="#AFB0B1"/>
<path transform="translate(1112,227)" d="m0 0 3 3 5 13v5l-3-2-1-7h-2v-5h-2z" fill="#CFCFD0"/>
<path transform="translate(427,197)" d="m0 0h1l1 7v9l-4 1v-14h2z" fill="#898C95"/>
<path transform="translate(1109,155)" d="m0 0 3 2 9 23-1 3-4-8-4-11-3-6z" fill="#EDEDED"/>
<path transform="translate(899,633)" d="m0 0h9l1 3-6 2-9-1z" fill="#656E8A"/>
<path transform="translate(1536,314)" d="m0 0 1 2-7 8h-10l-6-7 1-2 5 5 3 2 5 1v-2l5-3z" fill="#EAEBEB"/>
<path transform="translate(1558,171)" d="m0 0 5 5 3 9v8l-2-1-4-15-2-3z" fill="#BFBDBD"/>
<path transform="translate(770,532)" d="m0 0h15l1 3h-4l-2 4-3 1-1-4-3-1z" fill="#A8A9AB"/>
<path transform="translate(357,322)" d="m0 0 7 4-1 3h-3l1 4-2 5-2-3-1-7 1-4z" fill="#B2B3B4"/>
<path transform="translate(872,566)" d="m0 0h1v15l-2 6-4 1 2-5 1-3 1-13z" fill="#EDEDED"/>
<path transform="translate(393,179)" d="m0 0 4 2 3 4v18h-2l-1-17z" fill="#DCDDDD"/>
<path transform="translate(1422,602)" d="m0 0h2l1 4 2 1 1 7h-6z" fill="#AEAFB0"/>
<path transform="translate(1656,245)" d="m0 0h3l3 7 5 5 2 5-3-1-3-5-8-7z" fill="#E8E8E8"/>
<path transform="translate(914,459)" d="m0 0 3 1v15l-3-4-1-6z" fill="#AFB0B1"/>
<path transform="translate(1271,307)" d="m0 0 1 4-4 9-4 4-1-2 6-12z" fill="#CACBCB"/>
<path transform="translate(897,256)" d="m0 0 4 2 9 12 2 4-1 3-8-12-6-8z" fill="#9B9C9F"/>
<path transform="translate(1025,222)" d="m0 0h1v24l-2 1-1-4 1-14z" fill="#A9AAAB"/>
<path transform="translate(1825,183)" d="m0 0h9l-1 3-9 2-4 2-2 2 1-4z" fill="#AAABAD"/>
<path transform="translate(1507,159)" d="m0 0 1 2-9 6-7 7-3 6h-2l1-5 12-12z" fill="#EAEAEA"/>
<path transform="translate(1955,322)" d="m0 0h1v12h2v11l-3-1z" fill="#B3B4B5"/>
<path transform="translate(765,268)" d="m0 0 3 1-1 12-2 6h-1v-13z" fill="#777D90"/>
<path transform="translate(1390,608)" d="m0 0h2l1 5 28 1v1h-30l-1-1z" fill="#FCFCFC"/>
<path transform="translate(1487,432)" d="m0 0 27 1v1h-25l-1 7h-1l-1-8z" fill="#9C9D9E"/>
<path transform="translate(1113,234)" d="m0 0h1l2 11v14l-2-4-1-8z" fill="#B2B3B4"/>
<path transform="translate(894,292)" d="m0 0 5 10 1 8-4-4-2-5z" fill="#CBCBCC"/>
<path transform="translate(1625,259)" d="m0 0 9 1 2 1v2h2l1 5-5-4v-2l-17-1v-1z" fill="#C8C8C9"/>
<path transform="translate(984,330)" d="m0 0 1 4h25v1l-27 1v-5z" fill="#F8F8F8"/>
<path transform="translate(1432,548)" d="m0 0 1 2h2l5 17-3-1-5-15z" fill="#E1E2E2"/>
<path transform="translate(1262,510)" d="m0 0 3 1-1 15h-1l-1-6h-2v-8z" fill="#EFF0F0"/>
<path transform="translate(944,297)" d="m0 0h1l1 9-3 9h-1v-9z" fill="#ABACAD"/>
<path transform="translate(1565,316)" d="m0 0 1 3-5 14-4 2 2-5 5-13z" fill="#ABACAD"/>
<path transform="translate(897,254)" d="m0 0 5 3 9 11 1 6-4-5-6-8-5-5z" fill="#EEEEEF"/>
<path transform="translate(1118,456)" d="m0 0 4 1 4 4 1 6-3-1-4-6z" fill="#EAEBEB"/>
<path transform="translate(1295,434)" d="m0 0h3v31h-1v-28h-2z" fill="#AFB0B1"/>
<path transform="translate(1684,332)" d="m0 0h1l-1 13 4 1-7 1 1-13z" fill="#A7A8A9"/>
<path transform="translate(413,330)" d="m0 0 2 1-4 4-6 2h-5v-2z" fill="#CFCFD0"/>
<path transform="translate(523,316)" d="m0 0h1v18h-3v-13h1z" fill="#A6A7A8"/>
<path transform="translate(1761,247)" d="m0 0h2l1 7v9h-2l-2-14z" fill="#7C8191"/>
<path transform="translate(772,219)" d="m0 0 3 1 1 10-5 1z" fill="#5B6688"/>
<path transform="translate(1432,478)" d="m0 0 2 3 3 10h2l1 5-1-2-3 1-4-12z" fill="#D0D1D1"/>
<path transform="translate(1745,323)" d="m0 0h1l1 6v16h-1l-2-14z" fill="#ECECEC"/>
<path transform="translate(1513,299)" d="m0 0h2l1 17-3-3z" fill="#F6F6F6"/>
<path transform="translate(1720,271)" d="m0 0h1l-1 13-3 3 1-14z" fill="#E5E5E5"/>
<path transform="translate(912,272)" d="m0 0 3 4 2 7v7l-2-4-3-7z" fill="#D7D7D8"/>
<path transform="translate(1486,178)" d="m0 0 2 4-3 14-2-4 1-9z" fill="#AFB0B1"/>
<path transform="translate(1357,183)" d="m0 0h7l4 5 1 5-3-1-4-6-5-2z" fill="#E2E3E3"/>
<path transform="translate(1229,548)" d="m0 0h2l1 3v11h-2l-1-4z" fill="#E9E9EA"/>
<path transform="translate(1145,320)" d="m0 0 2 1 4 12 5 1v1h-7l-4-12z" fill="#E7E7E8"/>
<path transform="translate(1737,263)" d="m0 0 2 4 1 14h-2l-2-10z" fill="#E1E1E2"/>
<path transform="translate(768,248)" d="m0 0h3l1 9-4 1-1 2z" fill="#656E8B"/>
<path transform="translate(1259,518)" d="m0 0 2 2-1 13h-2l-1-5z" fill="#B8B9BA"/>
<path transform="translate(395,272)" d="m0 0 4 2 2 8v5l-2-1-4-12z" fill="#DDDDDE"/>
<path transform="translate(1513,193)" d="m0 0 3 1-2 13-2 1v-12z" fill="#DBDCDC"/>
<path transform="translate(1415,431)" d="m0 0h4l2 10-3 1-2-8 1-1z" fill="#B3B4B5"/>
<path transform="translate(1378,345)" d="m0 0h4v2l-10 3h-6l1-2z" fill="#C2C2C3"/>
<path transform="translate(1362,277)" d="m0 0 3 1 6 12v3h-2l-5-12z" fill="#EBEBEC"/>
<path transform="translate(1121,260)" d="m0 0h2l5 12v5l-2-1z" fill="#70788E"/>
<path transform="translate(1535,189)" d="m0 0 3 2v21h-1l-2-12 1-1v-6z" fill="#F8F8F8"/>
<path transform="translate(1568,182)" d="m0 0 5 4 5 10v5l-2-3-5-10-3-4z" fill="#3B4B7E"/>
<path transform="translate(408,156)" d="m0 0 7 4 6 9-1 2-7-9-5-4z" fill="#FBFBFB"/>
<path transform="translate(864,588)" d="m0 0h5l-3 4h-10l3-1v-2z" fill="#AAABAC"/>
<path transform="translate(860,455)" d="m0 0h6l1 2-1 2-11 1z" fill="#ADAEAF"/>
<path transform="translate(1712,331)" d="m0 0h1l-1 12-1 4h-2l1-13z" fill="#F2F2F2"/>
<path transform="translate(821,579)" d="m0 0h1l3 13 1 3-4-2-2-9z" fill="#DCDCDC"/>
<path transform="translate(1319,197)" d="m0 0h1l1 22-2-2-1-8z" fill="#D3D4D4"/>
<path transform="translate(1207,562)" d="m0 0 3 1 1 9-3 1z" fill="#CDCECF"/>
<path transform="translate(303,435)" d="m0 0h2v2l9-2-4 3-5 2-1 6h-1z" fill="#929397"/>
<path transform="translate(1381,248)" d="m0 0 7 6 2 7-3-1v-3h-2v-3h-2z" fill="#E8E9E9"/>
<path transform="translate(1348,210)" d="m0 0 4 4 4 6 3 3-1 2-8-8-2-4z" fill="#DDDDDE"/>
<path transform="translate(1355,188)" d="m0 0 1 4-1 6-2-3-2 2-1-6z" fill="#A5A6A7"/>
<path transform="translate(1e3 585)" d="m0 0h1l-1 8-4 7-1-4z" fill="#A0A1A3"/>
<path transform="translate(973,573)" d="m0 0h1v11l-2 3-3-1 2-2 1-10z" fill="#EBECEC"/>
<path transform="translate(1155,526)" d="m0 0 1 2-3 4-3 5-5 2 4-6h2l1-5z" fill="#A3A4A5"/>
<path transform="translate(1215,482)" d="m0 0h2l2 9v5l-2 1-2-9z" fill="#E8E8E8"/>
<path transform="translate(1416,188)" d="m0 0h4v7l-2 1-2-1z" fill="#666F8A"/>
<path transform="translate(1756,173)" d="m0 0h4l1 11-2-4v-2h-3l-1-4z" fill="#34457D"/>
<path transform="translate(136,609)" d="m0 0h14v2h-14z" fill="#646D8A"/>
<path transform="translate(900,458)" d="m0 0 2 1v8l-3 4-1-12z" fill="#A8A9AA"/>
<path transform="translate(1855,340)" d="m0 0 5 4 3 2v2l-8-2-1-5z" fill="#B5B6B7"/>
<path transform="translate(1370,312)" d="m0 0 1 3-3 5-4 4-4-1 7-5z" fill="#E1E2E2"/>
<path transform="translate(430,294)" d="m0 0h1l1 6v11h-1l-2-9z" fill="#646D8A"/>
<path transform="translate(1765,286)" d="m0 0h2l1 13h-2l-1-5z" fill="#B8B9BA"/>
<path transform="translate(909,223)" d="m0 0 8 6 5 5-1 2-8-8-4-3z" fill="#F2F2F3"/>
<path transform="translate(1665,176)" d="m0 0h2l2 3v9l-2 1z" fill="#D2D3D4"/>
<path transform="translate(1479,431)" d="m0 0 1 3-1 10-1-3h-2l-1-7 1 2h2z" fill="#AAABAC"/>
<path transform="translate(1128,433)" d="m0 0h11l1 2-7 1-8-1z" fill="#959698"/>
<path transform="translate(1763,274)" d="m0 0h2l1 12-2 2z" fill="#A8A9AA"/>
<path transform="translate(354,231)" d="m0 0 4 1 1 4 2 5h-3l-2-3z" fill="#B4B5B6"/>
<path transform="translate(1358,220)" d="m0 0 4 4 2 5h-3l-2-2-2-6z" fill="#9A9CA2"/>
<path transform="translate(897,451)" d="m0 0h2l2 4-1 5-3-3-1-5z" fill="#C6C7C7"/>
<path transform="translate(885,439)" d="m0 0 5 2 6 9-2 1-7-9z" fill="#B7B8B9"/>
<path transform="translate(304,397)" d="m0 0 5 2 5 3-2 1-9-2z" fill="#979899"/>
<path transform="translate(915,335)" d="m0 0h8v2l-3 1h-8z" fill="#BABBBB"/>
<path transform="translate(1563,434)" d="m0 0h2l-1 5-2-4z" fill="#AFB0B1"/>
<path transform="translate(884,244)" d="m0 0 3 2-1 2z" fill="#959698"/>
<path transform="translate(174,611)" d="m0 0 4 1z" fill="#FEFEFE"/>
<path transform="translate(880,239)" d="m0 0 2 1-1 2z" fill="#A2A3A4"/>
<path transform="translate(1e3 599)" d="m0 0" fill="#AFB0B1"/>
<path transform="translate(368,244)" d="m0 0" fill="#959698"/>
<path transform="translate(364,239)" d="m0 0" fill="#959698"/>
<path transform="translate(995,606)" d="m0 0" fill="#959698"/>
<path transform="translate(996,605)" d="m0 0" fill="#AFB0B1"/>
<path transform="translate(997,604)" d="m0 0" fill="#AFB0B1"/>
<path transform="translate(998,602)" d="m0 0" fill="#AFB0B1"/>
<path transform="translate(999,601)" d="m0 0" fill="#AFB0B1"/>
<path transform="translate(1e3 598)" d="m0 0" fill="#AFB0B1"/>
<path transform="translate(892,253)" d="m0 0" fill="#959698"/>
<path transform="translate(891,252)" d="m0 0" fill="#959698"/>
<path transform="translate(890,251)" d="m0 0" fill="#959698"/>
<path transform="translate(374,251)" d="m0 0" fill="#959698"/>
<path transform="translate(889,250)" d="m0 0" fill="#959698"/>
<path transform="translate(373,250)" d="m0 0" fill="#959698"/>
<path transform="translate(888,249)" d="m0 0" fill="#959698"/>
<path transform="translate(372,249)" d="m0 0" fill="#959698"/>
<path transform="translate(887,248)" d="m0 0" fill="#959698"/>
<path transform="translate(371,248)" d="m0 0" fill="#959698"/>
<path transform="translate(370,247)" d="m0 0" fill="#959698"/>
<path transform="translate(369,246)" d="m0 0" fill="#959698"/>
<path transform="translate(883,243)" d="m0 0" fill="#959698"/>
<path transform="translate(367,243)" d="m0 0" fill="#959698"/>
<path transform="translate(882,242)" d="m0 0" fill="#959698"/>
<path transform="translate(366,242)" d="m0 0" fill="#959698"/>
<path transform="translate(365,241)" d="m0 0" fill="#959698"/>
<path transform="translate(879,238)" d="m0 0" fill="#959698"/>
<path transform="translate(363,238)" d="m0 0" fill="#959698"/>
<path transform="translate(878,237)" d="m0 0" fill="#AFB0B1"/>
<path transform="translate(362,237)" d="m0 0" fill="#959698"/>
<path transform="translate(355,230)" d="m0 0" fill="#AFB0B1"/>
</svg>
